<svg id="Capa_1" data-name="Capa 1" xmlns="http://www.w3.org/2000/svg" viewBox="0 0 91.36 76.18"><defs><style>.cls-1{fill:#54302e;}.cls-2{fill:#088c38;}</style></defs><title>2020_logo-ea</title><path class="cls-1" d="M53.38,60C62.67,60.53,70.7,55,70.7,55l.52-.42a19.42,19.42,0,0,0,7.37-15,18.84,18.84,0,0,0-2.18-8.78c-2.85.33-5.89.54-9,.75l-4.1.28L62,31.91c-6.51.55-12.69,1.49-17,4.16l-1,.65c-3.17,2.31-5.12,5.75-5.12,11,0,6.06,7,11.26,14.53,12.34M25,41.33,52.52,60.75m.86-.72,1.82.08-4,.43M33.87,65.83l-1.08-1a27.94,27.94,0,0,1-8-19.84,27.53,27.53,0,0,1,.16-2.89l.1-.75A26.41,26.41,0,0,1,31,28l1.51-1.66a31.1,31.1,0,0,1,22.29-9c9.62,0,17.92,5,21.84,12.32,1.9-.22,3.74-.5,5.5-.87C85.83,28,89,26.18,90,23l.25.1c-1.19,3.66-4.42,5.91-8.44,6.82-1.48.34-3,.59-4.67.8A21,21,0,0,1,79,39.15c.28,10.79-8.46,16.57-8.46,16.57A25.43,25.43,0,0,1,55,60.9a13.79,13.79,0,0,1-3.85-.36C43.83,59.31,38.4,53.93,38.4,47.69c0-5.13,1.63-8.66,4.34-11.11l.86-.72c4.15-3.18,10.38-4.32,17.13-4.94l1.52-.13c1.74-.15,3.5-.26,5.26-.38,2.84-.18,5.64-.37,8.33-.66-4-6.71-12.06-11.29-21.31-11.29-8,0-17,4.58-22.29,9.28,0,0-5.64,6.72-6.7,13.15a26.47,26.47,0,0,0-.35,4.1,26.78,26.78,0,0,0,9,19.71S41.86,71,50,70.62a90.73,90.73,0,0,0,13.86-1.75l1.26-.26,1.46-.31c5.77-1.22,11.65-2.44,17.84-2.44,3.77,0,6.93,2.65,6.93,5.76a4.61,4.61,0,0,1-4.66,4.56,3.45,3.45,0,0,1-1.76-.48l.28-.5a2.85,2.85,0,0,0,1.47.4,4,4,0,0,0,4.06-4c0-2.49-2.92-4.51-6.52-4.51-5.45,0-11.09,1.18-16.8,2.39l-3.81.8-1.49.29A66.38,66.38,0,0,1,49.73,72a23.8,23.8,0,0,1-15.86-6.14m0,0"/><path class="cls-2" d="M28.71,44.3l-4.7.35c-3.09.2-6.13.41-9,.75a18.88,18.88,0,0,1-2.18-8.79,19.47,19.47,0,0,1,7.37-15l.23-.15a27,27,0,0,1,15.79-5.43c.62,0,1.22,0,1.82.08l1.23.14c7.57,1.09,13.3,6.14,13.3,12.2,0,5.22-2,8.66-5.12,11l-1,.65c-3.91,3.09-17.61,4.2-17.61,4.2h-.19l.4,1.1,1.52-.13c6.75-.63,13-1.77,17.13-5l.86-.72c2.71-2.45,4.34-6,4.34-11.1C53,22.26,47.51,17,40.18,15.64l-1.34-.2a20.76,20.76,0,0,0-2.51-.15A28.06,28.06,0,0,0,20.24,20.9h0A20.86,20.86,0,0,0,12.32,37a19.74,19.74,0,0,0,1.9,8.47c-1.63.21-3.19.47-4.67.8-4,.91-7.25,3.17-8.44,6.82l.25.11C2.41,50,5.53,48.19,9.23,47.4c1.76-.37,3.6-.65,5.5-.87C18.65,53.81,27,58.84,36.57,58.84a31.1,31.1,0,0,0,22.29-9l1.51-1.66a26.38,26.38,0,0,0,6-13.32l.1-.76h0a27.49,27.49,0,0,0,.16-2.88,27.93,27.93,0,0,0-8.05-19.84l-1.08-1A23.75,23.75,0,0,0,41.63,4.22a66.36,66.36,0,0,0-12.4,1.4l-1.49.3c-1.28.25-2.55.52-3.81.79C18.22,7.93,12.58,9.1,7.13,9.1c-3.6,0-6.52-2-6.52-4.5a4,4,0,0,1,4.06-4A2.86,2.86,0,0,1,6.14,1L6.42.48A3.43,3.43,0,0,0,4.66,0,4.61,4.61,0,0,0,0,4.56c0,3.12,3.16,5.76,6.93,5.76,6.19,0,12.07-1.22,17.84-2.44l1.46-.31c13.05-2.51,15.12-2,15.12-2A24.19,24.19,0,0,1,56,10.49l1.23,1a25.89,25.89,0,0,1,9,19.71,24.36,24.36,0,0,1-.23,3.32l-.12.77a25.28,25.28,0,0,1-6.71,13.15l-1.74,1.7a31,31,0,0,1-20.55,7.59c-9.24,0-17.27-4.58-21.3-11.29,2.69-.29,5.49-.48,8.33-.67,1.76-.11,3.52-.23,5.26-.37"/></svg>