<?xml version="1.0" encoding="UTF-8" standalone="no"?>
<!-- Created with Inkscape (http://www.inkscape.org/) -->

<svg
   xmlns:dc="http://purl.org/dc/elements/1.1/"
   xmlns:cc="http://creativecommons.org/ns#"
   xmlns:rdf="http://www.w3.org/1999/02/22-rdf-syntax-ns#"
   xmlns:svg="http://www.w3.org/2000/svg"
   xmlns="http://www.w3.org/2000/svg"
   xmlns:sodipodi="http://sodipodi.sourceforge.net/DTD/sodipodi-0.dtd"
   xmlns:inkscape="http://www.inkscape.org/namespaces/inkscape"
   id="svg4136"
   version="1.1"
   inkscape:version="0.92.4 (5da689c313, 2019-01-14)"
   width="1152.5"
   height="687.5"
   viewBox="0 0 1152.5 687.5"
   sodipodi:docname="final1272-old-book.svg">
  <metadata
     id="metadata4142">
    <rdf:RDF>
      <cc:Work
         rdf:about="">
        <dc:format>image/svg+xml</dc:format>
        <dc:type
           rdf:resource="http://purl.org/dc/dcmitype/StillImage" />
        <dc:title />
      </cc:Work>
    </rdf:RDF>
  </metadata>
  <defs
     id="defs4140" />
  <sodipodi:namedview
     pagecolor="#ffffff"
     bordercolor="#666666"
     borderopacity="1"
     objecttolerance="10"
     gridtolerance="10"
     guidetolerance="10"
     inkscape:pageopacity="0"
     inkscape:pageshadow="2"
     inkscape:window-width="1920"
     inkscape:window-height="1016"
     id="namedview4138"
     showgrid="false"
     inkscape:zoom="0.69848156"
     inkscape:cx="15.032607"
     inkscape:cy="760.36801"
     inkscape:window-x="0"
     inkscape:window-y="27"
     inkscape:window-maximized="1"
     inkscape:current-layer="svg4136" />
  <circle
     transform="rotate(-90)"
     cx="58.403728"
     cy="171.80124"
     r="816.5025"
     id="circle2"
     style="fill:#ffffff;fill-rule:evenodd;stroke:#007b00;stroke-width:16.49500084;stroke-linecap:round;stroke-opacity:1;fill-opacity:0.4950166" />
  <path
     style="fill:#007b00;fill-opacity:1"
     d="m -66.787224,305.202 c -3.56146,-0.43721 -8.06146,-1.89461 -10,-3.23866 -1.93852,-1.34405 -4.4902,-2.79166 -5.67038,-3.2169 -2.17132,-0.78238 -12.229224,-19.35148 -12.229224,-22.57785 0,-0.96233 -0.81369,-2.42499 -1.80821,-3.25036 -0.99452,-0.82538 -18.794072,-34.78488 -39.554572,-75.46557 -20.7605,-40.68067 -44.26157,-86.62112 -52.22461,-102.089867 -7.96304,-15.46875 -20.11661,-39.19414 -27.00794,-52.723093 -6.89132,-13.52894 -22.72557,-44.1851898 -35.18722,-68.125 -42.49701,-81.64009 -113.38504,-218.50382 -118.28705,-228.37719 -5.60401,-11.28728 -5.63348,-11.20022 5.3196,-15.71009 3.78125,-1.55691 8.03854,-3.89802 9.46065,-5.20246 1.4221,-1.30444 3.95335,-2.35175 5.625,-2.32735 1.67164,0.0244 4.79307,-0.30763 6.9365,-0.73783 2.4965,-0.50107 5.28204,-0.066 7.75043,1.21041 4.63369,2.39618 7.93225,2.53747 10.0408,0.43011 1.67995,-1.67901 17.6839,-2.24458 17.68563,-0.625 10e-4,1.12231 7.72367,1.25325 10.52456,0.17845 1.08792,-0.41747 3.02627,-3.08935 4.30744,-5.9375 1.28117,-2.84815 3.81206,-6.54213 5.6242,-8.20885 2.03559,-1.87223 3.29479,-4.3521 3.29479,-6.48872 0,-1.90209 0.51923,-3.77924 1.15383,-4.17145 0.63461,-0.3922 1.51895,-2.37547 1.9652,-4.40725 0.44626,-2.03179 2.10816,-5.60507 3.69312,-7.94064 1.58496,-2.33557 3.53429,-6.22374 4.33185,-8.64037 1.8804,-5.69765 5.50351,-8.96068 8.94905,-8.05965 3.26686,0.8543 8.55842,-1.02395 10.54718,-3.74374 1.5908,-2.17556 3.88911,-1.93417 12.67381,1.33109 3.08258,1.14578 11.70891,2.24046 21.25,2.69662 8.83354,0.42232 16.90471,1.10881 17.93596,1.52552 1.03125,0.41672 12.28125,0.95061 25,1.18643 12.71875,0.23582 24.25,0.47426 25.625,0.52986 5.16665,0.20893 25.36529,-1.24569 35,-2.52055 5.5,-0.72776 13.09375,-1.66428 16.875002,-2.08115 3.78125,-0.41688 8.000004,-1.24555 9.375004,-1.84149 1.375,-0.59594 5.3125,-1.39311 8.75,-1.77148 3.4375,-0.37837 9.48437,-1.04951 13.4375,-1.4914 3.95312,-0.4419 7.1875,-1.20434 7.1875,-1.69432 0,-1.45466 16.04869,-5.35614 18.93144,-4.60228 1.46037,0.3819 6.93885,-0.10619 12.17438,-1.08462 26.80179973,-5.0088 35.4735297,-6.29257 50.14418,-7.42336 5.15625,-0.39743 12.35479,-1.75423 15.99674,-3.0151 7.09598,-2.45668 48.05365,-2.63946 52.58861,-0.23468 1.12181,0.59486 6.39902,1.78122 11.727154,2.63635 5.32812,0.85512 9.68749,2.05082 9.68749,2.65709 0,0.60627 1.3962,0.75189 3.10268,0.3236 2.27389,-0.57072 4.13592,0.0907 6.9709,2.47618 3.65821,3.07818 5.89157,3.84366 9.70666,3.32692 0.91037,-0.12331 2.50696,0.48268 3.54796,1.34663 9.71438,8.06222 36.67185,8.51636 36.67185,0.6178 0,-2.11293 12.2748,-9.82316 13.9703,-8.77526 0.6974,0.43103 2.48,0.18461 3.9613,-0.5476 5.0824,-2.51218 18.9465,-8.67327 25.1934,-11.19572 19.9718,-8.06453 102.2876,-7.84783 144.4997,0.3804 5.2248,1.01845 11.3087,1.85174 13.5197,1.85174 2.2109,0 5.0604,0.55686 6.3321,1.23746 1.5397,0.824 5.7065,0.78067 12.4709,-0.12968 7.3545,-0.98976 11.0929,-0.98959 13.5431,6e-4 2.7257,1.10153 28.5938,2.98298 34.947,2.54179 25.1481,-1.74641 36.0751,0.77279 49.412,11.3918 3.4249,2.72691 6.7085,4.95803 7.297,4.95803 2.1661,0 5.8389,10.29124 11.1525,31.25 2.0045,7.90625 4.7268,16.90625 6.0495,20 1.3228,3.09375 3.9093,9.16514 5.7478,13.49199 1.8385,4.32684 3.632,10.49769 3.9856,13.71299 0.4504,4.09591 1.7569,7.11484 4.3642,10.08438 4.1952,4.77806 6.4658,9.83407 5.5216,12.2948 -0.8326,2.16964 3.135,11.32189 6.9579,16.05022 1.6634,2.05733 4.351,7.11561 5.9724,11.24061 1.6215,4.125 4.4984,10.3125 6.3933,13.75 1.8948,3.4375 8.0118,16.22219 13.5933,28.41041 9.6738,21.12421 15.9476,33.1105 19.4789,37.21459 0.8873,1.03125 3.3983,6.36699 5.5801,11.8572 4.2476,10.68913 6.134,14.20224 14.44,26.8928 8.5505,13.06405 19.2173,31.6928 20.8051,36.33436 1.8105,5.29279 11.9874,24.8213 14.3383,27.51406 0.9476,1.08539 1.7229,2.43637 1.7229,3.00218 0,0.5658 2.4315,5.30276 5.4033,10.52658 2.9719,5.22379 6.7014,12.5915702 8.2879,16.37282015 1.5865,3.78125005 4.4377,9.13767005 6.3361,11.90315985 1.8983,2.76549 4.2692,6.98424 5.2685,9.375 0.9993,2.39076 2.7478,5.11884 3.8856,6.06239 1.1377,0.94356 2.0686,2.48568 2.0686,3.42691 0,0.94125 1.146,2.41925 2.5468,3.28445 1.4007,0.8652 4.1601,4.38559 6.132,7.82309 1.9719,3.437503 6.8727,10.102833 10.8907,14.811833 6.6548,7.7992 18.0895,23.10272 25.9788,34.7683 1.7036,2.51907 4.2195,5.366 5.5908,6.32651 3.4024,2.383097 5.4496,7.915707 3.4807,9.406287 -3.3951,2.57016 -13.3071,7.81502 -14.8424,7.85366 -7.3534,0.18506 -8.5921,7.07117 -2.1287,11.83341 2.7993,2.0625 5.8942,5.29688 6.8776,7.1875 0.9833,1.89063 2.4087,3.4375 3.1674,3.4375 0.7588,0 3.8153,2.39063 6.7922,5.3125 2.977,2.92188 7.1231,6.8235 9.2134,8.67029 4.2911,3.79106 4.6022,5.03714 1.9257,7.71364 -1.0312,1.03125 -1.875,2.73702 -1.875,3.7906 0,1.05357 -1.1538,2.9905 -2.564,4.30428 -1.8944,1.76495 -2.3486,3.2465 -1.7395,5.6737 0.9416,3.75147 -3.8645,5.00604 -5.2588,1.37274 -0.4096,-1.06759 -1.6346,-1.6344 -2.7732,-1.28322 -1.1217,0.34596 -14.977,0.15427 -30.7895,-0.42598 -27.704,-1.01661 -34.8459,-0.42145 -27.672,2.30605 6.8771,2.61468 20.7601,4.11854 40.8701,4.42723 11.3839,0.17473 21.9702,0.7215 23.5252,1.21501 2.2303,0.7079 2.9713,0.34591 3.5102,-1.71476 0.9799,-3.74715 4.1415,-3.29287 4.1415,0.5951 0,4.52697 -2.1309,7.96436 -5.8026,9.36035 -4.86,1.84777 -3.5493,3.49897 12.6776,15.97171 0.6875,0.52844 3.2188,2.05145 5.625,3.38446 2.4063,1.333 5.3043,3.1703 6.4401,4.08289 1.1357,0.91259 2.8785,1.48131 3.8728,1.26382 5.6454,-1.23476 10.7127,15.954 6.0715,20.59517 -2.3016,2.30163 -1.5775,3.38442 2.2634,3.38442 5.6466,0 7.6022,1.22414 7.6022,4.75874 0,2.3437 -0.3781,2.86311 -1.3656,1.87571 -0.7732,-0.77324 -3.4819,-1.08169 -6.2448,-0.71111 -2.6836,0.35995 -7.3475,-0.0366 -10.3641,-0.8812 -3.9467,-1.10499 -6.181,-1.1631 -7.9671,-0.20719 -8.5774,4.59046 -139.6498,-0.24835 -184.0583,-6.7949 -6.5313,-0.96281 -18.9063,-2.03338 -27.5,-2.37903 -8.5938,-0.34564 -20.125,-1.20254 -25.625,-1.90423 -13.5599,-1.72996 -47.3997,-4.09618 -61.5677,-4.30507 l -11.5676,-0.17055 -3.7449,4.2299 c -4.8005,5.42231 -4.7181,6.09532 0.9427,7.70113 10.1754,2.8865 26.8331,3.09661 31.2764,0.39453 3.9615,-2.40918 4.2826,-2.41809 11.2445,-0.31238 3.9416,1.19219 13.0728,2.83609 20.2916,3.65313 17.2946,1.95745 17.4272,1.97456 22.5,2.90385 2.4062,0.44081 8.4923,1.1334 13.5245,1.53911 5.0323,0.4057 10.6353,1.30251 12.4512,1.99292 1.8159,0.6904 4.5717,0.93653 6.124,0.54693 1.5523,-0.38959 5.2376,-0.16706 8.1897,0.49452 9.7493,2.18485 64.7105,2.8204 64.7105,0.74829 0,-2.85745 2.3912,-3.5319 5.4399,-1.53431 2.014,1.31959 3.4658,1.49846 5.0349,0.62034 1.5793,-0.8838 2.8002,-0.71735 4.3026,0.5866 2.9321,2.54481 76.0585,2.8758 78.9683,0.35742 2.1416,-1.85345 18.123,-3.74084 20.2973,-2.3971 0.7891,0.48773 5.4978,0.95951 10.4638,1.04842 5.4578,0.0978 9.8223,0.82001 11.0346,1.82612 1.6866,1.39975 2.3653,1.33884 4.268,-0.38308 1.2443,-1.12612 2.8744,-2.04751 3.6224,-2.04751 0.7479,0 1.611,-0.70313 1.9179,-1.5625 1.0188,-2.85265 2.2862,-0.0391 1.4619,3.24521 -1.1143,4.43976 -3.4654,4.93161 -24.9366,5.21671 -10.3125,0.13694 -24.9375,0.96608 -32.5,1.84253 -25.9949,3.01269 -131.8268,0.78229 -171.8749,-3.62225 -12.7188,-1.39881 -33.3687,-3.68819 -45.8886,-5.08748 -38.4199,-4.29397 -69.8741,-5.31211 -100.9864,-3.26878 -18.7346,1.2304 -24.6097,0.34781 -40.53,-6.08867 l -10.5299,-4.25717 -40.2152,9.83852 c -40.021,9.79103 -95.9527,18.81614 -135.5999,21.88033 -19.6277,1.51696 -39.19494,4.42654 -67.74458,10.0734 -15.603234,3.08617 -39.509484,7.24982 -53.125004,9.25255 -13.6155,2.00272 -28.41171,4.47478 -32.88046,5.49346 -4.46875,1.01868 -10.8984403,2.20617 -14.2881903,2.63885 -3.38975,0.43269 -6.64384997,1.08378 -7.23132,1.44687 -0.5874896,0.36307 -4.5486096,0.6435 -8.8025297,0.62315 -4.2539,-0.0204 -8.04507,0.46575 -8.42483,1.08021 -0.37975,0.61446 -4.33269,1.73646 -8.7843,2.49332 -4.4516,0.75688 -13.71883,2.33683 -20.59383,3.511 -7.76046,1.32541 -14.95524,1.83348 -18.9754,1.33995 z m 8.24606,-8.49827 c 1.05141,-0.66552 3.01673,-0.64703 4.83828,0.0455 4.13614,1.57256 10.9229,-0.96535 12.63602,-4.72524 1.62614,-3.569 5.12948,-3.8084 6.01785,-0.41123 0.99721,3.81333 19.33565,1.65753 27.2371901,-3.20191 1.375,-0.84562 5.875,-1.88081 9.9999996,-2.30041 11.9692203,-1.21754 22.1099303,-3.19846 27.5000003,-5.37196 3.21515,-1.29648 9.68522,-2.13974 18.125,-2.36229 7.21875,-0.19035 13.96875,-0.62005 15,-0.95491 1.03125,-0.33485 7.5,-1.27925 14.375,-2.09866 6.875,-0.81943 15.03125,-2.21997 18.125,-3.11232 3.09375,-0.89235 8.156254,-1.94178 11.250004,-2.33207 3.09374,-0.39029 7.03124,-1.00604 8.74999,-1.36835 10.07831,-2.12448 33.60995,-5.74456 40.62505,-6.2497 2.0625,-0.14853 4.9472,-0.65241 6.4106,-1.11976 2.5526,-0.81522 9.0253,-1.3499 33.5894,-2.77468 21.447,-1.24399 35.7463,-3.15017 49.5212,-6.60147 5.0758,-1.27175 10.3538,-2.32273 11.7288,-2.33552 1.375,-0.0127 5.3125,-0.69246 8.75,-1.51037 3.4375,-0.81791 9.6889,-1.9282 13.8921,-2.46733 4.2032,-0.53911 8.4195,-1.46058 9.3695,-2.04772 0.95,-0.58714 4.261,-1.4553 7.3578,-1.92925 3.0968,-0.47395 14.6306,-2.9006 25.6306,-5.39255 11,-2.49195 21.2656,-4.80881 22.8125,-5.1486 1.5468,-0.33979 2.8125,-1.47061 2.8125,-2.51296 0,-1.04234 0.8743,-3.22953 1.9429,-4.86043 3.2673,-4.98651 -6.1363,-5.54106 -25.6929,-1.51519 -5.1563,1.06145 -12.0469,2.3062 -15.3125,2.76609 -3.2657,0.4599 -5.9375,1.23166 -5.9375,1.71501 0,0.84404 -13.423,3.56402 -31.875,6.45903 -4.8125,0.75505 -14.6563,1.81852 -21.875,2.36329 -14.1793,1.07005 -29.1176,3.40201 -33.125,5.17105 -1.375,0.60697 -4.1875,1.12312 -6.25,1.14697 -10.6682,0.12337 -20.7388,1.45981 -25.625,3.40049 -2.5178,0.99997 -4.2334,1.26214 -13.75,2.1012 -4.4688,0.394 -13.1875,1.59027 -19.37505,2.65839 -6.1875,1.06811 -13.35938,2.24746 -15.9375,2.62076 -2.57813,0.3733 -4.6875,1.1409 -4.6875,1.70577 0,0.56488 -0.98438,1.25719 -2.1875,1.53847 -1.32185,0.30903 -0.36196,0.8895 2.42562,1.46682 3.07693,0.63724 6.61513,0.32661 10.625,-0.93282 3.30654,-1.03853 9.02456,-2.20039 12.70673,-2.58194 3.6822,-0.38155 7.3384,-1.199 8.125,-1.81656 0.7866,-0.61755 2.2739,-1.19256 3.3052,-1.27778 1.0312,-0.0852 5.5312,-0.4452 10,-0.79995 18.648,-1.48041 44.8968,-4.67535 52.1319,-6.34539 4.2662,-0.98477 10.0688,-1.79048 12.8946,-1.79048 2.8258,0 6.0918,-0.51059 7.2579,-1.13463 1.166,-0.62405 5.793,-1.43712 10.2822,-1.80684 4.4891,-0.36971 9.6322,-1.23116 11.429,-1.91431 1.7969,-0.68316 5.711,-1.56595 8.6982,-1.96175 2.9871,-0.3958 13.3062,-1.75857 22.9312,-3.0284 9.625,-1.26982 18.625,-1.8803 20,-1.35662 3.3683,1.28285 1.0788,2.02827 -9.375,3.05247 -7.9014,0.77411 -25.5831,3.67126 -30.625,5.01791 -2.1715,0.57998 -11.1524,1.8319 -26.875,3.74635 -2.4063,0.29299 -7.1875,1.06197 -10.625,1.70882 -17.3856,3.27156 -21.0731,3.79763 -22.1133,3.15473 -0.6223,-0.3846 -2.0889,-0.26013 -3.2591,0.27659 -1.1702,0.53671 -7.4714,1.66568 -14.0026,2.50879 -6.5313,0.84311 -17.7813,2.42749 -25,3.52084 -7.2188,1.09333 -14.8125,2.22266 -16.875,2.5096 -2.0625,0.28693 -7.5715,1.42501 -12.24223,2.52906 -4.67068,1.10404 -8.90673,1.75114 -9.41343,1.43797 -0.5067,-0.31316 -5.55858,0.23537 -11.2264,1.21894 -17.85979,3.09933 -28.18964,4.60378 -33.832824,4.92746 -3.00566,0.1724 -5.81816,0.79824 -6.25,1.39074 -0.43184,0.5925 -4.55065,1.10231 -9.15291,1.13291 -5.87195,0.039 -9.041,0.65729 -10.625,2.07282 -2.06423,1.84467 -7.49754,2.91316 -21.00725,4.13117 -4.07326,0.36724 -20.02046,0.5152 -40.6250003,0.37695 -1.71875,-0.0113 -4.25,0.0395 -5.625,0.11338 -1.37499997,0.0739 -6.5756396,0.1035 -11.5569596,0.0658 -8.8744001,-0.0673 -22.2351801,1.78437 -27.1930401,3.76857 -1.375,0.5503 -7,1.6558 -12.5,2.45666 -9.91774,1.44414 -16.72596,3.41163 -17.03636,4.92327 -2.06018,10.03288 1.10952,14.33287 7.55702,10.25178 z m -14.89566,-15.91327 c 0,-2.42931 -0.81314,-5.90998 -1.80698,-7.73481 -0.99382,-1.82482 -2.77272,-5.56786 -3.95309,-8.31786 -1.18038,-2.75 -3.38006,-6.6875 -4.88818,-8.75 -1.50811,-2.0625 -3.17547,-5.15625 -3.70525,-6.875 -0.52976,-1.71875 -1.7471,-4.66598 -2.70519,-6.5494 -0.958074,-1.88343 -1.791764,-3.85218 -1.852624,-4.375 -0.10638,-0.91403 -6.07825,-13.28128 -8.909342,-18.4506 -0.75305,-1.375 -4.28314,-8.125 -7.84464,-15 -8.53309,-16.47198 -10.95276,-20.67915 -15.51671,-26.9795 -2.0999,-2.89883 -3.818,-5.82711 -3.818,-6.5073 0,-0.68019 -1.6875,-3.97924 -3.75,-7.33123 -2.0625,-3.352 -3.75,-6.7042 -3.75,-7.44933 0,-1.86517 -3.7123,-9.78113 -6.47196,-13.8006 -1.25293,-1.82488 -2.27804,-3.88517 -2.27804,-4.5784 0,-0.69324 -1.96794,-4.24859 -4.37319,-7.90078 -2.40525,-3.6522 -5.8609,-10.59191 -7.67921,-15.42161 -1.81831,-4.82969 -3.71339,-9.34375 -4.21129,-10.03125 -1.92869,-2.66319 -15.49394,-28.536947 -18.02232,-34.374997 -0.44663,-1.03125 -1.5138,-3 -2.37152,-4.375 -0.85769,-1.375 -3.10063,-5.3125 -4.98428,-8.75 -1.88367,-3.4375 -4.5349,-7.9375 -5.89167,-10 -1.35674,-2.062503 -4.38813,-7.572793 -6.73641,-12.245093 -2.34827,-4.6723 -4.76434,-9.1723 -5.36905,-10 -0.6047,-0.8277 -2.40786,-4.87991 -4.00701,-9.00491 -1.59916,-4.125 -5.59996,-13.1249998 -8.89068,-19.9999998 -3.29072,-6.8750002 -7.70555,-16.1562502 -9.81073,-20.6250002 -2.10519,-4.46875 -5.19763,-10.65625 -6.87209,-13.75 -6.14873,-11.36049 -9.72903,-18.3378 -14.11117,-27.5 -2.46618,-5.15625 -5.46903,-10.78125 -6.67303,-12.5 -1.204,-1.71875 -4.03942,-7.625 -6.30094,-13.125 -2.26153,-5.5 -5.14316,-11.34149 -6.40364,-12.98108 -1.26047,-1.63958 -2.30102,-4.17083 -2.31233,-5.625 -0.0112,-1.45416 -1.40825,-4.89392 -3.1043,-7.64392 -1.69605,-2.75 -4.24405,-7.53125 -5.66222,-10.625 -3.1144,-6.7941 -14.18937,-29.70131 -18.13017,-37.5 -1.56332,-3.09375 -3.55602,-8.15625 -4.42822,-11.25 -0.87221,-3.09375 -2.27485,-6.46875 -3.11697,-7.5 -0.84213,-1.03125 -3.25989,-5.53125 -5.3728,-10 -2.11291,-4.46875 -4.36996,-8.96875 -5.01567,-10 -0.6457,-1.03125 -2.86614,-5.60081 -4.9343,-10.15458 -2.34248,-5.15776 -5.24218,-9.33477 -7.69049,-11.07812 -2.16161,-1.5392 -5.28774,-5.6884 -6.94694,-9.22043 -1.65921,-3.53203 -3.59321,-7.26562 -4.2978,-8.29687 -0.70458,-1.03125 -1.85355,-3.28125 -2.55326,-5 -0.69972,-1.71875 -3.49161,-5.92033 -6.20422,-9.33683 -3.62652,-4.56759 -4.74262,-6.96639 -4.21653,-9.0625 0.88996,-3.54588 -1.31511,-3.74401 -4.19789,-0.37717 -1.23392,1.44111 -2.44085,1.95091 -2.8917,1.22141 -0.63574,-1.02865 -9.98011,1.67706 -9.96136,2.88436 0.0355,2.28469 7.73274,18.93257 10.3079,22.29428 1.89063,2.46809 3.4375,5.34984 3.4375,6.40389 0,1.05405 0.84375,2.6167 1.875,3.47256 1.03125,0.85586 1.875,2.08726 1.875,2.73646 0,0.64919 1.35046,2.97094 3.00102,5.15944 3.65801,4.85021 9.43728,14.97454 14.7583,25.8541 2.18559,4.46875 5.62092,10.9375 7.63407,14.375 2.01314,3.4375 3.56325,6.4052 3.44468,6.5949 -0.11858,0.1897 1.50061,3.72214 3.59818,7.84989 2.09756,4.12774 3.81375,8.485 3.81375,9.68278 0,1.1978 1.59228,4.1341 3.5384,6.52513 1.94612,2.39101 5.07123,7.7223 6.94469,11.8473 1.87347,4.125 4.57852,9.75 6.01124,12.5 1.43272,2.75 5.06911,9.73748 8.08088,15.52772 3.01176,5.79025 6.13706,11.32434 6.9451,12.29798 0.80804,0.97362 2.44123,4.53051 3.62931,7.90417 1.18808,3.37368 3.32795,7.61858 4.75526,9.43312 1.42732,1.81454 2.59512,3.84141 2.59512,4.50417 0,1.4974 3.95826,10.10708 5.03783,10.95784 1.74708,1.37681 9.71868,16.10552 11.21003,20.7122 2.21203,6.83281 5.86226,13.92439 10.57138,20.5378 2.20291,3.09375 4.76966,7.59375 5.70387,10 0.93422,2.40625 2.99869,6.1156002 4.58773,8.2429902 1.58904,2.1274 2.88916,4.4648 2.88916,5.19423 0,0.72943 1.96875,3.68269 4.375,6.56278 2.40625,2.88009 4.375,6.0023098 4.375,6.9382598 0,0.93595 1.58509,4.39835 3.52243,7.69423 1.93732,3.29588 5.65507,10.49251 8.26166,15.99251 10.04214,21.189303 12.34725,25.635363 14.00365,27.010063 0.94175,0.78158 1.71461,2.0553 1.7175,2.83049 0.003,0.7752 1.40912,4.17666 3.125,7.5588 1.71586,3.38214 3.11976,6.93974 3.11976,7.90579 0,0.96603 2.25,6.02707 5,11.24675 2.75,5.21966 5,10.291377 5,11.270497 0,0.97911 1.875,3.97071 4.16666,6.64801 2.29168,2.6773 4.18503,5.57921 4.20747,6.44871 0.0224,0.86949 2.36617,5.64177 5.20832,10.60505 2.84215,4.96329 5.16755,9.36028 5.16755,9.77109 0,0.41083 2.48002,5.91245 5.51118,12.22585 3.03113,6.31339 6.39861,13.63897 7.48327,16.27905 1.11341,2.71006 3.06796,5.08673 4.48884,5.45829 2.34121,0.61225 3.09581,1.93165 2.61626,4.57448 -0.10812,0.59562 0.66906,2.40395 1.72698,4.01853 1.05791,1.61457 1.92347,4.29276 1.92347,5.95151 0,1.65876 0.84375,3.71618 1.875,4.57204 1.03125,0.85586 1.875,2.25512 1.875,3.10949 0,0.85435 1.03498,2.89485 2.29994,4.53443 1.26497,1.63959 2.9638,4.92563 3.77517,7.3023 0.81138,2.37668 2.50719,5.47043 3.76847,6.875 3.45087,3.84293 12.65642,22.35898 12.65642,25.45714 0,0.64104 0.8351,1.8586 1.85579,2.70569 1.02067,0.84709 3.11991,4.15034 4.66496,7.34056 4.34035,8.96195 8.719272,15.39545 13.151316,19.32188 2.36256,2.09305 4.64678,5.74831 5.48793,8.78193 2.75448,9.93427 12.34001,14.78857 12.34001,6.24925 z m 18.59765,-2.80706 c 3.33269,-2.11089 0.0511,-4.18433 -5.61211,-3.546 -3.43985,0.38771 -5.9027,0.0539 -6.70127,-0.90831 -1.66513,-2.00636 -0.35666,-3.1663 3.57177,-3.1663 1.89432,0 4.33596,-1.33438 6.01313,-3.28623 l 2.82378,-3.28622 10.34102,2.48795 c 10.60502,2.55146 16.52329,2.60503 30.96603,0.28024 9.6851001,-1.55898 14.8479397,-2.24289 17.8124997,-2.35961 5.2996,-0.20866 1.4844,-2.30348 -5.53059,-3.03669 -4.2449396,-0.44368 -8.6345496,-1.63609 -9.7546697,-2.64979 -1.69882,-1.5374 -3.8425,-1.63789 -12.92485,-0.60589 -5.98854,0.68047 -12.1458,1.1821 -13.68282,1.11474 -11.94706,-0.52357 -18.28151,-0.39725 -21.21303,0.42304 -4.14595,1.1601 -8.45654,-2.4353 -8.45654,-7.05349 0,-1.63456 -0.87026,-3.69419 -1.93393,-4.57695 -1.06365,-0.88276 -3.35773,-4.46726 -5.09797,-7.96556 -1.74023,-3.49829 -3.95391,-7.76679 -4.91931,-9.48554 -1.65054,-2.93856 -3.87842,-7.94793 -8.52079,-19.15888 -1.08954,-2.63113 -3.67905,-7.29996 -5.754494,-10.37516 -2.07543,-3.07521 -3.77351,-6.06607 -3.77351,-6.64636 0,-0.58029 -4.500002,-9.68142 -10.000002,-20.22476 -5.5,-10.54333 -10,-19.68899 -10,-20.3237 0,-2.07659 -7.69374,-17.50479 -11.91653,-23.89614 -2.27116,-3.4375 -4.85938,-7.9375 -5.75161,-10 -0.89221,-2.0625 -2.93377,-5.52586 -4.53681,-7.69636 -1.60303,-2.17049 -4.86964,-7.79549 -7.25914,-12.499997 -2.3895,-4.7045 -4.8256,-9.39739 -5.41356,-10.42864 -0.58795,-1.03125 -2.03009,-4.125 -3.20474,-6.875 -1.17464,-2.75 -4.0554,-7.90783 -6.40166,-11.46184 -2.34628,-3.554 -4.26595,-7.08689 -4.26595,-7.85083 0,-0.76395 -2.18534,-5.2455 -4.85631,-9.959 -2.67097,-4.7135 -5.52134,-10.585073 -6.33415,-13.047923 -1.21564,-3.68342 -13.36125,-28.22688 -32.87385,-66.43041 -6.31242,-12.35901 -18.43569,-39.35614 -18.43569,-41.05414 0,-0.95354 -1.10045,-3.13271 -2.44544,-4.84259 -1.34499,-1.70987 -3.54484,-5.86386 -4.88855,-9.23107 -2.7533,-6.8995 -12.31122,-25.49533 -14.03669,-27.3097 -0.62113,-0.65313 -1.12932,-2.40275 -1.12932,-3.88806 0,-1.48532 -1.28604,-4.60719 -2.85786,-6.9375 -1.57183,-2.33032 -3.63879,-6.20569 -4.59325,-8.61194 -0.95446,-2.40625 -2.76217,-5.86809 -4.01713,-7.69296 -1.25497,-1.82488 -2.28176,-3.8584 -2.28176,-4.51893 0,-0.66053 -1.05312,-2.54245 -2.34028,-4.18204 -1.28715,-1.63958 -2.72491,-5.26554 -3.19502,-8.05769 -0.47011,-2.79214 -2.22948,-6.67652 -3.90972,-8.63193 -1.68024,-1.95541 -3.05498,-4.04249 -3.05498,-4.63793 0,-1.09245 -8.95298,-20.05272 -11.11009,-23.52852 -5.25795,-8.47225 -11.43357,-20.35779 -13.01923,-25.05667 -1.05452,-3.12493 -3.91374,-9.59368 -6.35382,-14.375 -2.44008,-4.78134 -4.78153,-10.66208 -5.20322,-13.06833 -0.42169,-2.40625 -1.05937,-5.87594 -1.41707,-7.71043 -0.72449,-3.71566 2.21025,-6.94825 10.53273,-11.60172 5.40311,-3.02112 7.26357,-8.89771 3.21692,-10.1612 -1.24917,-0.39002 -3.27847,-1.24963 -4.50956,-1.91024 -1.23109,-0.6606 -2.91859,-0.76163 -3.75,-0.22451 -2.90408,1.87616 -26.05287,2.25917 -29.4448,0.48718 -2.3009,-1.20202 -10.19186,-0.36743 -10.19186,1.07795 0,0.5078 1.40181,2.83458 3.11513,5.17062 1.71332,2.33604 3.98322,6.2161 5.04421,8.62235 4.15884,9.4319 7.03787,14.97434 8.12863,15.64846 0.62747,0.3878 2.18912,3.07241 3.47033,5.96581 1.28121,2.8934 4.59478,7.61666 7.3635,10.49612 3.5754,3.71841 5.27456,6.73966 5.86419,10.42695 0.45659,2.85536 2.45625,7.24943 4.44368,9.76461 1.98744,2.51517 5.09148,8.2293 6.89787,12.69805 5.03877,12.46515 10.93824,25.44616 13.06601,28.75 0.66415,1.03125 1.51424,3.34703 1.88907,5.14616 0.37484,1.79915 2.57124,6.01834 4.8809,9.37599 2.30966,3.35765 4.98256,8.35438 5.93978,11.10384 0.95723,2.74946 3.32987,7.75592 5.27254,11.12549 1.94268,3.36956 4.399,8.71331 5.45851,11.875 1.0595,3.16168 2.71145,6.63656 3.67101,7.72195 0.95955,1.08538 1.74464,2.55593 1.74464,3.26788 0,0.71197 2.53125,6.38858 5.625,12.61471 3.09375,6.22614 5.625,12.20872 5.625,13.29462 0,1.0859 0.52113,1.97436 1.15806,1.97436 0.63694,0 2.70756,3.23437 4.6014,7.1875 1.89383,3.95312 4.40078,8.59375 5.57098,10.3125 2.40693,3.53519 11.6832,21.85046 16.77705,33.125 1.86368,4.125 5.36335,11.71875 7.77702,16.8750002 2.41369,5.15625 5.78142,12.46875 7.48385,16.25 5.2122,11.5767098 9.62865,20.4718198 11.79198,23.7499998 1.13423,1.71875 3.83112,6.5 5.9931,10.625 2.16196,4.125 4.4094,8.343753 4.9943,9.375003 0.5849,1.03125 5.72073,11.4375 11.41298,23.125 5.69224,11.6875 11.68527,23.06916 13.31783,25.29257 1.63256,2.223427 3.76037,6.287597 4.72847,9.031497 1.78819,5.06824 3.44263,8.44737 19.2438,39.30465 4.89455,9.55829 8.93879,17.99579 8.9872,18.75 0.0484,0.7542 2.27384,4.74628 4.9454,8.87128 2.67155,4.125 5.91553,9.75 7.20883,12.5 1.2933,2.75 3.28662,5.772 4.4296,6.71555 1.14299,0.94356 2.07815,2.63999 2.07815,3.76984 0,1.12986 2.25,5.90461 5,10.61056 2.75,4.70595 5.000002,9.30445 5.000002,10.21889 0,0.91443 0.52026,1.98416 1.15614,2.37715 1.38474,0.85581 12.593864,21.69781 12.593864,23.41674 0,2.61826 13.77076,29.76627 15.09886,29.76627 0.78024,0 1.11594,0.78876 0.746,1.75279 -1.24556,3.2459 9.62587,4.89012 14.00279,2.11782 z M 109.36583,260.80073 c 2.47891,-1.53205 -1.77793,-2.50742 -7.29144,-1.67066 -9.181304,1.39336 -10.305454,4.23695 -1.2795,3.23652 4.04619,-0.44847 7.9031,-1.15311 8.57094,-1.56586 z m -141.639144,-6.19108 c 4.71001,-0.76325 3.17286,-2.94182 -2.10101,-2.97772 -2.49276,-0.017 -3.38743,-1.22258 -2.98173,-4.01804 0.0697,-0.48064 -4.35978,-0.66875 -9.84342,-0.41801 -9.99946,0.4572 -11.36448,-0.0271 -11.81171,-4.19056 -0.68618,-6.38785 -6.17245,-17.56238 -7.81569,-15.91914 -0.33954,0.33954 0.60779,4.57576 2.10515,9.41386 1.49737,4.83809 2.56817,10.07705 2.37956,11.64214 -0.94845,7.87022 8.65966,9.93682 30.06885,6.46747 z m 150.086484,-2.4135 c 7.21875,-1.09261 14.8125,-2.46937 16.875,-3.05948 2.0625,-0.59012 6.22396,-1.46292 9.24769,-1.93957 3.02372,-0.47665 7.36506,-1.64686 9.64736,-2.60047 2.2823,-0.95362 5.3483,-1.73384 6.8134,-1.73384 1.4651,0 4.4362,-0.81299 6.6026,-1.80664 3.8614,-1.77106 12.5978,-3.7355 25.3416,-5.69823 3.5215,-0.54237 7.459,-1.52585 8.75,-2.18552 3.3554,-1.71451 14.0787,-4.30246 19.2741,-4.65158 2.4347,-0.16362 6.6535,-1.69697 9.375,-3.40745 2.7216,-1.71049 6.3545,-3.44903 8.0733,-3.86343 11.7283,-2.82771 16.2941,-4.2578 21.25,-6.65585 l 5.625,-2.72182 -4.6931,-0.89489 c -3.3684,-0.64231 -5.5323,-0.34496 -7.6667,1.05356 -1.6355,1.07164 -4.0237,1.91049 -5.307,1.86409 -5.8702,-0.21221 -41.0832,11.44872 -41.0832,13.6049 0,0.77249 -0.4219,1.8264 -0.9375,2.34202 -0.5157,0.51563 -0.9375,0.21739 -0.9375,-0.66276 0,-1.9528 -6.2607,-1.18922 -24.375,2.97293 -6.875,1.57967 -18.125,4.1145 -25,5.63295 -6.87505,1.51846 -13.62505,3.22536 -15.00005,3.79312 -8.77853,3.62483 -20.22004,6.44332 -39.06249,9.62264 -2.378944,0.4014 -4.062504,1.42931 -4.062504,2.48036 0,1.32431 1.06507,1.62534 4.062504,1.1482 2.23437,-0.35567 9.96874,-1.54064 17.18749,-2.63324 z M 42.663486,252.0884 c 7.41031,-1.13991 2.37629,-2.43701 -7.66281,-1.97445 -7.4415,0.34288 -9.6875,0.86815 -9.6875,2.26566 0,1.8199 4.07061,1.75158 17.35031,-0.29121 z m -5.61269,-6.20217 c 10.23694,-0.9754 19.66359,-1.77344 20.94809,-1.77344 1.96227,0 2.10391,-0.37077 0.88643,-2.32029 -1.12299,-1.79819 -2.18013,-2.09569 -4.69809,-1.3221 -7.47955,2.29789 -18.9394,3.4489 -22.91245,2.30128 -5.36475,-1.54961 -39.7757299,-0.0833 -42.09113,1.79371 -0.965,0.78224 -2.85461,1.23589 -4.19913,1.0081 -1.34454,-0.22777 -2.14655,0.0681 -1.78224,0.6576 1.09089,1.7651 33.90961,1.55491 53.84852,-0.34487 z m 36.55953,-2.15392 c 0.47824,-0.47825 2.11332,-0.86952 3.63352,-0.86952 2.83092,0 11.81933,-3.31912 11.81933,-4.36449 0,-1.12518 -12.90451,0.519 -14.19399,1.80848 -0.71831,0.71831 -2.31851,1.30601 -3.55601,1.30601 -1.2375,0 -2.25,0.79398 -2.25,1.7644 0,1.7655 2.90955,1.99272 4.54715,0.35511 z m -110.21036,-2.28963 c 0.39343,-0.39344 -1.95013,-2.08704 -5.20792,-3.76355 -4.43687,-2.2833 -6.1379,-3.97583 -6.77866,-6.74478 -1.20594,-5.21132 -5.42306,-16.33512 -8.98357,-23.69655 -1.66262,-3.4375 -3.73472,-8.5 -4.60465,-11.25 -1.97464,-6.24207 -2.87304,-8.16964 -8.15638,-17.5 -4.83294,-8.53499 -10.60561,-20.09052 -10.60561,-21.22996 0,-0.42083 -1.8971,-3.73079 -4.21579,-7.35548 -2.31868,-3.62468 -6.306704,-11.89453 -8.862274,-18.37746 -2.55557,-6.48291 -5.64868,-13.75586 -6.873582,-16.16211 -1.2249,-2.40625 -3.39466,-7.1875 -4.82171,-10.625 -6.34857,-15.292577 -9.81069,-22.016527 -17.20291,-33.410697 -1.66307,-2.56339 -3.02374,-5.12311 -3.02374,-5.6883 0,-1.32566 -2.28604,-6.50694 -6.40629,-14.51975 -1.8047,-3.50969 -6.49037,-12.662963 -10.4126,-20.340603 -7.29894,-14.28747 -9.37085,-17.03232 -13.89309,-18.40545 -3.44198,-1.04512 -11.48951,-15.6627398 -13.83783,-25.1352 -1.71623,-6.92274 -5.88344,-16.85905 -8.36773,-19.95202 -1.90432,-2.3709 -8.2062,-13.70144 -11.498,-20.67298 -6.02874,-12.76795 -8.26224,-16.87024 -9.87167,-18.13139 -1.88323,-1.4757 -13.21279,-22.79407 -13.21279,-24.86196 0,-0.77761 -1.26563,-1.97328 -2.8125,-2.65704 -2.04173,-0.9025 -2.7212,-2.13609 -2.47936,-4.50122 0.18322,-1.79191 -0.5199,-3.96599 -1.5625,-4.83126 -1.0426,-0.86528 -1.89564,-2.28402 -1.89564,-3.15274 0,-0.86873 -2.25,-4.94891 -5,-9.06707 -2.75,-4.11816 -5,-8.28851 -5,-9.26743 0,-4.09679 -9.04791,-7.01115 -10.2811,-3.31159 -1.44106,4.32318 3.61114,17.27967 10.39437,26.6567 2.48666,3.4375 4.88111,7.09375 5.32101,8.125 0.43989,1.03125 1.32531,2.71875 1.96757,3.75 0.64227,1.03125 1.49689,2.71875 1.89912,3.75 0.40225,1.03125 2.01224,4.125 3.57777,6.875 5.32937,9.3616 6.93258,12.498 16.31293,31.91343 9.76303,20.20748 22.05833,48.4085602 22.05833,50.5940102 0,0.69434995 1.45209,3.99019 3.22686,7.32408 3.5765,6.7184498 3.35694,12.5317998 -0.44566,11.7994898 -1.46164,-0.28149 -2.39711,-2.16961 -2.98286,-6.02056 -0.73363,-4.8230098 -4.9687,-16.6096098 -8.45024,-23.51776 -0.58006,-1.15098 -2.89544,-6.59269 -5.14526,-12.09269 -7.06781,-17.27824 -36.67053,-75.97389 -40.6626,-80.625 -0.88513,-1.03125 -3.47816,-5.45943 -5.76229,-9.84038 -7.02064,-13.46561 -7.62513,-14.50922 -8.88106,-15.33237 -0.66945,-0.43875 -0.79752,-1.47676 -0.2846,-2.30669 0.51292,-0.82992 0.36785,-2.72093 -0.32238,-4.20225 -0.69022,-1.48132 -1.98638,-5.22456 -2.88035,-8.31831 -0.89397,-3.09375 -2.64559,-7.11809 -3.89248,-8.94296 -1.2469,-1.82488 -2.26708,-3.7309 -2.26708,-4.2356 0,-0.5047 -4.46708,-9.98037 -9.92684,-21.05704 -5.45975,-11.07668 -10.77282,-22.10815 -11.8068,-24.5144 -1.03399,-2.40625 -2.83952,-6.0625 -4.01229,-8.125 -1.17277,-2.0625 -2.6097,-4.73438 -3.19319,-5.9375 -1.55601,-3.20845 -3.79895,-7.54621 -5.00913,-9.6875 -2.18889,-3.87299 -7.30175,-14.87341 -7.30175,-15.70986 0,-0.47853 -1.20886,-2.82604 -2.68636,-5.21669 -3.14812,-5.09375 -5.784,-3.03846 -3.57034,2.78392 0.69119,1.81796 1.2567,4.63393 1.2567,6.25772 0,3.29363 5.63146,16.19682 15.27972,35.00991 9.35931,18.2497 14.24888,28.02521 17.19387,34.375 1.43486,3.09375 3.67622,7.59375 4.9808,10 1.30458,2.40625 2.98945,6.7434 3.74416,9.6381 0.75471,2.8947 3.41896,7.9445 5.92056,11.22177 2.5016,3.27728 7.85172,13.28388 11.88915,22.2369 7.8798,17.47347 13.99073,30.54811 19.87718,42.52823 2.02682,4.125 3.66926,8.00822 3.64985,8.62939 -0.0505,1.61821 6.20839,14.76706 8.09002,16.99561 0.87073,1.03125 2.89415,5.53125 4.4965,10 1.60235,4.46875 4.18693,10.01355 5.74352,12.32176 1.55658,2.30823 4.28512,7.37073 6.06341,11.25 5.19111,11.3242202 9.51507,19.3675902 11.85538,22.0532402 1.1982,1.375 2.55703,3.9062498 3.01963,5.6249998 1.03456,3.84383 4.76275,12.89804 5.66175,13.75 0.36272,0.34375 2.62825,4.84172 5.0345,9.99551 2.40625,5.15379 5.5,11.074143 6.875,13.156343 1.375,2.08221 3.52459,6.30299 4.77685,9.37949 2.13787,5.2522 3.97825,9.10277 8.64782,18.09366 1.0712,2.0625 3.13124,6.0797 4.57788,8.92711 5.81016,11.4362 11.47935,20.757657 12.19144,20.045557 0.27998,-0.27998 -0.30303,-2.13212 -1.2956,-4.11587 -1.81914,-3.635707 -7.14464,-20.298727 -7.04728,-22.050257 0.11725,-2.10979 -4.14918,-10.76527 -8.91907,-18.09428 -2.78763,-4.28326 -5.15024,-9.20474 -5.25023,-10.93662 -0.1,-1.73188 -0.53545,-3.14928 -0.96766,-3.14975 -0.43221,-4.9e-4 -1.52967,-1.82902 -2.43879,-4.063393 -0.90911,-2.23438 -3.5443,-7.04441 -5.85599,-10.68898 -4.02795,-6.35042 -4.83673,-10.26012 -2.16937,-10.4868 0.6875,-0.0584 1.90225,1.17228 2.69945,2.73489 0.7972,1.56261 1.97967,3.187 2.62772,3.60975 1.61282,1.05211 4.93724,8.65215 5.91707,13.52714 0.44312,2.20469 3.57882,8.622593 6.96822,14.262033 3.3894,5.63942 6.16254,11.22853 6.16254,12.42024 0,1.19172 0.79577,2.47213 1.76838,2.84535 1.93404,0.74217 3.15953,2.7876 10.61288,17.71388 2.74639,5.5 6.91809,12.669197 9.27043,15.931547 2.35233,3.26236 6.10593,10.57486 8.34132,16.25 2.23539,5.67515 5.46996,11.827 7.18794,13.67079 1.71797,1.84377 3.59239,5.50002 4.16537,8.125 0.57298,2.62496 1.42749,6.46016 1.8989,8.52266 1.12985,4.9432 17.622436,39.12157 20.809726,43.125 l 2.48793,3.125 -0.91577,-4.375 c -0.50368,-2.40625 -1.32171,-4.9375 -1.81784,-5.625 -0.49613,-0.6875 -2.20427,-4.90625 -3.79586,-9.375 -1.59159,-4.46875 -4.21445,-11.0948 -5.828604,-14.72455 -1.61414,-3.62974 -2.9348,-7.15513 -2.9348,-7.83417 0,-0.67906 -2.75465,-6.14677 -6.121442,-12.15047 -3.36679,-6.0037 -6.9865,-13.44706 -8.04379,-16.54081 -2.66812,-7.80723 -10.38037,-23.06678 -12.58118,-24.89329 -2.01602,-1.67313 -8.25359,-13.072507 -8.25359,-15.083697 0,-2.4764 3.59399,-1.23261 4.44845,1.53949 0.47681,1.54687 2.48348,5.03269 4.45924,7.74625 1.97577,2.71356 3.59231,5.623537 3.59231,6.466597 0,0.84306 1.26562,3.12287 2.8125,5.06624 2.70894,3.40331 6.1618,9.94768 10.10812,19.15841 2.92365,6.82381 6.935942,15.20699 9.572272,20 2.52629,4.59299 7.582914,17.00735 8.024254,19.70015 0.142,0.86634 0.92747,2.24446 1.74551,3.0625 0.81805,0.81805 1.48735,2.76842 1.48735,4.33417 0,1.56575 1.57839,5.81263 3.50754,9.4375 1.92913,3.62488 4.23095,9.07885 5.11512,12.11997 0.88418,3.0411 3.8775,9.714 6.65184,14.82866 4.55275,8.39329 6.5921,13.04181 11.55216,26.33217 2.0581,5.51462 15.69465,8.08023 20.01013,3.76476 z M -134.68712,80.675293 c -7.27915,-15.87046 -15.60854,-32.00236 -20.0647,-38.860263 -2.71426,-4.17715 -4.93501,-8.09935 -4.93501,-8.716 0,-0.61665 -1.40625,-2.63855 -3.125,-4.49312 -1.71875,-1.85456 -3.12846,-4.32732 -3.1327,-5.49502 -0.004,-1.1677 -0.84799,-3.73428 -1.875,-5.70349 -2.26379,-4.34061 -2.27754,-4.54539 -0.3048,-4.54164 0.85937,10e-4 3.23644,3.236 5.28236,7.1875 4.84896,9.36529 13.78248,24.56445 18.31454,31.159753 1.97483,2.87387 3.5906,5.7814 3.5906,6.4612 0,1.45375 3.99686,9.27373 5.2134,10.20015 0.46111,0.35117 1.25631,2.30362 1.76711,4.3388 0.5108,2.03519 2.00629,5.52667 3.3233,7.75884 2.25221,3.81721 2.13908,6.64079 -0.26607,6.64079 -0.5856,0 -2.2902,-2.67188 -3.78803,-5.9375 z M -13.695164,239.06194 c 2.82518,-4.52381 -10.32127,-6.35149 -15.62441,-2.17216 -0.82925,0.65353 -2.03594,0.86178 -2.68151,0.4628 -1.32486,-0.8188 -2.92183,2.35745 -1.76628,3.513 2.17086,2.17087 18.5068,0.70297 20.0722,-1.80364 z m 431.508384,-0.0875 c 13.2476,-2.52234 18.57,-6.88945 13.8058,-11.32796 -2.7772,-2.5873 -9.9601,-2.01131 -27.8669,2.2346 -4.803,1.13885 -9.3787,1.57569 -10.625,1.01434 -1.2039,-0.54225 -7.1196,-1.08595 -13.1459,-1.20819 -7.7243,-0.1567 -11.5967,-0.7793 -13.125,-2.11026 -4.5077,-3.92544 -8.9276,-3.35124 -11.5222,1.49686 -4.6112,8.61616 35.6867,15.00188 62.4792,9.90061 z m 333.9121,-0.5997 c 5.9156,-0.75621 6.9786,-1.77618 9.6524,-9.26197 4.1205,-11.53562 -15.9103,-16.31951 -26.6976,-6.37611 l -5.0873,4.68931 -13.0773,0.2565 c -7.1926,0.14107 -16.4524,0.87519 -20.5774,1.63136 -4.125,0.75616 -22.4062,1.48972 -40.625,1.6301 -31.901,0.24583 -44.3628,1.16589 -43.116,3.18326 1.6625,2.68997 8.9625,3.22558 57.3791,4.21 20.5635,0.4181 37.6756,1.04758 38.0268,1.39882 0.7691,0.76907 35.9477,-0.31625 44.1223,-1.36127 z m -822.259244,-6.38381 c -1.02288,-3.917 -2.93823,-8.49286 -4.25634,-10.16857 -1.31811,-1.6757 -2.39656,-4.29943 -2.39656,-5.83049 0,-2.51211 -6.52964,-16.41956 -11.44615,-24.3791 -1.06165,-1.71875 -3.842464,-7.48376 -6.179564,-12.81114 -3.98928,-9.09344 -6.483592,-11.73596 -7.682562,-8.13905 -0.98567,2.957 2.606722,11.63486 9.564392,23.10395 3.846644,6.34081 6.993884,12.08147 6.993884,12.75699 0,0.67552 1.40625,3.30045 3.125,5.83317 1.71875,2.53272 3.125,5.3687 3.125,6.30218 0,3.77817 8.7082,20.22634 10.81884,20.43476 0.10662,0.01 -0.64307,-3.18569 -1.66594,-7.1027 z m 87.0971,4.71274 5.625,-1.06699 -6.25,-0.22961 c -3.4375,-0.12629 -8.7812503,-0.6187 -11.8750003,-1.09426 -5.26387,-0.80914 -11.2176696,0.53657 -11.2402496,2.54059 -0.0235,2.08931 12.3476196,2.01128 23.7402499,-0.14973 z m 51.5902,-0.88076 c 5.534,-0.92545 6.9839,-2.45076 3.40832,-3.5856 -3.1583,-1.00242 -10.49078,1.32301 -12.71103,4.03117 -1.47352,1.79733 -1.30728,1.93207 1.46251,1.18539 1.71875,-0.46334 5.24684,-1.19728 7.8402,-1.63096 z m 18.4098,-2.96014 c 0,-1.15954 -0.91576,-1.40768 -6.44955,-1.74757 -1.14101,-0.0701 -2.48509,-0.53402 -2.98685,-1.03094 -1.65069,-1.6348 -3.23143,0.44514 -1.72124,2.2648 1.65672,1.99621 11.15764,2.43366 11.15764,0.51371 z m 516.153344,0.0584 c -1.7719,-0.53721 -8.2407,-1.37253 -14.375,-1.85627 -6.1343,-0.48375 -13.4033,-1.47941 -16.1533,-2.21258 -2.75,-0.73317 -8.6563,-1.484 -13.125,-1.6685 -4.4688,-0.1845 -9.7403,-0.96306 -11.7146,-1.73011 -2.6893,-1.04487 -4.035,-1.025 -5.3655,0.0793 -3.0737,2.55102 0.1235,3.81754 11.0232,4.36658 13.6677,0.68846 39.0392,3.05553 39.7027,3.70411 0.2864,0.28004 3.3802,0.46081 6.875,0.40172 5.0647,-0.0856 5.7004,-0.30566 3.1325,-1.08417 z m -639.380584,-3.3171 c 3.02834,-1.16208 2.35098,-4.09982 -1.14776,-4.97796 -7.62526,-1.91382 -2.02113,-6.0633 6.4693,-4.79008 3.87624,0.58128 6.24109,0.26694 8.34049,-1.10865 2.44781,-1.60386 4.35103,-1.70576 11.56022,-0.61896 10.3806497,1.5649 28.00486,2.00032 28.00494,0.69189 5e-5,-0.8616 -4.14506,-1.50224 -6.7085903,-1.03682 -0.596,0.10825 -2.93966,-0.41581 -5.20814,-1.16447 -2.26848,-0.74865 -8.9527196,-1.3612 -14.8538697,-1.3612 -9.66864,0 -10.72935,-0.23238 -10.72935,-2.35056 0,-1.45654 -1.03248,-2.50249 -2.71459,-2.75 -3.46066,-0.50922 -4.1883,-2.69298 -1.71981,-5.16148 2.22165,-2.22164 1.35129,-5.67679 -2.04579,-8.12134 -1.2484,-0.89836 -2.26981,-2.2763 -2.26981,-3.06208 0,-2.69703 -7.83176,-22.17954 -8.91594,-22.17954 -0.59623,0 -1.10161,-0.98438 -1.12307,-2.1875 -0.0215,-1.20313 -1.42483,-4.4375 -3.1186,-7.1875 -1.69377,-2.75 -3.08247,-5.88143 -3.08599,-6.95872 -0.005,-1.69269 -3.73556,-9.68288 -8.42215,-18.04128 -0.77096,-1.375 -1.72049,-3.34375 -2.11005,-4.375 -0.38956,-1.03125 -1.23803,-2.71875 -1.88549,-3.75 -0.64745,-1.03125 -1.91333,-3.70313 -2.81309,-5.9375 -0.89975,-2.23438 -2.02788,-4.0625 -2.50698,-4.0625 -2.12413,0 -1.84527,2.37544 1.00755,8.58272 1.74611,3.7993 2.73652,7.69572 2.30317,9.06108 -1.11461,3.51181 1.14295,9.55175 11.43973,30.60616 5.077,10.38123 9.23091,19.83294 9.23091,21.00381 0,1.17088 1.40625,4.19834 3.125,6.72772 1.71875,2.52936 3.125,5.46811 3.125,6.53055 0,1.06243 0.89706,3.21242 1.99346,4.77776 1.22723,1.7521 1.69854,4.02112 1.22619,5.90312 -1.43299,5.70948 -4.35015,3.28359 -6.84583,-5.69292 -0.86012,-3.09375 -2.55571,-7.875 -3.76796,-10.625 -1.21226,-2.75 -3.47391,-8.09375 -5.02591,-11.875 -3.11951,-7.6003 -9.77161,-21.53194 -24.98069,-52.31755 -5.55459,-11.24344 -10.09926,-21.29486 -10.09926,-22.33652 0,-1.04166 -1.90488,-5.06126 -4.23306,-8.93245 -2.32818,-3.871187 -5.70934,-10.303007 -7.513684,-14.292957 -1.80433,-3.98995 -4.33693,-8.38828 -5.628,-9.77408 -1.29106,-1.38578 -2.700922,-4.2873 -3.133022,-6.44779 -0.4321,-2.16051 -3.30713,-8.89089 -6.38894,-14.95641 -3.08181,-6.06552 -5.6033,-11.667713 -5.6033,-12.449323 0,-0.7816 -0.74843,-2.30914 -1.66316,-3.39453 -0.91474,-1.08538 -2.6684,-4.6967 -3.89702,-8.02515 -1.22861,-3.32845 -4.41768,-9.64641 -7.08683,-14.03991 -2.66914,-4.3935 -4.86198,-8.7014698 -4.87295,-9.5732698 -0.0112,-0.8718 -1.6688,-3.45544 -3.68403,-5.74141 -2.01524,-2.28598005 -4.3241,-6.22348 -5.13081,-8.75 -0.80672,-2.52653 -2.7126,-5.9999302 -4.23529,-7.7186802 -1.52269,-1.71875 -4.64093,-7.0625 -6.92946,-11.875 -2.28851,-4.8125 -4.93891,-10.15625 -5.88979,-11.875 -0.95086,-1.71875 -2.81735,-5.375 -4.14775,-8.125 -1.33038,-2.75 -5.77366,-10.34375 -9.87395,-16.875 -4.10027,-6.53125 -7.48517,-12.33615 -7.522,-12.89977 -0.0369,-0.56364 -1.7329,-3.44615 -3.76905,-6.40559 -3.56586,-5.18281 -7.49197,-14.55031 -7.52972,-17.96554 -0.01,-0.90525 -1.42444,-3.48959 -3.14319,-5.74299 -1.71875,-2.2534 -3.125,-4.7864 -3.125,-5.62888 0,-1.55807 -6.67435,-11.87594 -9.62806,-14.88402 -0.89207,-0.90847 -1.62194,-2.38647 -1.62194,-3.28444 0,-0.89796 -0.77364,-2.27472 -1.7192,-3.05947 -0.94556,-0.78474 -2.43936,-4.08799 -3.31958,-7.34055 -1.99095,-7.35699 -4.64267,-12.78875 -6.24332,-12.78875 -2.27084,0 0.26584,7.44377 6.95657,20.4138 1.00404,1.94634 1.82553,4.36809 1.82553,5.38165 0,1.01357 1.96875,5.55276 4.375,10.08709 4.9218,9.27461 5.17982,10.36746 2.44772,10.36746 -2.05469,0 -7.07273,-10.14214 -11.8179,-23.8856 -1.51716,-4.39416 -5.46428,-13.6144 -8.77138,-20.4894 -10.12762,-21.05389 -14.98344,-31.93434 -14.98344,-33.57336 0,-0.86126 -1.40625,-3.472 -3.125,-5.80164 -1.71875,-2.32964 -3.125,-4.92945 -3.125,-5.77738 0,-0.84791 -2.76659,-6.8783 -6.14798,-13.40083 -3.38139,-6.52254 -5.85583,-12.15132 -5.49877,-12.50838 0.35707,-0.35706 -0.72244,-2.51429 -2.39891,-4.79381 -2.88895,-3.92816 -7.20434,-12.35328 -7.20434,-14.06534 0,-0.4361 -2.53125,-6.06686 -5.625,-12.51281 -3.09375,-6.44593 -5.625,-13.1158 -5.625,-14.82192 0,-3.39574 -2.77594,-5.09715 -6.42609,-3.93863 -2.49468,0.79178 -3.1217,3.6785 -1.07391,4.9441 0.6875,0.4249 1.25,1.85321 1.25,3.17402 0,2.21091 5.05279,16.42403 7.64205,21.49652 0.60937,1.1938 1.10795,3.02192 1.10795,4.0625 0,1.04057 0.4711,1.89196 1.04688,1.89196 1.11144,0 7.13351,13.33476 6.31781,13.98965 -0.26398,0.21194 0.82177,2.21347 2.41279,4.44785 1.59102,2.23437 2.5568,4.0625 2.14618,4.0625 -0.59942,0 4.80995,11.60149 10.51009,22.54103 0.5491,1.05382 1.39404,3.86632 1.87764,6.25 0.48361,2.38368 1.79161,6.86522 2.90667,9.95897 1.79099,4.96914 3.07395,7.66115 8.638,18.125 1.79336,3.37261 6.43905,14.74921 9.36873,22.94263 2.75917,7.71654 13.34043,26.43237 14.94392,26.43237 0.59471,0 1.08129,1.37305 1.08129,3.05123 0,1.67817 0.63242,3.44208 1.40539,3.91981 0.77296,0.47771 3.00983,4.4071 4.97081,8.73196 1.96099,4.32486 4.1491,8.22411 4.86247,8.665 0.71338,0.44089 2.48958,3.15409 3.9471,6.02931 1.45754,2.87523 3.1134,5.52755 3.6797,5.89405 0.5663,0.36649 3.04917,4.86649 5.51749,10 8.0897,16.82462 13.00509,25.54991 15.58166,27.659 1.39445,1.14145 2.53538,2.79199 2.53538,3.66785 0,0.87587 1.22847,4.13018 2.72995,7.2318 1.56419,3.23118 2.61618,7.5675 2.46353,10.15469 -0.46419,7.8669402 3.75148,15.4325002 9.15839,16.4359502 2.23479,0.41475 9.38249,10.2851598 13.43986,18.5593498 0.84281,1.71875 1.91202,3.40626 2.37602,3.75004 0.464,0.34377 4.28079,7.65627 8.48174,16.25 4.20096,8.593723 9.06835,18.296833 10.81641,21.562463 1.74808,3.26562 2.84483,5.9375 2.43723,5.9375 -1.113,0 1.75073,5.0407 5.79783,10.20525 1.97408,2.51915 5.57349,9.5504 7.9987,15.625 2.42522,6.074607 5.509922,13.429247 6.854902,16.343617 1.34499,2.91439 2.44544,5.65223 2.44544,6.08409 0,0.43187 3.13938,7.29064 6.976394,15.24172 3.83701,7.95108 7.86177,16.7445 8.9439,19.54092 1.08214,2.79643 2.70312,5.94935 3.60219,7.00653 0.89906,1.05716 4.23902,7.24466 7.42213,13.75 3.18312,6.50532 6.85169,13.79662 8.15238,16.20287 4.85289,8.97766 8.65301,18.46781 8.65301,21.60934 0,1.78371 0.47906,3.5392 1.06459,3.90107 0.58552,0.36188 2.07082,3.34819 3.30066,6.63627 3.40009,9.09039 5.37159,10.56486 11.15751,8.34458 z m 314.383284,-1.14954 c 10.6592,-1.88487 13.73,-2.95374 9.3648,-3.2596 -8.9956,-0.63032 -25.5208,2.05961 -25.5208,4.15417 0,1.45565 4.1713,1.22468 16.156,-0.89459 z M -7.5484839,227.09651 c 0.43188,-1.31812 -8.2749901,-3.51373 -9.4146301,-2.37409 -0.2929,0.29291 -0.18569,1.4365 0.23828,2.54131 0.8831,2.30135 8.4124701,2.16413 9.1763501,-0.16722 z M 121.87567,226.99119 c 2.25476,-1.26494 0.74511,-3.10988 -1.875,-2.29141 -1.54688,0.48321 -3.79688,0.86502 -5,0.84847 -2.21655,-0.0305 -2.85669,1.22868 -1.37693,2.70844 0.75338,0.75339 6.12043,-0.0697 8.25193,-1.2655 z m 414.58335,0.0912 c 2.3435,-2.11346 -36.5629,-6.38881 -44.3938,-4.87835 -6.3507,1.22493 -2.8291,2.76798 6.7895,2.9749 3.6667,0.0789 8.9961,0.7707 11.8433,1.53738 2.8472,0.76666 7.7223,1.06527 10.8334,0.66356 3.1112,-0.4017 6.5005,-0.189 7.5318,0.47267 1.6355,1.04944 5.8667,0.60881 7.3958,-0.77016 z M 50.313176,224.81065 c 3.09375,-0.3504 11.53125,-0.97219 18.75,-1.38176 30.01696,-1.70308 40.813324,-2.64919 42.544774,-3.7283 1.00662,-0.62738 3.79897,-1.28734 6.20522,-1.46659 13.5607,-1.01016 25.30467,-2.81795 26.89831,-4.14056 1.00091,-0.83069 2.68748,-1.1774 3.7479,-0.77048 1.06044,0.40693 4.02074,-0.0271 6.57844,-0.96461 8.9452,-3.27865 28.4184,-8.69286 32.143,-8.93686 4.6873,-0.30706 20.5248,-4.12172 23.3869,-5.63303 1.2438,-0.65675 2.4159,-0.66119 2.8179,-0.0113 0.3921,0.63435 2.1657,0.65702 4.1205,0.0526 1.8876,-0.58363 7.3696,-1.69115 12.1821,-2.46116 13.5194,-2.16311 14.1619,-2.36608 14.9052,-4.70804 0.3833,-1.20768 1.757,-2.75324 3.0526,-3.43459 1.2957,-0.68136 4.0777,-2.21922 6.1823,-3.41747 3.7223,-2.11937 8.4239,-1.82252 7.0234,0.44346 -1.2947,2.09487 2.7798,2.48506 10.8286,1.03699 13.0078,-2.3403 21.4343,-3.73274 26.7579,-4.42165 2.75,-0.35588 6.125,-1.1187 7.5,-1.69517 1.375,-0.57646 7.5022,-1.65513 13.6162,-2.39703 6.5052,-0.7894 11.9902,-2.13995 13.2234,-3.25594 2.1859,-1.97824 6.284,-2.61018 6.2872,-0.96951 10e-4,0.51562 6.3291,0.96503 14.0625,0.9987 21.4768,0.0935 39.6857,7.46048 39.6857,16.05617 0,3.13565 -6.4312,0.24371 -8.0445,-3.61737 -1.6073,-3.84688 -2.3691,-4.375 -6.3107,-4.375 -4.1039,0 -4.3691,0.21252 -3.1373,2.51413 0.7401,1.38279 1.2121,3.21092 1.0489,4.0625 -0.1631,0.85161 0.1528,2.87672 0.702,4.50025 1.6043,4.74279 -1.7515,6.98293 -10.8519,7.24414 -13.4939,0.38733 -15.921,1.86026 -8.9461,5.42898 2.0155,1.03125 3.8853,2.00203 4.1552,2.15728 0.2698,0.15527 -0.2407,1.16348 -1.1345,2.24049 -2.3041,2.77625 0.02,4.68965 5.8902,4.84855 4.6221,0.12511 4.7423,0.2449 4.3429,4.32811 -0.3012,3.0789 0.032,4.03782 1.25,3.59375 0.9134,-0.33312 1.5201,-1.2385 1.3483,-2.01193 -0.4242,-1.90867 0.4683,-1.77129 4.1454,0.63807 3.8493,2.52214 4.7729,1.74044 3.7024,-3.13361 -0.5664,-2.57873 -1.3931,-3.55108 -2.619,-3.08065 -0.9852,0.37807 -1.7913,0.11412 -1.7913,-0.58645 0,-0.70063 2.3906,-1.6679 5.3125,-2.14949 2.9218,-0.4816 6.1531,-1.33349 7.1806,-1.8931 1.1795,-0.64241 3.6157,-0.0353 6.6092,1.64718 4.2278,2.37619 5.1758,2.48739 8.7569,1.0272 8.7202,-3.55565 16.0775,-4.35722 26.3076,-2.86615 5.4447,0.79356 10.3423,1.16912 10.8836,0.83457 0.5413,-0.33455 11.017,-0.89297 23.2794,-1.24093 12.2623,-0.34797 29.3264,-0.92163 37.9202,-1.27479 8.5937,-0.35318 18.1562,-0.0869 21.25,0.59171 6.9034,1.51429 31.0931,4.61575 48.75,6.25045 7.2187,0.66833 21.8437,0.95061 32.5,0.62733 10.6562,-0.3233 33.3713,-0.55638 50.478,-0.51795 48.0726,0.108 69.9463,-2.56564 73.3729,-8.96838 2.4705,-4.61605 -0.8007,-6.51405 -6.1881,-3.59051 -8.7086,4.72581 -57.1643,7.52622 -84.0492,4.85749 -7.8313,-0.7768 -19.0199,-1.57977 -24.8636,-1.78379 -11.1977,-0.39095 -24.3843,-1.26789 -36.875,-2.45229 -16.6649,-1.58019 -21.7036,-1.95524 -31.875,-2.37253 -5.8438,-0.23973 -15.125,-1.15722 -20.625,-2.03884 -14.7234,-2.36009 -50.8832,-1.96707 -66.875,0.72687 -7.2188,1.21605 -16.9644,2.41964 -21.657,2.67465 -4.6926,0.25501 -10.5748,1.31716 -13.0714,2.36035 -7.0163,2.93156 -13.9598,-0.35592 -14.0025,-6.6296 -0.024,-3.5854 3.1725,-3.69144 5.0583,-0.16779 1.5967,2.9835 2.6365,2.95609 28.0476,-0.73946 32.0278,-4.65782 64.3362,-7.14506 71.7287,-5.52199 2.3258,0.51065 5.5602,0.42224 7.1875,-0.19646 1.8464,-0.70201 4.2481,-0.63471 6.3883,0.179 2.8901,1.09879 30.3731,2.92955 38.4455,2.56101 1.375,-0.0628 4.1875,0.42034 6.25,1.07358 2.0625,0.65324 8.8125,1.4499 15,1.77037 11.1648,0.57826 11.208,0.56914 5.7064,-1.20657 -3.0489,-0.98409 -5.9786,-2.49329 -6.5104,-3.35377 -1.3832,-2.23805 0.9484,-4.16538 2.9896,-2.47132 4.492,3.72801 26.5518,6.32962 61.5643,7.26059 13.75,0.3656 28.6563,0.79437 33.125,0.95283 22.5174,0.79847 36.25,-1.72897 36.25,-6.67167 0,-3.9455 -8.099,-6.13619 -12.9962,-3.51531 -1.825,0.97673 -2.6391,0.95368 -2.9851,-0.0845 -0.3094,-0.92807 -2.1721,-1.15622 -5.3244,-0.65214 -2.6667,0.42642 -5.8545,0.3597 -7.0839,-0.14826 -1.2295,-0.50797 -10.6729,-0.85932 -20.9854,-0.78078 -10.3125,0.0785 -24.6562,-0.42942 -31.875,-1.1288 -26.4506,-2.56264 -76.2921,-3.68042 -108.7499,-2.43892 -47.2961,1.80904 -56.1526,2.51854 -64.0879,5.13407 -12.6623,4.17362 -31.1856,4.77433 -24.069,0.78056 5.3768,-3.01741 30.7579,-7.01277 48.6995,-7.66601 14.0759,-0.51248 18.0961,-1.677 16.2274,-4.70053 -0.3107,-0.50277 2.6795,-0.70198 6.645,-0.44269 3.9655,0.25929 17.8975,0.80245 30.96,1.20701 13.0625,0.40458 24.5937,1.04161 25.625,1.41565 1.8227,0.6611 35.5276,2.17819 79.9999,3.60086 24.1424,0.77232 25.6229,-0.66935 3.0799,-2.99892 -7.5377,-0.77894 -16.2361,-1.942 -19.3299,-2.58459 -3.0937,-0.6426 -9.8437,-1.78665 -14.9999,-2.54236 -5.1563,-0.7557 -12.1875,-1.92998 -15.625,-2.6095 -24.6295,-4.86871 -97.8086,-6.87491 -114.375,-3.13559 -5.1563,1.16386 -12.4688,2.41258 -16.25,2.77493 -16.6139,1.59214 -17.4487,5.48505 -1.1763,5.48505 6.147,0 11.1763,0.52117 11.1763,1.15816 0,1.40789 -20.5243,2.33908 -25.2655,1.14629 -3.6193,-0.91053 -15.0167,1.58617 -17.8051,3.90034 -1.5916,1.32092 -12.379,3.47442 -21.9294,4.37776 -2.4063,0.2276 -4.7969,0.47089 -5.3125,0.54064 -0.5157,0.0697 -0.9375,0.97056 -0.9375,2.00181 0,1.03125 -0.7978,1.875 -1.7728,1.875 -0.975,0 -2.6625,0.34143 -3.75,0.75874 -1.2975,0.49788 -1.9772,0.0681 -1.9772,-1.25 0,-1.10482 0.4722,-2.00874 1.0493,-2.00874 1.3855,0 3.9507,-5.7195 3.9507,-8.80881 0,-2.8655 3.1565,-3.29082 4.202,-0.56619 0.9857,2.56884 3.7123,2.29639 13.923,-1.39127 4.8125,-1.73808 12.6875,-3.92615 17.5,-4.86239 11.1716,-2.17339 18.8588,-3.93094 24.3667,-5.57104 2.4017,-0.71516 5.8841,-1.3003 7.7387,-1.3003 1.8546,0 3.7083,-0.5442 4.1194,-1.20934 0.475,-0.7685 -5.3078,-0.96542 -15.8637,-0.54022 -19.9566,0.80388 -28.6839,0.95457 -30.3611,0.52423 -5.3006,-1.36001 -14.6567,0.15738 -15.2629,2.47533 -0.8355,3.1953 -3.1055,3.18415 -6.0139,-0.0295 -3.2703,-3.61362 -1.3673,-4.77081 9.429,-5.73359 8.3294,-0.74277 9.7563,-1.26237 13.0978,-4.76941 3.1509,-3.30711 5.2475,-4.17262 13.125,-5.4182 5.1562,-0.81531 12.75,-2.11968 16.875,-2.89857 14.3803,-2.71538 24.5428,-2.46954 84.375,2.04115 17.0272,1.28367 39.7006,5.78703 54.375,10.79988 2.0625,0.70458 7.037,1.78153 11.0545,2.39324 4.0175,0.61171 7.8082,1.42344 8.4237,1.80384 0.6155,0.3804 3.1301,-0.26267 5.5879,-1.42902 3.7758,-1.79171 5.4745,-1.90575 10.9514,-0.7352 3.5653,0.76199 8.4511,1.34995 10.8574,1.30658 2.4063,-0.0434 9.7188,0.55095 16.25,1.32072 17.8602,2.10499 41.25,-0.0814 41.25,-3.8558 0,-1.69928 -11.3769,-3.25393 -15.9828,-2.18403 -7.2943,1.69435 -14.7764,1.36047 -16.5172,-0.73705 -1.2545,-1.51163 -1.2236,-1.87873 0.1595,-1.8942 47.4574,-0.53105 51.6874,-0.99485 53.2638,-5.84018 2.0258,-6.22651 -8.8706,-8.88859 -22.2566,-5.4375 -8.6427,2.22818 -13.1371,2.69244 -21.3682,2.20723 -41.7318,-2.45998 -56.8465,-1.9443 -55.3754,1.88927 0.8268,2.15453 1.8399,2.47239 15.253,4.78569 6.9574,1.19991 8.7533,1.91985 7.7636,3.11234 -1.3731,1.65451 -3.2037,1.55465 -24.3147,-1.32649 -6.8749,-0.93828 -14.0665,-1.39253 -15.9812,-1.00946 -2.1853,0.43718 -4.2794,-0.004 -5.625,-1.18475 -2.9997,-2.63238 -5.6486,-3.27793 -19.0975,-4.65414 -16.5917,-1.69783 -29.1244,-3.54121 -39.2962,-5.77999 -5.1908,-1.14245 -13.5805,-1.82195 -20.625,-1.67045 -16.0381,0.34491 -39.094,-0.13744 -40.2336,-0.84172 -4.6413,-2.8685 5.2258,-5.98199 19.5419,-6.16629 16.9742,-0.21854 17.6506,-0.27204 16.6088,-1.31384 -0.7931,-0.79316 -51.5469,-2.30665 -63.6947,-1.8994 -3.9339,0.13189 -9.5589,1.33199 -12.5,2.66689 -2.9411,1.3349 -7.8021,2.43944 -10.8023,2.45454 -3.0001,0.0151 -7.5001,1.07567 -10,2.35682 -7.9561,4.07742 -15.1701,6.01319 -15.1701,4.07063 0,-2.07298 20.1733,-11.40004 24.657,-11.40004 2.3964,0 7.7422,-0.87716 11.8795,-1.94925 7.9233,-2.05314 86.3236,-2.00786 91.2688,0.0528 3.934,1.63925 0.9296,3.14654 -6.272,3.14654 -6.0685,0 -6.81,0.24486 -5.2387,1.7299 3.24,3.06212 28.0441,3.57261 30.7054,0.63193 2.0754,-2.29333 1.896,-2.36187 -6.1813,-2.36187 -4.7125,0 -8.3187,-0.54189 -8.3187,-1.25 0,-0.6875 2.3906,-1.28521 5.3125,-1.32824 55.6803,-0.82001 89.3517,-2.542 96.6217,-4.94134 2.2137,-0.73057 5.9184,-1.22576 8.2328,-1.1004 2.3143,0.12535 6.4579,-0.68795 9.2079,-1.80733 2.75,-1.11939 8.3915,-2.22182 12.5367,-2.44984 4.1452,-0.22803 9.4167,-1.35243 11.7143,-2.49866 2.2977,-1.14623 4.6072,-1.81858 5.1322,-1.49409 1.9765,1.2215 20.6188,-6.45293 25.3043,-10.41691 3.5861,-3.03394 2.5827,-5.88819 -5.4356,-15.461687 -4.1926,-5.00588 -8.4258,-10.65408 -9.4071,-12.55155 -0.9812,-1.89747 -2.1947,-3.44995 -2.6968,-3.44995 -0.502,0 -1.6094,-1.54688 -2.4609,-3.4375 -0.8515,-1.89063 -3.52,-4.7083 -5.9301,-6.26149 -2.4101,-1.5532 -4.382,-3.68631 -4.382,-4.74026 0,-1.05395 -0.584,-2.59565 -1.2979,-3.42601 -0.7138,-0.83035 -3.2451,-3.68982 -5.625,-6.35435 -2.3799,-2.66454 -4.3271,-5.42593 -4.3271,-6.136423 0,-0.7105 -2.1645,-4.15872 -4.8101,-7.66272 -2.6455,-3.50401 -5.7464,-8.05513 -6.8909,-10.11359 -2.7892,-5.01684 -4.7393,-8.11867 -7.3615,-11.70939 -1.2031,-1.64747 -2.1875,-4.05779 -2.1875,-5.35626 0,-2.4156698 -15.916,-33.98002 -20.1857,-40.03192 -1.3018,-1.8452 -3.1329,-5.50145 -4.0692,-8.125 -0.9363,-2.62355 -4.6441,-9.83259 -8.2396,-16.02009 -9.5491,-16.43276 -17.5054,-31.73591 -17.5054,-33.66989 0,-0.92824 -0.7379,-1.97082 -1.6397,-2.31687 -0.9018,-0.34605 -3.4683,-4.34373 -5.7033,-8.88374 -2.235,-4.54 -4.5585,-8.25455 -5.1633,-8.25455 -0.6048,0 -2.3759,-4.07813 -3.9358,-9.0625 -1.5599,-4.98438 -4.32,-11.03125 -6.1335,-13.4375 -3.3838,-4.48986 -21.1644,-39.63313 -21.1871,-41.87613 -0.01,-0.68687 -4.5592,-9.68637 -10.1161,-19.99887 -5.5569,-10.3125 -10.3074,-19.77211 -10.5567,-21.02135 -0.2493,-1.24925 -2.0992,-4.9463 -4.1109,-8.21569 -2.9691,-4.82545 -5.2593,-10.84376 -5.7604,-15.13796 -0.04,-0.34375 -1.5806,-3.71875 -3.4232,-7.5 -7.743,-15.88926 -19.2591,-46.09268 -21.8385,-57.27584 -4.8359,-20.96721 -17.9382,-40.89964 -31.7686,-48.3296 -3.6918,-1.98333 -33.4838,-4.61717 -48.9329,-4.32605 -5.6953,0.10733 -14.3084,-0.40696 -19.1402,-1.14284 -4.8318,-0.73588 -11.8631,-1.30677 -15.625,-1.26863 -3.7619,0.0381 -17.5273,-1.08161 -30.5898,-2.48832 -13.0625,-1.40671 -26.8438,-2.81982 -30.625,-3.14024 -3.7813,-0.32042 -13.0625,-1.25393 -20.625,-2.07447 -16.5285,-1.79335 -68.8648,-0.98403 -72.8072,1.12589 -1.4271,0.76377 -5.3168,1.60989 -8.6438,1.88027 -6.546,0.532 -25.388,7.34577 -34.7197,12.5556 -3.1862,1.77883 -6.6,3.23424 -7.5863,3.23424 -0.9862,0 -3.0366,1.68184 -4.5564,3.73742 -1.5198,2.05558 -3.901,4.09855 -5.2916,4.53992 -3.0182,0.95793 -5.77,3.52538 -5.77,5.38337 0,0.73661 -0.5625,1.33929 -1.25,1.33929 -3.134,0 1.6,11.43855 10.6053,25.625 2.182,3.4375 4.9424,9.42966 6.1341,13.31592 1.1917,3.88626 3.8909,9.7846 5.9982,13.10742 2.1072,3.32282 4.6241,8.28843 5.5931,11.03467 0.9689,2.74624 3.6792,7.81665 6.0229,11.26758 2.3436,3.45092 5.2328,8.80565 6.4204,11.8994 1.1876,3.09375 3.1868,6.96649 4.4426,8.60607 1.2558,1.63959 2.2834,3.92378 2.2834,5.07598 0,1.8622 15.4195,33.49102 21.0573,43.19295 1.1985,2.0625 4.3647,9.09375 7.036,15.625 2.6714,6.53125 5.8786,13.5625 7.1272,15.625 1.2486,2.0625 2.2722,4.60657 2.2748,5.6535 0,1.04694 1.9734,4.8929 4.3797,8.54661 2.4062,3.6537 4.375,7.36888 4.375,8.25594 0,0.88706 0.8075,2.28307 1.7946,3.10226 0.9871,0.81919 2.182,3.27869 2.6554,5.46556 0.4735,2.18687 1.8374,5.38238 3.0309,7.10113 3.0754,4.42842 10.0191,19.00916 10.0191,21.03842 0,0.93537 1.1296,3.28702 2.5102,5.22592 1.3806,1.9389 2.8824,5.38616 3.3372,7.66057 0.4549,2.27443 1.8566,5.24034 3.1148,6.5909 1.2583,1.35058 2.2878,3.47453 2.2878,4.71989 0,1.24536 0.5764,2.2643 1.2809,2.2643 0.7045,0 1.7754,1.26562 2.3798,2.8125 2.0352,5.20872 6.4244,14.02731 9.4879,19.0625 1.6731,2.75 3.6046,6.26744 4.2923,7.81653 0.6876,1.54908 2.3885,5.31509 3.7796,8.36892 1.3912,3.05381 2.5295,6.10557 2.5295,6.78169 0,0.67611 0.7197,1.9726 1.5993,2.88107 2.1682,2.23924 9.1114,18.1151802 10.2838,23.5142902 0.521,2.39939 2.2874,6.1195 3.9253,8.26694 1.638,2.1474198 4.3938,7.4967998 6.1241,11.8874898 1.7304,4.39068 4.2182,10.23307 5.5284,12.98307 1.3103,2.75 4.0951,8.82708 6.1885,13.504623 2.0934,4.67754 4.6596,9.35794 5.7025,10.4009 2.7176,2.7176 7.7233,11.78458 8.5958,15.56994 0.4089,1.77401 3.0053,6.55526 5.7699,10.625 2.7645,4.06975 5.0405,8.52454 5.0578,9.89954 0.017,1.375 1.9873,6.130137 4.3779,10.566957 4.3389,8.05258 5.2862,11.30804 3.2904,11.30804 -2.6047,0 -8.9437,-10.44579 -8.9437,-14.73793 0,-1.29913 -2.8113,-7.373927 -6.2472,-13.499567 -3.4359,-6.12563 -6.2484,-11.91924 -6.25,-12.8747 -10e-4,-0.95545 -0.7565,-2.3617 -1.6777,-3.125 -0.9212,-0.76329 -2.6815,-4.2003 -3.9118,-7.6378 -1.2303,-3.4375 -4.11,-8.70364 -6.3994,-11.70252 -2.2894,-2.99889 -4.8372,-7.496893 -5.6618,-9.995573 -1.345,-4.07527 -3.8886,-9.24853 -10.2279,-20.80191 -3.1577,-5.75499 -12.1242,-25.5370398 -12.1242,-26.7486998 0,-0.59143 -1.9583,-4.93991 -4.3517,-9.6633102 -2.3934,-4.72339 -4.3621,-9.01764 -4.375,-9.54278 -0.034,-1.3881 -6.4046,-14.37304 -10.2638,-20.92021 -1.8236,-3.09375 -5.9849,-11.8125 -9.2474,-19.375 -3.2625,-7.5625 -6.9624,-14.75629 -8.222,-15.9862 -1.2596,-1.2299 -2.2901,-2.82072 -2.2901,-3.53516 0,-0.71443 -1.9688,-5.39217 -4.375,-10.39496 -2.4063,-5.00281 -4.375,-9.71513 -4.375,-10.47183 0,-0.75671 -1.4187,-3.46637 -3.1527,-6.02148 -1.7339,-2.55511 -3.9876,-7.51795 -5.0081,-11.02855 -1.0206,-3.51058 -4.3773,-9.7419 -7.4593,-13.84734 -3.082,-4.10547 -5.6096,-8.47409 -5.6168,-9.70805 -0.01,-1.23398 -2.7773,-7.98398 -6.1557,-15 -3.3784,-7.01604 -6.8489,-15.28768 -7.7123,-18.38143 -0.8634,-3.09375 -2.4688,-6.75 -3.5675,-8.125 -4.9452,-6.18892 -7.4815,-10.62562 -8.7347,-15.27971 -0.7433,-2.7604 -2.3798,-6.35798 -3.6366,-7.9946 -2.7668,-3.60268 -4.4526,-6.85004 -18.0919,-34.85069 -5.8605,-12.03125 -11.0575,-23.28124 -11.5489,-24.99999 -0.4915,-1.71875 -1.9447,-4.61809 -3.2295,-6.44297 -1.2848,-1.82488 -2.336,-3.7049 -2.336,-4.17783 0,-0.47294 -1.125,-2.29009 -2.5,-4.03811 -1.375,-1.74803 -2.5,-3.97934 -2.5,-4.95847 0,-5.25001 -14.8894,-30.88299 -16.8254,-28.96602 -1.1547,1.1433 3.9011,15.47151 7.3628,20.86637 1.6206,2.52562 3.9313,7.68578 5.1348,11.46703 1.2035,3.78125 2.9509,7.98453 3.883,9.34063 0.9321,1.3561 1.6948,3.27175 1.6948,4.25701 0,0.98526 1.4062,3.63507 3.125,5.88846 1.7187,2.2534 3.125,4.47148 3.125,4.92908 0,1.58137 4.2397,9.97307 6.9265,13.70981 1.4831,2.0625 3.601,6.09194 4.7065,8.9543 1.1056,2.86237 4.8467,10.15126 8.3135,16.19755 3.4669,6.04627 6.3035,12.09386 6.3035,13.43906 0,1.34519 2.1601,6.4313 4.8002,11.30245 4.8047,8.8648 8.6661,20.18195 7.339,21.50909 -0.3882,0.38817 -2.7327,-3.70609 -5.21,-9.09835 -2.4773,-5.39225 -5.3438,-10.43793 -6.37,-11.21259 -1.0262,-0.77467 -2.7135,-4.71217 -3.7496,-8.75 -1.0361,-4.03784 -2.9922,-8.86561 -4.3468,-10.7284 -1.3545,-1.86279 -2.4628,-3.78724 -2.4628,-4.27657 0,-0.48933 -0.7494,-1.77773 -1.6653,-2.86312 -0.9159,-1.08538 -2.9465,-5.06717 -4.5126,-8.84842 -1.566,-3.78125 -3.6291,-7.76304 -4.5847,-8.84842 -0.9556,-1.08539 -1.7374,-2.64344 -1.7374,-3.46235 0,-0.8189 -1.3024,-3.58711 -2.8941,-6.15157 -1.5918,-2.56446 -4.219,-8.03766 -5.8383,-12.16266 -1.6194,-4.125 -3.9406,-8.94716 -5.1583,-10.71591 -1.2177,-1.76876 -3.6119,-6.92964 -5.3203,-11.46863 -1.7085,-4.53899 -4.2494,-10.40432 -5.6465,-13.03408 -3.8002,-7.15293 -11.3925,-24.08636 -11.3925,-25.40901 0,-1.16236 -8.59599,-7.49736 -10.17319,-7.49736 -0.46355,0 -0.54862,1.125 -0.18905,2.5 1.03401,3.95407 -1.55222,2.92609 -5.91785,-2.35224 -12.16395,-14.70699 -82.759044,-27.80031 -105.594954,-19.58477 -2.75,0.98936 -9.5,2.11802 -15,2.50815 -5.5,0.39012 -13.6562503,1.262 -18.1250003,1.9375 -4.4687496,0.67549 -11.7812497,1.73793 -16.2499997,2.36096 -7.42561,1.03528 -14.46716,2.72681 -26.24175,6.30382 -2.40171,0.72962 -6.51681,1.32658 -9.14468,1.32658 -2.62786,0 -5.72532,0.50453 -6.88325,1.12118 -1.15792,0.61665 -7.09571,1.72964 -13.19507,2.4733 -6.09936,0.74367 -11.81406,1.95324 -12.69933,2.68794 -0.88526,0.7347 -7.98861,1.61652 -15.785234,1.9596 -7.796632,0.34307 -16.847302,1.4528 -20.112592,2.46607 -6.03659,1.87323 -75.34549,1.82825 -78.38596,-0.0509 -0.686,-0.42397 -6.46275,-0.77181 -12.83721,-0.77297 -6.37446,-0.001 -13.83993,-0.57829 -16.58993,-1.2825 -17.31218,-4.43323 -21.126,-3.72206 -19.95047,3.72018 0.28695,1.81669 0.89731,5.83432 1.35636,8.92807 0.45905,3.09375 1.59615,6.73454 2.52687,8.09063 0.93073,1.3561 1.69224,3.56617 1.69224,4.91126 0,2.60569 0.7214,5.26993 4.99549,18.44907 1.48508,4.57928 2.91211,9.64178 3.17117,11.25 0.59953,3.72196 3.552,13.46515 6.75724,22.29903 1.37196,3.78125 2.51285,7.83791 2.53529,9.0148 0.0404,2.11372 3.08543,9.1022 15.13535,34.7352 3.39348,7.21875 6.16671,13.91565 6.16272,14.88201 -0.004,0.96635 1.53961,3.73633 3.43024,6.15548 1.89062,2.41916 4.5625,6.49585 5.9375,9.05931 1.375,2.56346 6.50033,10.49594 11.38963,17.62772 4.88928,7.13179 9.28254,14.20492 9.76279,15.71805 0.48025,1.51314 2.88289,5.15445 5.3392,8.09179 2.4563,2.93735 5.0699,6.74689 5.808,8.46564 0.73811,1.71875 2.86364,5.40423 4.72342,8.18995 1.85978,2.78571 5.04901,8.50749 7.08717,12.71504 2.03818,4.20755 4.82794,9.24082 6.19948,11.18506 1.37153,1.94423 4.022,6.90995 5.88991,11.03495 1.8679,4.125 4.67296,9.1875 6.23345,11.25 1.5605,2.0625 4.39879,6.84375 6.30732,10.625 1.90854,3.78125 4.80085,8.46504 6.42735,10.40841 1.6265,1.94337 2.95728,4.03608 2.95728,4.65045 0,1.04932 2.65406,7.18335 9.43936,21.81614 1.59399,3.4375 3.27694,7.79687 3.7399,9.6875 0.46298,1.89062 1.37424,3.4375 2.025042,3.4375 1.05466,0 3.11407,4.1157502 9.382024,18.7500002 2.05933,4.8080598 2.64264,5.9152498 8.89049,16.8749998 2.35154,4.125 5.38914,10.3125 6.75021,13.75 2.06743,5.22141 10.79308,23.057063 23.23822,47.500003 1.40016,2.75 5.9885,12.03125 10.19628,20.624997 9.16709,18.72229 12.40449,24.65766 15.81263,28.9904 1.41271,1.79599 4.67724,8.52349 7.25448,14.95001 2.57725,6.42653 5.41755,13.37434 6.31178,15.4396 0.89423,2.06525 2.0241601,5.7215 2.5109501,8.125 1.1624,5.73929 3.93001,11.75846 6.31768,13.74004 2.16627963,1.79786 28.6103999,7.68194 30.9707599,6.8913 0.84436,-0.28283 4.51451,-0.80595 8.1559,-1.16249 3.64139,-0.35655 7.02554,-0.89846 7.52034,-1.20426 0.49478,-0.3058 3.42172,-0.093 6.5043,0.47279 3.08256,0.56583 8.97966,0.63817 13.10466,0.16075 4.125,-0.47742 9.75,-0.38269 12.5,0.2105 2.99556,0.64616 9.50999,0.55098 16.25,-0.23739 10.867794,-1.27121 14.107764,-1.5808 34.374994,-3.28461 5.15625,-0.43348 11.34375,-0.95904 13.75,-1.16793 2.40625,-0.20888 5.86941,-0.97456 7.69592,-1.7015 1.82652,-0.72692 6.88903,-1.68124 11.25003,-2.12067 11.4818,-1.15699 56.9472,-10.3622 60.8568,-12.32145 4.387,-2.19858 15.0471,-4.77044 16.3739,-3.9504 0.5767,0.35637 3.5009,-0.69102 6.4984,-2.32754 2.9975,-1.63653 8.5437,-3.66306 12.325,-4.50344 3.7812,-0.84036 9.1438,-2.30886 11.9167,-3.26332 2.773,-0.95447 6.0272,-1.73539 7.2315,-1.73539 1.2044,0 3.4695,-0.83858 5.0338,-1.8635 1.6896,-1.10711 6.1113,-1.92678 10.8935,-2.01939 4.4272,-0.0858 9.9463,-0.93467 12.2646,-1.8865 2.3183,-0.95184 6.3633,-1.73061 8.9887,-1.73061 2.6255,0 5.0744,-0.48663 5.4419,-1.08138 1.1705,-1.89386 15.9328,-4.26443 28.8543,-4.63347 6.875,-0.19635 13.5017,-0.74518 14.726,-1.21961 1.2244,-0.47444 3.8126,-0.54531 5.7517,-0.1575 9.5937,1.91875 11.6365,-4.41859 4.7128,-14.62113 -1.7872,-2.6336 -3.6168,-6.84116 -4.0658,-9.35014 -0.449,-2.50897 -1.4945,-5.40552 -2.3233,-6.43677 -0.8288,-1.03125 -2.7882,-4.96875 -4.3543,-8.75 -1.566,-3.781247 -3.5128,-7.718747 -4.3261,-8.749997 -1.37,-1.73693 -3.2306,-5.45841 -4.9997,-10 -0.4018,-1.03125 -1.2338,-2.71875 -1.849,-3.75 -2.122,-3.557 -11.1017,-23.14851 -14.6098,-31.875 -1.9346,-4.812503 -4.5345,-10.243093 -5.7775,-12.067963 -1.243,-1.82488 -2.26,-3.71894 -2.26,-4.20902 0,-0.49007 -3.0938,-7.04559 -6.875,-14.56782 -3.7813,-7.52224 -6.875,-14.2802698 -6.875,-15.0178598 0,-0.7376 -2.5386,-6.32962 -5.6413,-12.42672 -3.1027,-6.0970802 -5.0515,-11.0856202 -4.3306,-11.0856202 0.7209,0 2.4408,2.39062 3.822,5.3125 1.3813,2.92187 4.4507,8.9687502 6.8209,13.4375002 2.3703,4.46875 4.314,8.86111 4.3193,9.7608 0,0.89969 1.6582,3.7121898 3.6731,6.2499998 2.015,2.53781 5.1666,8.5517 7.0037,13.3642 4.7259,12.38027 6.9685,16.99066 10.2312,21.033413 1.5684,1.94336 2.8517,4.20959 2.8517,5.03605 0,1.97646 6.5931,17.56895 8.3466,19.73951 2.0515,2.53939 10.4034,20.2004 10.4034,21.99918 0,0.86176 0.4942,1.56685 1.0983,1.56685 0.6041,0 1.7859,1.82812 2.6262,4.062497 2.3061,6.13221 3.3077,8.53242 6.1629,14.76965 1.4369,3.13894 2.6126,6.1269 2.6126,6.63991 0,0.51302 1.329,3.85104 2.9534,7.41785 1.6245,3.5668 3.6675,8.32782 4.5401,10.58003 1.8585,4.79663 7.6694,9.36873 10.518,8.27564 2.58,-0.99004 2.5068,-2.30774 -0.4344,-7.82539 -6.024,-11.30053 -9.1889,-19.82358 -8.0472,-21.67085 1.1204,-1.81288 4.1066,2.35369 6.7494,9.41722 1.4191,3.7927 3.9617,8.93177 5.6504,11.42014 1.6886,2.48837 3.0703,5.10486 3.0703,5.8144 0,0.74094 2.2214,1.12968 5.2187,0.91326 5.2776,-0.38105 8.1983,1.93252 4.319,3.42114 -1.5418,0.59166 -1.6332,1.19625 -0.4637,3.06881 1.9763,3.16458 0.7275,4.03362 -3.4912,2.42964 -1.9327,-0.73479 -4.4013,-0.95781 -5.4859,-0.49561 -3.2028,1.36492 -9.2499,1.8674 -10.0141,0.83212 -1.4495,-1.96339 -10.0091,-4.1366 -13.1691,-3.3435 -3.9888,1.00114 -3.509,3.50852 0.7697,4.02182 2.6807,0.3216 3.04,0.8886 2.5742,4.0625 -0.5206,3.54706 -3.0789,4.95267 -4.5835,2.51826 -0.3978,-0.64375 -1.6967,-1.1643 -2.8863,-1.15677 -1.1895,0.008 -4.4215,-0.56394 -7.182,-1.26993 -10.6299,-2.71851 -33.8002,-1.81518 -36.1575,1.40966 -0.8794,1.20312 -2.7694,2.1875 -4.1999,2.1875 -1.4305,0 -2.9532,0.57008 -3.3839,1.26684 -0.5194,0.84045 5.8358,1.15598 18.882,0.9375 24.4314,-0.40917 29.782,2.24886 6.5187,3.23825 -18.7325,0.7967 -16.9702,0.65967 -34.7652,2.70312 -8.5938,0.98685 -19,2.71262 -23.125,3.83504 -12.8214,3.48871 -21.0074,4.22415 -22.6108,2.03136 -1.6058,-2.1961 -15.5142,-3.83053 -15.5142,-1.82315 0,0.6867 -1.4152,1.24854 -3.1449,1.24854 -1.7297,0 -5.2453,1.41171 -7.8125,3.13714 -3.1959,2.14795 -7.1359,3.37411 -12.4955,3.88868 -4.3054,0.41337 -10.0455,1.88288 -12.7558,3.26559 -2.7104,1.38271 -8.9705,3.08738 -13.9114,3.78813 -11.1709,1.58431 -14.6619,2.4102 -18.6425,4.41037 -1.7256,0.86712 -7.9131,1.84813 -13.75,2.18003 -5.955,0.33862 -15.82401,2.08052 -22.48745,3.96906 -14.03683,3.97827 -24.78884,6.022 -27.07214,5.14581 -0.90281,-0.34644 -4.88405,0.40401 -8.84716,1.66766 -8.733224,2.78463 -14.063904,3.48797 -39.080694,5.1564 -20.96101,1.39794 -32.92223,3.25918 -31.87145,4.95938 0.36422,0.58932 0.0905,1.42482 -0.60816,1.85665 -6.14664,3.79882 -0.31958,5.42666 13.72961,3.83546 z M 390.93032,205.35 c -0.7722,-1.2493 1.9606,-5.55714 4.8617,-7.66381 0.6072,-0.44088 1.0392,-3.67525 0.96,-7.1875 -0.1422,-6.31372 1.2784,-8.43609 2.8103,-4.1984 0.435,1.20312 1.5931,3.56605 2.5737,5.25095 2.3438,4.02724 -8.7795,17.7245 -11.2057,13.79876 z m 27.4343,-8.08846 c -2.7846,-2.12454 -1.2698,-3.86008 4.4486,-5.09659 1.7187,-0.37165 5.2512,-1.30604 7.85,-2.07641 3.391,-1.00522 5.1072,-1.01853 6.0786,-0.0471 1.7156,1.71565 0.3262,4.05829 -2.4399,4.11379 -1.1626,0.0234 -4.3637,1.12924 -7.1137,2.45759 -6.0914,2.94235 -5.8415,2.92398 -8.8236,0.64875 z m 4.4486,-46.77804 c 0,-1.66107 11.0685,-5.60706 24.375,-8.68983 7.9975,-1.85284 31.1412,-2.46752 31.5716,-0.83853 0.1848,0.69974 -4.0671,1.34944 -10,1.528 -13.1001,0.39429 -27.0149,2.61251 -30.5902,4.87651 -1.5227,0.96423 -4.1579,1.75314 -5.8561,1.75314 -1.6982,0 -4.5305,0.54858 -6.294,1.21906 -1.7635,0.67049 -3.2063,0.73873 -3.2063,0.15165 z m -66.2653,-25.78577 c -0.7748,-2.03795 -2.1468,-4.55014 -3.0489,-5.58265 -0.9021,-1.03252 -2.0622,-3.28354 -2.578,-5.00229 -1.0536,-3.51099 -12.412,-26.993497 -18.1385,-37.499997 -2.061,-3.78125 -4.0534,-7.83822 -4.4276,-9.01549 -0.3742,-1.17727 -2.8719,-6.12734 -5.5503,-11.00014 -2.6785,-4.87281 -6.269,-12.347083 -7.979,-16.609513 -5.289,-13.18419 -8.5037,-20.172 -10.1784,-22.12486 -0.8844,-1.03125 -2.5495,-4.96875 -3.7002,-8.7499998 -1.1508,-3.78125 -3.8266,-10.47021 -5.9464,-14.86438 -2.1198,-4.3941402 -3.8541,-8.7535202 -3.8541,-9.6875002 0,-0.93396 -0.4688,-1.69812 -1.0417,-1.69812 -0.5729,0 -1.0416,-0.56827 -1.0416,-1.26283 0,-0.69455 -1.8282,-3.93967 -4.0625,-7.2114 -8.1421,-11.92222 -10.4325,-17.82997 -6.875,-17.73332 1.5561,0.0423 23.9519,44.00887015 25.4475,49.9575502 0.4321,1.71875 1.4973,3.9687498 2.3672,4.9999998 2.5063,2.97147 6.9915,12.42815 6.6885,14.10223 -0.2702,1.49258 2.6647,8.44029 5.1316,12.14777 0.6861,1.03125 1.8206,4.17821 2.521,6.99326 0.7004,2.815043 2.9525,7.596293 5.0048,10.625003 2.0522,3.0287 3.7416,6.01101 3.7541,6.62735 0.013,0.61635 2.0076,4.11096 4.4336,7.76583 2.4259,3.65486 6.1014,10.74432 8.1676,15.75437 5.2917,12.83103 15.0282,32.234187 16.1751,32.234187 1.3711,0 2.2424,7.13849 1.0975,8.99106 -0.647,1.04675 -1.4144,0.34743 -2.3663,-2.15612 z m -62.7791,-159.64744 c -1.0659,-2.23438 -5.092,-10.5478 -8.9468,-18.47429 -7.5567,-15.53823 -9.663,-24.12048 -3.0588,-12.46321 2.1422,3.78125 6.0982,10.47254 8.7913,14.86952 4.2878,7.0008 8.4358,16.37764 8.4905,19.19298 0.05,2.5842 -3.5776,0.43554 -5.2762,-3.125 z m -26.3491,-22.85491 c -1.1586,-2.42958 -2.1065,-5.57139 -2.1065,-6.98183 0,-1.41042 -1.9688,-6.56071 -4.375,-11.44506 -2.4063,-4.88436 -4.375,-9.54866 -4.375,-10.36513 0,-0.81645 -0.8438,-2.18471 -1.875,-3.04057 -1.0313,-0.85586 -1.875,-2.53638 -1.875,-3.73449 0,-1.1981 -1.045,-3.51985 -2.3222,-5.15944 -3.7181,-4.7732 -12.6393,-21.97797 -11.8207,-22.79658 0.4109,-0.41084 -0.4227,-1.74542 -1.8524,-2.96574 -1.4297,-1.22031 -4.4064,-6.71875 -6.6148,-12.21875 -2.2085,-5.5 -5.092,-10.96315 -6.4079,-12.14035 -1.3159,-1.17719 -2.5715,-3.42719 -2.7903,-5 -0.2188,-1.5728 -1.1305,-4.8284 -2.026,-7.23465 -0.8955,-2.40625 -1.4761,-4.59336 -1.2902,-4.86025 0.1859,-0.26688 -0.1499,-0.82938 -0.7461,-1.25 -2.6827,-1.89244 -9.1294,-12.13939 -9.1294,-14.511 0,-1.44581 -0.4993,-3.16313 -1.1096,-3.81625 -1.8694,-2.00081 -2.922,-6.8125 -1.4904,-6.8125 1.8788,0 6.7558,8.15837 9.8637,16.50029 3.3916,9.10346 17.3977,37.08972 19.7285,39.42053 2.4675,2.46752 3.7768,5.27429 4.6777,10.02812 0.4247,2.24067 1.9461,5.66177 3.3809,7.60245 1.4348,1.94068 2.7276,4.3385 2.8729,5.3285 0.1453,0.98999 1.7969,3.80949 3.6702,6.26553 1.8733,2.45606 3.4061,5.17075 3.4061,6.03266 0,0.86191 2.6491,6.99631 5.887,13.63201 5.4785,11.22772 10.7979,24.52682 12.4503,31.12741 1.0957,4.37666 -1.3879,3.30829 -3.7308,-1.60491 z m 3.829,-22.85805 c -1.8896,-4.0015 -3.4355,-8.13307 -3.4355,-9.18127 0,-1.04818 -1.1039,-2.90474 -2.453,-4.12568 -1.3491,-1.22094 -3.0973,-4.26124 -3.8849,-6.75624 -0.7876,-2.49499 -3.5429,-8.47385 -6.1228,-13.28635 -2.5799,-4.8125 -5.6976,-11.82201 -6.9283,-15.5767 -1.2306,-3.75469 -3.8772,-9.60776 -5.8814,-13.00684 -6.3118,-10.70489 -12.2296,-23.13434 -12.2296,-25.68649 0,-1.35158 -0.5625,-2.80507 -1.25,-3.22997 -1.4624,-0.90381 -1.6797,-3.125 -0.3057,-3.125 1.3733,0 9.0557,14.59759 9.0557,17.20709 0,1.21691 1.4062,4.28206 3.125,6.81142 1.7187,2.52938 3.125,5.1912 3.125,5.91518 0,0.72397 0.5716,1.31631 1.2702,1.31631 1.3156,0 2.3418,2.10831 8.2132,16.875 1.9135,4.8125 4.7339,10.4375 6.2676,12.5 1.5336,2.0625 3.1797,6 3.6579,8.75 0.4783,2.75 1.51,5.56974 2.2928,6.26607 3.1273,2.78193 9.9128,15.90154 11.4671,22.17143 1.5714,6.33857 -2.3725,3.80884 -5.9833,-3.83796 z m -78.9213,-131.16673 c -5.3912,-13.54872 -9.9035,-23.54701 -11.4216,-25.30781 -0.8891,-1.03125 -2.5581,-4.96875 -3.7088,-8.75 -1.1508,-3.78125 -3.8266,-10.47022 -5.9464,-14.86437 -2.1198,-4.39415 -3.8541,-8.75352 -3.8541,-9.68749 0,-0.93398 -0.4688,-1.69813 -1.0417,-1.69813 -0.5729,0 -1.0416,-0.56827 -1.0416,-1.26282 0,-0.69455 -1.8282,-3.93969 -4.0625,-7.21141 -8.1421,-11.92222 -10.43252,-17.82998 -6.875,-17.73332 1.5561,0.0423 23.9519,44.00886 25.4475,49.95754 0.4321,1.71875 1.4973,3.96875 2.3672,5 2.4746,2.93389 6.9908,12.41416 6.718,14.10222 -0.3134,1.93862 2.3362,8.4436 4.4379,10.89549 0.8851,1.03251 2.1923,4.26791 2.9051,7.18979 1.8254,7.48295 -0.8678,7.05078 -3.924,-0.62969 z m 69.2358,435.61298 c 3.7812,-1.03476 12.2187,-2.81916 18.75,-3.96534 6.5312,-1.14618 14.5466,-2.67359 17.812,-3.39426 3.2653,-0.72067 8.3278,-1.46439 11.25,-1.6527 2.9221,-0.18833 7.563,-0.9626 10.313,-1.72063 2.75,-0.75802 6.8821,-1.39164 9.1826,-1.40804 5.0836,-0.0362 17.6924,-3.56898 17.6924,-4.95706 0,-2.15016 -14.3855,-2.67867 -19.905,-0.7313 -2.9751,1.0497 -7.9706,1.90854 -11.101,1.90854 -3.1303,0 -7.419,0.52539 -9.5303,1.16751 -7.5031,2.282 -18.9539,5.31158 -26.9309,7.12521 -4.4507,1.0119 -8.3882,2.27284 -8.75,2.80209 -0.3618,0.52925 -3.4654,1.09486 -6.8968,1.25693 -6.7919,0.32077 -17.7155,3.4566 -18.9394,5.4369 -0.9906,1.60276 7.949,0.62361 17.0534,-1.86785 z m -84.375,-2.22556 c 4.125,-0.65309 11.4375,-1.08105 16.25,-0.95103 8.7177,0.23555 17.8109,-1.5219 19.2453,-3.71956 0.4151,-0.63588 3.7957,-1.55135 7.5126,-2.03438 3.7169,-0.48302 8.3296,-1.69094 10.2505,-2.68425 1.9208,-0.9933 4.786,-1.80647 6.367,-1.80702 4.4876,-0.001 15.3746,-4.55909 15.3746,-6.43613 0,-0.92832 -0.657,-1.56261 -1.46,-1.40954 -3.4824,0.66388 -13.8966,1.90972 -17.915,2.14317 -6.5482,0.38042 -21.9204,3.08318 -32.5,5.7142 -5.1563,1.2823 -13.0313,3.02983 -17.5,3.88345 -4.4688,0.8536 -11.0942,2.85786 -14.7232,4.45392 -3.629,1.59606 -7.5665,2.91055 -8.75,2.92108 -1.1835,0.01 -2.9956,0.58965 -4.0268,1.28693 -2.069,1.39894 8.659,0.73154 21.875,-1.36085 z m 243.5096,0.59904 c 1.0962,-0.42066 1.5835,-1.68298 1.2064,-3.125 -0.7422,-2.83824 -4.091,-3.28377 -4.091,-0.54427 0,1.03125 -0.5625,1.875 -1.25,1.875 -0.6875,0 -1.25,0.5625 -1.25,1.25 0,1.38021 2.5377,1.63672 5.3846,0.54427 z m 30.8736,-0.56258 c 2.4017,-0.69756 8.6524,-1.56159 13.8904,-1.92005 20.0417,-1.37155 22.6273,-2.0813 20.4452,-5.61205 -0.7149,-1.15677 -5.8825,-1.28596 -21.7036,-0.54264 -11.4209,0.53659 -24.8646,0.86944 -29.8748,0.73966 -10.4851,-0.27157 -12.0515,0.27893 -10.0253,3.52335 1.223,1.95833 2.5558,2.20279 8.882,1.62915 6.0852,-0.55179 7.6538,-0.29856 8.5976,1.38798 1.3331,2.3821 3.6697,2.57178 9.7885,0.7946 z m 225.5145,0.50957 c 4.6838,-1.79734 1.2321,-2.99126 -8.6478,-2.99126 -11.2875,0 -14.6715,2.04395 -4.6875,2.8312 3.2656,0.2575 7.1571,0.56957 8.6478,0.69349 1.4906,0.12387 3.6,-0.11613 4.6875,-0.53343 z m -126.1868,-1.6781 c 0.4035,-0.65276 -1.3915,-1.5096 -3.9887,-1.90407 -2.5972,-0.39448 -7.5347,-1.3097 -10.9722,-2.03384 -12.0935,-2.54757 -46.875,-3.056 -46.875,-0.68519 0,1.13297 0.4218,2.09497 0.9375,2.13778 0.5156,0.0427 8.8125,0.33046 18.4375,0.63925 9.625,0.30877 21.4375,1.03765 26.25,1.6197 12.5889,1.52258 15.3857,1.56163 16.2109,0.22637 z M 48.438176,212.98756 c 4.125,-0.68731 15.65625,-1.86612 25.625,-2.61957 35.646554,-2.69422 51.285084,-8.55739 18.31992,-6.86846 -20.98146,1.07495 -71.01635,1.11612 -74.3402,0.0611 -3.11686,-0.98925 -3.72412,-4.44791 -0.78095,-4.44791 1.07183,0 1.60113,-0.5625 1.17623,-1.25 -0.4249,-0.6875 -2.1124,-1.25 -3.75,-1.25 -1.6376,0 -3.35784,-0.61548 -3.82275,-1.36771 -0.46491,-0.75224 -2.3079403,-1.08812 -4.0956103,-0.74638 -8.00713,1.53066 -18.9884697,-7.49432 -19.8162397,-16.28592 -0.39824,-4.22973 -2.03945,-8.95338 -7.28768,-20.97499 -0.90041,-2.0625 -2.27241,-5.8008 -3.0489,-8.30733 -0.77648,-2.50653 -3.63056,-7.72475 -6.3424,-11.59602 -2.71183,-3.87128 -5.30082,-8.57048 -5.75331,-10.44268 -0.45247,-1.87218 -1.77892,-4.81022 -2.94767,-6.52897 -2.99449,-4.40369 -9.3259,-16.87891 -12.68795,-24.999997 -1.5654,-3.78125 -5.28398,-10.53125 -8.2635,-15 -2.97954,-4.46875 -5.76685,-9.53125 -6.19405,-11.25 -0.42719,-1.71875 -3.98039,-9.03125 -7.89598,-16.25 -3.9156,-7.21875 -8.10051,-15.375003 -9.29981,-18.125003 -1.1993,-2.75 -4.93424,-10.70201 -8.29985,-17.67114 -3.365614,-6.96907 -6.119304,-13.0126098 -6.119304,-13.4300098 0,-0.41741 -2.60611,-6.24665 -5.791382,-12.95386 -3.18525,-6.7072202 -8.06301,-16.9761902 -10.83947,-22.8199402 -2.77646,-5.84375 -8.79406,-17.09375 -13.37244,-25 -4.57839,-7.90625 -10.41437,-18.47476 -12.96886,-23.48557 -2.55449,-5.01083 -6.86828,-12.55117 -9.58619,-16.7563 -2.71791,-4.20516 -4.94166,-8.27447 -4.94166,-9.04293 0,-0.76846 -1.96875,-4.3866 -4.375,-8.04031 -2.40625,-3.6537 -4.375,-7.08545 -4.375,-7.6261 0,-0.54067 -3.09375,-5.52594 -6.875,-11.07839 -3.78125,-5.55246 -6.875,-10.72478 -6.875,-11.49404 0,-0.76926 -3.24761,-6.00051 -7.21693,-11.62501 -10.54197,-14.93791 -14.36507,-21.28044 -21.23341,-35.22633 -3.38594,-6.875 -7.80905,-15.59375 -9.82915,-19.375 -2.0201,-3.78125 -4.65389,-9.125 -5.85286,-11.875 -1.19898,-2.75 -3.2639,-6.96875 -4.5887,-9.375 -1.3248,-2.40625 -2.76067,-6.34375 -3.19084,-8.75 -0.43016,-2.40625 -1.5447,-6.0625 -2.47677,-8.125 -0.93206,-2.0625 -2.33018,-6.5625 -3.10693,-10 -2.29831,-10.17123 -3.97184,-16.0052 -5.79135,-20.1889 -0.94219,-2.16641 -1.71306,-4.83604 -1.71306,-5.93253 0,-1.09648 -1.20549,-5.47698 -2.67888,-9.73443 -1.47337,-4.25744 -2.86205,-9.74406 -3.08593,-12.19247 -1.52282,-16.65303 -3.10078,-19.52692 -7.24708,-13.19886 -1.80253,2.75101 -1.83646,3.54156 -0.28167,6.5625 3.04421,5.91482 4.42401,12.42925 2.94572,13.90754 -0.94232,0.94231 -1.72583,0.55549 -2.67945,-1.32286 -2.0154,-3.96975 -5.30738,-5.69031 -7.22271,-3.77498 -1.23273,1.23273 -1.24483,2.03005 -0.0565,3.7219 0.83179,1.1842 2.66133,4.54372 4.06565,7.4656 3.09238,6.43408 6.58319,7.33679 5.39485,1.39509 -0.60729,-3.03648 -0.38945,-3.78105 0.96875,-3.31099 0.96373,0.33353 1.66049,1.95574 1.54837,3.60491 -0.11214,1.64917 0.81683,6.09224 2.06436,9.87349 3.89039,11.79171 6.57808,24.89413 5.57665,27.18604 -1.73688,3.97507 2.80685,12.81395 6.58715,12.81395 0.92354,0 2.00362,0.98438 2.40017,2.1875 1.64402,4.98779 5.45902,12.6702 6.66068,13.41287 0.70941,0.43844 1.28985,1.8201 1.28985,3.07034 0,1.25025 0.85734,2.98471 1.90521,3.85437 1.04786,0.86964 1.66054,1.82584 1.36149,2.12488 -0.29904,0.29904 1.93738,5.36599 4.9698,11.25989 3.03243,5.8939 5.5135,11.75657 5.5135,13.02816 0,1.27159 0.5625,2.31199 1.25,2.31199 0.6875,0 1.25,0.76926 1.25,1.70947 0,0.94022 2.60645,5.58084 5.79213,10.3125 3.18566,4.73167 7.66266,12.63374 9.94888,17.56018 2.28623,4.92642 4.73328,9.31342 5.43788,9.7489 0.7046,0.43546 3.20104,4.61737 5.54762,9.29312 5.26312,10.48709 13.88012,26.50507 17.10565,31.79734 1.32527,2.17442 4.70974,8.59411 7.52107,14.26599 2.81131,5.67187 5.54035,10.3125 6.06451,10.3125 0.52417,0 1.87237,2.10937 2.99602,4.6875 1.12364,2.57812 4.20403,8.625 6.84529,13.4375 2.64127,4.8125 5.88474,11.84375 7.2077,15.625 1.32296,3.78125 3.02032,7.4375 3.77191,8.125 0.7516,0.6875 2.60893,4.23316 4.1274,7.87924 1.51848,3.64608 5.17744,11.23983 8.13103,16.875 2.9536,5.63517 5.70218,11.9332602 6.10798,13.9957602 0.4058,2.0625 3.74043,8.29959 7.4103,13.86019 3.66987,5.5606098 7.682242,12.5918598 8.916382,15.6249998 1.23414,3.03315 4.12097,9.45231 6.415204,14.26481 2.29421,4.8125 4.57123,10.156253 5.06003,11.875003 0.4888,1.71875 1.5904,3.96875 2.44798,5 0.8576,1.03125 1.93249,3.44462 2.38865,5.36305 0.77788,3.27139 5.71637,14.66386 12.5763,29.01195 1.64349,3.4375 3.93575,8.78125 5.09392,11.874997 1.15815,3.09375 2.99113,7.29123 4.07328,9.32771 2.90867,5.47378 8.18223,16.38452 12.71044,26.29729 2.19839,4.8125 5.09094,10.71875 6.42791,13.125 15.85782,28.54059 22.72354,47.64757 19.10542,53.16953 -1.13824,1.73717 -1.8527,3.28156 -1.5877,3.43198 6.27811,3.56354 9.67198,4.45441 19.8568201,5.21231 6.5312496,0.48602 14.1249999,1.28861 16.8749999,1.78353 6.39226,1.15041 24.06516,0.64114 33.75,-0.97258 z m 694.687444,0.42777 c 5.9696,-1.05799 5.8882,-1.76754 -0.8354,-7.27697 -6.8093,-5.57973 -6.3722,-5.61167 -9.5925,0.70072 -2.8724,5.6302 -1.08,9.39003 3.7998,7.97122 1.0673,-0.31032 4.05,-0.93806 6.6281,-1.39497 z M 285.92012,209.553 c 7.81,-4.36506 4.9706,-6.83352 -4.1413,-3.60036 -3.2123,1.13985 -7.5281,2.4857 -9.5906,2.99078 -3.5417,0.8673 -3.6111,0.99958 -1.25,2.38083 3.9871,2.33252 8.6194,1.78487 14.9819,-1.77125 z m -14.4845,-9.74925 c 4.9164,-2.54237 19.3676,-5.02381 22.1701,-3.80687 1.2829,0.55705 2.8135,0.90377 3.4015,0.7705 0.588,-0.13326 1.8679,0.4206 2.8441,1.23082 2.0683,1.71649 18.737,-1.67983 22.5916,-4.60312 3.298,-2.50116 -6.5135,-2.41425 -11.3351,0.10037 -3.9431,2.05645 -12.0446,2.53687 -12.0446,0.71424 0,-1.69092 6.9123,-3.53586 16.875,-4.50401 12.9975,-1.26308 15.9478,-3.36686 9.6796,-6.90228 -3.7067,-2.09063 -12.4745,-0.54678 -22.8862,4.02987 -2.4512,1.07743 -9.7637,2.94965 -16.25,4.16048 -26.341,4.91715 -27.8973,5.41662 -26.6891,8.56509 0.9891,2.57769 6.8919,2.70184 11.6431,0.24488 z m 82.9401,-0.2457 c 2.2416,-0.4199 3.4375,-1.42834 3.4375,-2.89879 0,-2.8048 -4.0881,-3.98033 -8.5228,-2.45078 -1.8437,0.63591 -5.0397,1.35441 -7.1022,1.59666 -2.0625,0.24224 -5.7188,0.91461 -8.125,1.49415 l -4.375,1.05372 5,1.54798 c 4.5902,1.42113 10.8522,1.31205 19.6875,-0.34294 z M 50.938176,199.11279 c 0.4249,-0.6875 2.1456,-1.25 3.82377,-1.25 1.67818,0 3.05123,-0.48153 3.05123,-1.07005 0,-2.1123 -21.19449,-0.77118 -23.44949,1.48381 -1.9483,1.94831 -1.49492,2.08624 6.85786,2.08624 4.91925,0 9.29173,-0.5625 9.71663,-1.25 z m 71.170664,-3.79567 c 1.39375,-1.39376 -7.96242,-1.65848 -14.24024,-0.40292 -2.90965,0.58194 -3.55153,1.11154 -2.34375,1.9338 1.9991,1.36096 14.88131,0.1718 16.58399,-1.53089 z m 152.33988,-5.08507 c 9.5983,-1.47427 15.1523,-3.51247 9.7586,-3.58125 -4.587,-0.0585 -19.3727,2.73609 -20.7066,3.91368 -1.5717,1.38742 0.077,1.33737 10.948,-0.33243 z m 83.9895,-3.61926 c 0.4249,-0.6875 0.1389,-1.25 -0.6355,-1.25 -0.8392,0 -1.0874,-1.01001 -0.6145,-2.5 0.9482,-2.98772 -18.7275,-3.89757 -21.625,-1 -3.5793,3.57929 -1.7029,4.86495 6.3125,4.32509 4.2968,-0.28942 8.9375,-0.0705 10.3125,0.4865 3.4908,1.41408 5.3493,1.39577 6.25,-0.0616 z m 219.5818,-23.15625 c 0.029,-1.80775 -7.6737,-3.74381 -31.9564,-8.03265 -21.8969,-3.86745 -69.4646,-4.68038 -83.8754,-1.43343 -2.75,0.61962 -7.6979,1.6766 -10.9953,2.34885 -6.819,1.39024 -7.7603,1.99198 -6.4449,4.12025 0.7026,1.13697 4.5403,1.26839 15.4376,0.52869 16.9563,-1.15097 18.0891,-1.13746 45.1276,0.53848 11.3437,0.70312 29.0625,1.32527 39.375,1.38256 10.3125,0.0572 21.5625,0.55361 25,1.10296 7.2754,1.16269 8.3056,1.09398 8.3318,-0.55571 z m 152.2931,-1.3892 c 0,-1.81526 -2.5981,-2.14661 -7.1875,-0.91669 -4.4623,1.19584 -3.2727,2.62123 2.1875,2.62123 3.3889,0 5,-0.54924 5,-1.70454 z m -104.1813,-12.38346 c 1.0843,-2.82564 0.8095,-2.9083 -12.7549,-3.83623 l -12.4387,-0.85092 2.4712,2.78252 c 1.7645,1.98668 3.3902,2.59875 5.6839,2.14001 1.7669,-0.35338 4.0299,-0.12552 5.0287,0.50637 3.0426,1.92473 11.1794,1.4222 12.0098,-0.74175 z m -252.0686,-1.6988 c 0,-2.13673 -7.6928,-4.01845 -9.6813,-2.36814 -1.5565,1.29182 -1.4866,1.63082 0.4976,2.41162 3.3241,1.30812 9.1837,1.28037 9.1837,-0.0435 z m 223.75,-1.82519 c 0,-2.15731 -11.142,-3.49976 -18.125,-2.18379 -4.87,0.91778 -4.7563,0.97619 4.375,2.24689 13.2233,1.84015 13.75,1.83774 13.75,-0.0631 z m 51.5397,-4.22191 c 6.7506,-0.92248 4.5372,-2.74 -2.491,-2.04541 -10.6213,1.04971 -16.0119,2.80053 -8.4238,2.736 3.4375,-0.0292 8.3491,-0.34 10.9148,-0.69059 z m -768.46583,-18.13769 c -1.39611,-4.6493 -9.24113,-17.68696 -10.11611,-16.81198 -1.40735,1.40736 7.66216,19.62448 9.77019,19.62448 0.65476,0 0.81042,-1.26563 0.34592,-2.8125 z m 46.444686,-9.375 c -0.35744,-1.20313 -1.01883,-3.73438 -1.46975,-5.625 -0.83939,-3.51934 -3.04885,-4.78684 -3.04885,-1.74903 0,3.01072 2.7107,9.56153 3.95651,9.56153 0.66658,0 0.91952,-0.98438 0.56209,-2.1875 z m 5.04979,-6.25 c -0.33005,-1.20313 -0.96819,-4.4375 -1.41808,-7.1875 -0.84047,-5.137447 -3.00436,-10.017507 -18.96126,-42.762157 C -96.716048,40.33514 -98.969518,36.72882 -100.48402,38.24332 c -0.34697,0.34697 2.502952,8.463883 6.333162,18.037583 3.830224,9.57372 6.964034,18.34615 6.964034,19.49432 0,1.14816 0.5625,2.08757 1.25,2.08757 0.6875,0 1.25,0.65884 1.25,1.46408 0,0.80523 0.73066,2.35211 1.6237,3.4375 0.89305,1.08538 2.97243,5.06717 4.62086,8.84842 1.64843,3.78125 3.64369,7.4375 4.43393,8.125 0.79022,0.687497 2.19884,3.359377 3.13025,5.937497 1.67222,4.62865 4.42216,6.73773 3.25965,2.5 z m -41.059896,-75 c -2.50087,-6.76679 -6.51528,-12.72721 -7.74066,-11.49305 -0.7023,0.70731 4.15428,15.03864 5.80095,17.11805 3.49452,4.41291 4.53471,1.39645 1.93971,-5.625 z m 3.50024,-16.03974 c -0.41731,-1.08747 -0.75874,-2.45056 -0.75874,-3.02909 0,-0.57852 -1.51721,-2.85496 -3.37159,-5.0587598 -3.06902,-3.64732 -6.95279,-12.38815 -8.73556,-19.6603002 -0.38432,-1.56771 -1.75494,-3.41562 -3.04581,-4.10647 -3.35571,-1.79593 -3.23059,3.89478 0.15296,6.9568602 1.375,1.24436 2.50314,2.87841 2.50697,3.63124 0.0145,2.85006 2.6487,10.72448 4.10264,12.26408 0.83347,0.88258 2.49066,3.7140498 3.68267,6.2921798 2.08605,4.51183 7.11447,7.0049 5.46646,2.71026 z m -29.80583,-40.2492 c -0.86785,-1.0421 -2.78625,-4.74525 -4.2631,-8.22921 -1.47685,-3.48396 -3.30497,-6.54108 -4.0625,-6.79358 -1.71899,-0.573 -1.83487,4.31889 -0.12731,5.37423 0.6875,0.4249 1.25,1.57666 1.25,2.55949 0,0.98281 0.98437,2.9366 2.1875,4.34175 1.20312,1.40515 2.25781,3.09907 2.34375,3.76428 0.0859,0.66522 0.22656,1.84086 0.3125,2.61253 0.10887,0.97794 0.72904,0.92769 2.04666,-0.16584 1.5385,-1.27685 1.59668,-1.92162 0.3125,-3.46365 z m 5.68455,-8.08606 c -0.95551,-4.85196 -6.49974,-13.67016 -8.0085,-12.73769 -0.58629,0.36234 0.60736,2.96876 2.65254,5.79204 2.04517,2.82329 3.7185,6.0801 3.7185,7.23736 0,1.88763 1.02482,3.77079 2.05209,3.77079 0.21197,0 0.0254,-1.82813 -0.41463,-4.0625 z m -20.84524,-19.78889 c -0.42365,-2.11826 -1.90021,-5.28787 -3.28125,-7.04357 -1.38103,-1.7557 -2.51097,-4.4824 -2.51097,-6.05933 0,-2.88385 -2.92958,-6.79571 -5.08929,-6.79571 -0.63839,0 -1.16071,-1.31908 -1.16071,-2.93126 0,-1.6122 -1.125,-3.94938 -2.5,-5.19374 -1.375,-1.24436 -2.5,-3.01904 -2.5,-3.94374 0,-0.92469 -0.50152,-1.68126 -1.11449,-1.68126 -0.61297,0 -1.47886,-1.45176 -1.9242,-3.22615 -0.982,-3.91258 -6.86047,-13.02385 -8.40282,-13.02385 -0.61012,0 0.0271,2.22759 1.41611,4.9502 1.38896,2.72261 2.5254,5.55966 2.5254,6.30456 0,0.74489 1.40625,2.87093 3.125,4.72453 1.71875,1.85358 3.125,4.16657 3.125,5.13995 0,0.97338 1.4374,3.65431 3.19423,5.95762 1.75682,2.30333 2.91861,4.63382 2.58173,5.17887 -0.33686,0.54506 0.74768,3.21362 2.41008,5.93014 1.66241,2.71652 4.1832,7.32975 5.60175,10.25163 3.04686,6.27576 5.63528,7.11538 4.50444,1.46111 z m -30.79222,-76.97097 c 0,-2.62404 -3.48689,-9.78635 -8.4097,-17.27414 -3.11643,-4.74019 -4.0903,-5.5762 -4.0903,-3.51126 0,1.49062 0.5625,3.05786 1.25,3.48276 0.6875,0.4249 1.25,1.7321 1.25,2.90489 0,3.35622 7.50275,17.86595 8.81791,17.05313 0.65015,-0.40181 1.18209,-1.59673 1.18209,-2.65538 z m -19.00496,-3.20113 c -4.94469,-7.64797 -3.73043,-13.09052 1.59082,-7.13034 l 3.43387,3.84618 -0.53443,-5.72083 c -0.54387,-5.82183 -5.7275,-16.78216 -8.79495,-18.59613 -0.92969,-0.54979 -1.69035,-2.30904 -1.69035,-3.90945 0,-1.6004 -0.84375,-3.61008 -1.875,-4.46594 -1.03125,-0.85586 -1.875,-2.63094 -1.875,-3.94461 0,-1.31368 -1.41379,-5.17848 -3.14175,-8.58845 -1.72798,-3.40998 -3.1743,-6.62565 -3.21407,-7.14595 -0.0397,-0.52029 -0.76765,-1.78974 -1.61749,-2.82099 -0.84984,-1.03125 -3.42516,-5.67187 -5.72295,-10.3125 -3.60444,-7.27959 -7.99875,-12.1576 -5.80714,-6.44637 0.42024,1.09512 1.12494,3.48575 1.56601,5.3125 0.44108,1.82676 1.84493,4.81446 3.11968,6.63933 1.27474,1.82488 2.31771,3.97135 2.31771,4.76993 0,1.43164 10.58153,23.23324 12.45525,25.66211 0.53036,0.6875 2.0929,4.34375 3.47231,8.125 1.37942,3.78125 2.9202,7.85938 3.42396,9.0625 1.48747,3.55241 -1.43731,2.53013 -4.31216,-1.50721 -1.44697,-2.0321 -3.23935,-5.54773 -3.98305,-7.8125 -1.96701,-5.9901 -7.2904,-17.37688 -9.81426,-20.99279 -1.19966,-1.71875 -2.56855,-4.91426 -3.04198,-7.10112 -0.47342,-2.18688 -1.65347,-4.63403 -2.62234,-5.43811 -0.96887,-0.80408 -2.12148,-3.38042 -2.56136,-5.72518 -0.43987,-2.34477 -1.26162,-4.54864 -1.8261,-4.8975 -0.56447,-0.34887 -1.89388,-3.61864 -2.95425,-7.26618 -1.06036,-3.64754 -3.06601,-7.66181 -4.45698,-8.92062 -1.39096,-1.25882 -2.55605,-3.18595 -2.58908,-4.28253 -0.0624,-2.07303 -1.92452,-5.87233 -7.75246,-15.81761 -1.89062,-3.22631 -3.4375,-6.92595 -3.4375,-8.22141 0,-1.29546 -1.96875,-5.15634 -4.375,-8.57974 -2.40625,-3.4234 -4.375,-6.79263 -4.375,-7.48718 0,-0.69455 -0.98437,-2.29443 -2.1875,-3.55529 -1.20312,-1.26086 -3.05005,-3.93273 -4.10427,-5.9375 -2.13171,-4.05376 -6.72373,-5.48707 -7.8849,-2.46111 -0.47125,1.22807 -0.0497,1.94109 1.14772,1.94109 2.90506,0 8.02895,5.78273 8.02895,9.06134 0,1.60874 2.52989,7.96244 5.62197,14.11932 3.09208,6.15688 5.62333,11.66254 5.625,12.23482 0.005,1.85224 7.7794,18.82066 10.85507,23.69351 1.64341,2.6037 2.72616,5.15771 2.4061,5.67559 -0.32007,0.51787 0.16931,2.60632 1.08751,4.641 0.9182,2.03467 3.12855,6.89895 4.9119,10.8095 1.78335,3.91056 3.24245,7.68835 3.24245,8.3951 0,2.2209 4.19899,10.59449 7.15991,14.27822 1.56205,1.94337 2.84009,4.33399 2.84009,5.3125 0,0.9785 0.63862,1.77909 1.41916,1.77909 3.01104,0 8.61631,7.99659 9.20008,13.125 0.41456,3.64196 8.4064,17.6318 11.20786,19.61954 2.11999,1.5042 2.3355,-0.0521 0.41794,-3.01803 z m -44.74504,-11.6619 c 0,-0.37695 -1.125,-2.9082 -2.5,-5.625 -1.375,-2.71678 -3.62085,-7.15385 -4.99078,-9.86014 -2.82695,-5.58463 -5.65294,-8.18257 -3.90341,-3.58841 4.48028,11.76498 11.39419,23.33866 11.39419,19.07355 z m -14.95707,-30.25211 c -1.49293,-4.97013 -2.56188,-7.80333 -5.06989,-13.4375 -2.59219,-5.8233 -5.28255,-12.08575 -7.65226,-17.8125 -0.92458,-2.23438 -2.10624,-4.0625 -2.62591,-4.0625 -0.51968,0 -0.94487,-1.61164 -0.94487,-3.58143 0,-1.96978 -1.125,-5.01163 -2.5,-6.75966 -1.375,-1.74802 -2.5,-3.74705 -2.5,-4.44227 0,-1.1594 -2.62494,-6.8959 -5.24697,-11.46664 -0.59158,-1.03125 -1.40613,-2.85938 -1.81011,-4.0625 -0.40397,-1.20313 -1.23139,-2.1875 -1.8387,-2.1875 -0.60732,0 -1.10422,-0.90317 -1.10422,-2.00705 0,-1.10388 -1.38122,-3.64855 -3.06938,-5.65482 l -3.06939,-3.64776 0.50089,3.46731 c 0.86059,5.95725 2.86064,11.44203 5.54918,15.21776 1.42379,1.99951 2.5887,4.49983 2.5887,5.55625 0,1.05642 0.57321,2.27502 1.27379,2.70801 1.55466,0.96084 16.30362,31.44844 21.44228,44.32337 4.71216,11.80635 8.88418,17.1953 6.07686,7.84943 z m -26.56057,-82.9856 c 0.34559,-1.78029 -3.58446,-7.3269 -5.19147,-7.3269 -1.25226,0 -0.92308,3.34222 0.67451,6.84855 1.53507,3.36912 3.90705,3.62031 4.51696,0.47835 z m 32.76764,-5.50916 c 0,-0.37524 -1.40625,-3.32389 -3.125,-6.55254 -1.71875,-3.22867 -3.125,-6.85915 -3.125,-8.06775 0,-2.7728 -1.97618,-2.86547 -3.0214,-0.14167 -0.43388,1.13067 0.047,2.97939 1.06859,4.10825 1.02161,1.12886 2.73022,4.14127 3.79691,6.69422 1.62022,3.87771 4.4059,6.38115 4.4059,3.95949 z m -10.14956,-31.38619 c -3.60828,-7.20858 -5.40199,-7.98358 -7.11362,-3.07358 -1.48921,4.27196 -0.66297,8.89204 1.59024,8.89204 0.84451,0 2.59329,1.16888 3.88618,2.5975 l 2.35072,2.59751 1.13096,-2.53459 c 0.82587,-1.85084 0.32829,-4.13815 -1.84448,-8.47888 z"
     id="path4146"
     inkscape:connector-curvature="0" />
</svg>
