<?xml version="1.0" encoding="UTF-8" standalone="no"?>
<svg
   xmlns:dc="http://purl.org/dc/elements/1.1/"
   xmlns:cc="http://creativecommons.org/ns#"
   xmlns:rdf="http://www.w3.org/1999/02/22-rdf-syntax-ns#"
   xmlns:svg="http://www.w3.org/2000/svg"
   xmlns="http://www.w3.org/2000/svg"
   xmlns:sodipodi="http://sodipodi.sourceforge.net/DTD/sodipodi-0.dtd"
   xmlns:inkscape="http://www.inkscape.org/namespaces/inkscape"
   version="1.1"
   viewBox="0 0 2000 2000"
   id="svg50"
   sodipodi:docname="ea-picto-biblio.svg"
   inkscape:version="0.92.4 (5da689c313, 2019-01-14)">
  <metadata
     id="metadata56">
    <rdf:RDF>
      <cc:Work
         rdf:about="">
        <dc:format>image/svg+xml</dc:format>
        <dc:type
           rdf:resource="http://purl.org/dc/dcmitype/StillImage" />
        <dc:title></dc:title>
      </cc:Work>
    </rdf:RDF>
  </metadata>
  <defs
     id="defs54" />
  <sodipodi:namedview
     pagecolor="#ffffff"
     bordercolor="#666666"
     borderopacity="1"
     objecttolerance="10"
     gridtolerance="10"
     guidetolerance="10"
     inkscape:pageopacity="0"
     inkscape:pageshadow="2"
     inkscape:window-width="1920"
     inkscape:window-height="1043"
     id="namedview52"
     showgrid="false"
     inkscape:zoom="0.52187216"
     inkscape:cx="609.54221"
     inkscape:cy="1000"
     inkscape:window-x="1920"
     inkscape:window-y="0"
     inkscape:window-maximized="1"
     inkscape:current-layer="svg50" />
  <circle
     transform="rotate(-90)"
     cx="-974.65015"
     cy="1015.7495"
     r="816.5025"
     id="circle2"
     style="fill:#ffffff;fill-rule:evenodd;stroke:#007b00;stroke-width:16.49500084;stroke-linecap:round;stroke-opacity:1" />
  <g
     transform="matrix(0.08587571,0,0,-0.08587571,685.77523,1524.0141)"
     id="g138"
     style="fill:#007b00;fill-opacity:1;stroke:none">
    <path
       d="M 0,6630 V 460 l 343,-2 342,-3 3,-227 2,-228 h 455 455 V 230 460 H 4110 6620 V 230 0 h 455 455 l 2,228 3,227 343,3 342,2 v 6170 6170 H 4110 0 Z m 7535,4570 v -910 H 4098 660 v 910 910 h 3438 3437 z m -4,-1374 c 2,-2 3,-414 1,-915 l -2,-911 H 4095 660 v 915 915 h 3433 c 1889,0 3436,-2 3438,-4 z m 1,-3197 c 2,-501 1,-913 -1,-915 -2,-2 -1549,-4 -3438,-4 H 660 v 915 915 h 3435 3435 z m -1,-1373 c 2,-2 3,-414 1,-915 l -2,-911 H 4095 660 v 915 915 h 3433 c 1889,0 3436,-2 3438,-4 z m -1,-3201 V 1140 H 4095 660 v 915 915 h 3435 3435 z"
       id="path4"
       inkscape:connector-curvature="0"
       style="fill:#007b00;fill-opacity:1" />
    <path
       d="m 2470,11210 v -880 h 180 180 v 880 880 h -180 -180 z"
       id="path6"
       inkscape:connector-curvature="0"
       style="fill:#007b00;fill-opacity:1" />
    <path
       d="m 690,12045 c 0,-3 0,-389 0,-857 v -853 l 225,-3 225,-2 v 860 860 H 915 c -124,0 -225,-2 -225,-5 z"
       id="path8"
       inkscape:connector-curvature="0"
       style="fill:#007b00;fill-opacity:1" />
    <path
       d="m 1690,11190 v -860 h 160 160 v 860 860 h -160 -160 z"
       id="path10"
       inkscape:connector-curvature="0"
       style="fill:#007b00;fill-opacity:1" />
    <path
       d="m 2056,12041 c -3,-5 -5,-391 -3,-857 l 2,-849 183,-3 182,-2 v 860 860 h -179 c -99,0 -182,-4 -185,-9 z"
       id="path12"
       inkscape:connector-curvature="0"
       style="fill:#007b00;fill-opacity:1" />
    <path
       d="m 4088,11924 c -93,-46 -168,-87 -168,-91 0,-4 170,-350 377,-769 l 376,-762 169,84 c 92,46 170,84 173,84 3,0 5,-31 5,-70 v -70 h 915 915 v 230 230 h -915 -915 l -1,-152 -1,-153 -378,763 c -208,419 -380,762 -382,761 -2,0 -78,-38 -170,-85 z"
       id="path14"
       inkscape:connector-curvature="0"
       style="fill:#007b00;fill-opacity:1" />
    <path
       d="m 3422,11143 3,-808 228,-3 227,-2 v 810 810 h -230 -230 z"
       id="path16"
       inkscape:connector-curvature="0"
       style="fill:#007b00;fill-opacity:1" />
    <path
       d="m 1190,11130 v -800 h 225 225 v 800 800 h -225 -225 z"
       id="path18"
       inkscape:connector-curvature="0"
       style="fill:#007b00;fill-opacity:1" />
    <path
       d="m 2880,11110 v -780 h 250 250 v 780 780 h -250 -250 z"
       id="path20"
       inkscape:connector-curvature="0"
       style="fill:#007b00;fill-opacity:1" />
    <path
       d="m 5390,11060 v -230 l 683,2 682,3 3,228 2,227 h -685 -685 z"
       id="path22"
       inkscape:connector-curvature="0"
       style="fill:#007b00;fill-opacity:1" />
    <path
       d="m 3110,8910 v -881 l 148,3 147,3 3,878 2,877 h -150 -150 z"
       id="path24"
       inkscape:connector-curvature="0"
       style="fill:#007b00;fill-opacity:1" />
    <path
       d="m 5290,8910 v -880 l 183,2 182,3 3,878 2,877 h -185 -185 z"
       id="path26"
       inkscape:connector-curvature="0"
       style="fill:#007b00;fill-opacity:1" />
    <path
       d="m 1740,8890 v -860 h 230 230 v 860 860 h -230 -230 z"
       id="path28"
       inkscape:connector-curvature="0"
       style="fill:#007b00;fill-opacity:1" />
    <path
       d="m 2750,8890 v -861 l 158,3 157,3 v 855 855 l -157,3 -158,3 z"
       id="path30"
       inkscape:connector-curvature="0"
       style="fill:#007b00;fill-opacity:1" />
    <path
       d="m 3450,8890 v -860 l 183,2 182,3 v 855 855 l -182,3 -183,2 z"
       id="path32"
       inkscape:connector-curvature="0"
       style="fill:#007b00;fill-opacity:1" />
    <path
       d="m 3860,8890 v -860 h 160 160 v 860 860 h -160 -160 z"
       id="path34"
       inkscape:connector-curvature="0"
       style="fill:#007b00;fill-opacity:1" />
    <path
       d="m 5700,8890 v -860 l 183,2 182,3 3,858 2,857 h -185 -185 z"
       id="path36"
       inkscape:connector-curvature="0"
       style="fill:#007b00;fill-opacity:1" />
    <path
       d="m 6115,9738 c -3,-7 -4,-393 -3,-858 l 3,-845 158,-3 157,-3 v 861 860 h -155 c -115,0 -157,-3 -160,-12 z"
       id="path38"
       inkscape:connector-curvature="0"
       style="fill:#007b00;fill-opacity:1" />
    <path
       d="m 6980,8890 v -860 l 228,2 227,3 v 855 855 l -227,3 -228,2 z"
       id="path40"
       inkscape:connector-curvature="0"
       style="fill:#007b00;fill-opacity:1" />
    <path
       d="m 1240,8845 v -815 l 228,2 227,3 v 810 810 l -227,3 -228,2 z"
       id="path42"
       inkscape:connector-curvature="0"
       style="fill:#007b00;fill-opacity:1" />
    <path
       d="m 4247,9654 c -4,-4 -7,-371 -7,-816 v -808 l 228,2 227,3 v 810 810 l -221,3 c -121,1 -223,-1 -227,-4 z"
       id="path44"
       inkscape:connector-curvature="0"
       style="fill:#007b00;fill-opacity:1" />
    <path
       d="m 2242,8833 3,-798 228,-3 227,-2 v 800 800 h -230 -230 z"
       id="path46"
       inkscape:connector-curvature="0"
       style="fill:#007b00;fill-opacity:1" />
    <path
       d="m 6480,8830 v -800 l 225,2 c 124,2 225,6 225,11 0,4 0,363 0,797 v 790 h -225 -225 z"
       id="path48"
       inkscape:connector-curvature="0"
       style="fill:#007b00;fill-opacity:1" />
    <path
       d="m 690,8810 v -780 h 250 250 v 780 780 H 940 690 Z"
       id="path50"
       inkscape:connector-curvature="0"
       style="fill:#007b00;fill-opacity:1" />
    <path
       d="m 4740,8810 v -780 l 253,2 252,3 v 775 775 l -252,3 -253,2 z"
       id="path52"
       inkscape:connector-curvature="0"
       style="fill:#007b00;fill-opacity:1" />
    <path
       d="m 4870,6630 v -880 h 150 150 l -2,878 -3,877 -147,3 -148,3 z"
       id="path54"
       inkscape:connector-curvature="0"
       style="fill:#007b00;fill-opacity:1" />
    <path
       d="m 5620,6605 v -855 h 160 160 v 855 855 h -160 -160 z"
       id="path56"
       inkscape:connector-curvature="0"
       style="fill:#007b00;fill-opacity:1" />
    <path
       d="m 6500,6605 v -855 h 230 230 v 855 855 h -230 -230 z"
       id="path58"
       inkscape:connector-curvature="0"
       style="fill:#007b00;fill-opacity:1" />
    <path
       d="m 3991,7408 c -10,-24 -166,-369 -346,-768 -179,-399 -329,-730 -331,-736 -4,-9 320,-164 344,-164 4,0 50,93 102,208 51,114 207,461 347,771 140,310 253,567 251,573 -3,9 -323,158 -340,158 -5,0 -17,-19 -27,-42 z"
       id="path60"
       inkscape:connector-curvature="0"
       style="fill:#007b00;fill-opacity:1" />
    <path
       d="m 4471,7408 c -10,-24 -166,-369 -346,-768 -180,-399 -329,-730 -331,-736 -4,-9 319,-164 343,-164 11,0 696,1516 697,1543 1,14 -37,35 -163,92 -90,41 -167,75 -172,75 -6,0 -18,-19 -28,-42 z"
       id="path62"
       inkscape:connector-curvature="0"
       style="fill:#007b00;fill-opacity:1" />
    <path
       d="m 6000,6560 v -810 h 230 230 v 810 810 h -230 -230 z"
       id="path64"
       inkscape:connector-curvature="0"
       style="fill:#007b00;fill-opacity:1" />
    <path
       d="m 7010,6550 v -800 h 225 225 v 800 800 h -225 -225 z"
       id="path66"
       inkscape:connector-curvature="0"
       style="fill:#007b00;fill-opacity:1" />
    <path
       d="m 5210,6480 v -730 h 185 185 v 730 730 h -185 -185 z"
       id="path68"
       inkscape:connector-curvature="0"
       style="fill:#007b00;fill-opacity:1" />
    <path
       d="m 3161,6555 c -199,-350 -362,-640 -364,-646 -3,-16 262,-164 274,-152 12,12 730,1275 727,1278 -6,5 -270,155 -273,155 -1,0 -165,-286 -364,-635 z"
       id="path70"
       inkscape:connector-curvature="0"
       style="fill:#007b00;fill-opacity:1" />
    <path
       d="m 820,6445 v -135 h 915 915 v 135 135 H 1735 820 Z"
       id="path72"
       inkscape:connector-curvature="0"
       style="fill:#007b00;fill-opacity:1" />
    <path
       d="m 688,6195 -3,-65 h 1028 1027 v 65 65 H 1716 692 Z"
       id="path74"
       inkscape:connector-curvature="0"
       style="fill:#007b00;fill-opacity:1" />
    <path
       d="m 688,6014 c -1,-36 -1,-68 1,-70 2,-2 465,-4 1028,-4 h 1023 v 70 70 H 1716 692 Z"
       id="path76"
       inkscape:connector-curvature="0"
       style="fill:#007b00;fill-opacity:1" />
    <path
       d="m 689,5896 c -2,-2 -2,-34 -1,-70 l 4,-66 h 1024 1024 v 70 70 H 1717 c -563,0 -1026,-2 -1028,-4 z"
       id="path78"
       inkscape:connector-curvature="0"
       style="fill:#007b00;fill-opacity:1" />
    <path
       d="m 3140,4340 v -880 h 150 150 v 880 880 h -150 -150 z"
       id="path80"
       inkscape:connector-curvature="0"
       style="fill:#007b00;fill-opacity:1" />
    <path
       d="m 6560,4340 v -880 h 180 180 v 880 880 h -180 -180 z"
       id="path82"
       inkscape:connector-curvature="0"
       style="fill:#007b00;fill-opacity:1" />
    <path
       d="m 1230,4320 v -860 h 250 250 l -2,858 -3,857 -247,3 -248,2 z"
       id="path84"
       inkscape:connector-curvature="0"
       style="fill:#007b00;fill-opacity:1" />
    <path
       d="m 3895,5168 c -3,-7 -4,-393 -3,-858 l 3,-845 158,-3 157,-3 v 861 860 h -155 c -115,0 -157,-3 -160,-12 z"
       id="path86"
       inkscape:connector-curvature="0"
       style="fill:#007b00;fill-opacity:1" />
    <path
       d="m 4780,4320 v -860 h 225 225 v 860 860 h -225 -225 z"
       id="path88"
       inkscape:connector-curvature="0"
       style="fill:#007b00;fill-opacity:1" />
    <path
       d="m 6970,4285 v -825 h 250 250 v 825 825 h -250 -250 z"
       id="path90"
       inkscape:connector-curvature="0"
       style="fill:#007b00;fill-opacity:1" />
    <path
       d="m 722,4273 3,-808 228,-3 227,-2 v 810 810 H 950 720 Z"
       id="path92"
       inkscape:connector-curvature="0"
       style="fill:#007b00;fill-opacity:1" />
    <path
       d="m 4250,4270 v -810 h 240 240 v 810 810 h -240 -240 z"
       id="path94"
       inkscape:connector-curvature="0"
       style="fill:#007b00;fill-opacity:1" />
    <path
       d="m 2140,4260 v -800 h 230 230 v 800 800 h -230 -230 z"
       id="path96"
       inkscape:connector-curvature="0"
       style="fill:#007b00;fill-opacity:1" />
    <path
       d="m 2640,4260 v -800 h 230 230 v 800 800 h -230 -230 z"
       id="path98"
       inkscape:connector-curvature="0"
       style="fill:#007b00;fill-opacity:1" />
    <path
       d="m 5380,4990 c -84,-36 -134,-63 -134,-71 2,-16 600,-1438 608,-1446 6,-6 253,93 270,108 7,6 -556,1367 -598,1445 -11,21 -13,20 -146,-36 z"
       id="path100"
       inkscape:connector-curvature="0"
       style="fill:#007b00;fill-opacity:1" />
    <path
       d="m 1775,4938 c -3,-7 -4,-341 -3,-743 l 3,-730 158,-3 157,-3 v 746 745 h -155 c -115,0 -157,-3 -160,-12 z"
       id="path102"
       inkscape:connector-curvature="0"
       style="fill:#007b00;fill-opacity:1" />
    <path
       d="m 6150,4205 v -745 h 180 180 v 745 745 h -180 -180 z"
       id="path104"
       inkscape:connector-curvature="0"
       style="fill:#007b00;fill-opacity:1" />
    <path
       d="m 3480,4190 v -730 h 185 185 v 730 730 h -185 -185 z"
       id="path106"
       inkscape:connector-curvature="0"
       style="fill:#007b00;fill-opacity:1" />
    <path
       d="m 690,2035 v -855 h 160 160 v 855 855 H 850 690 Z"
       id="path108"
       inkscape:connector-curvature="0"
       style="fill:#007b00;fill-opacity:1" />
    <path
       d="m 3450,2035 v -854 l 181,-3 c 99,-2 183,-1 185,1 2,2 4,388 4,858 v 853 h -185 -185 z"
       id="path110"
       inkscape:connector-curvature="0"
       style="fill:#007b00;fill-opacity:1" />
    <path
       d="m 3860,2037 c 0,-470 2,-856 4,-858 2,-2 74,-3 160,-1 l 156,3 v 854 855 h -160 -160 z"
       id="path112"
       inkscape:connector-curvature="0"
       style="fill:#007b00;fill-opacity:1" />
    <path
       d="m 5700,2035 v -855 h 185 185 v 855 855 h -185 -185 z"
       id="path114"
       inkscape:connector-curvature="0"
       style="fill:#007b00;fill-opacity:1" />
    <path
       d="m 6110,2037 c 0,-470 2,-856 4,-858 2,-2 74,-3 160,-1 l 156,3 v 854 855 h -160 -160 z"
       id="path116"
       inkscape:connector-curvature="0"
       style="fill:#007b00;fill-opacity:1" />
    <path
       d="m 6980,2000 v -820 h 230 230 v 820 820 h -230 -230 z"
       id="path118"
       inkscape:connector-curvature="0"
       style="fill:#007b00;fill-opacity:1" />
    <path
       d="m 2060,1990 v -810 h 230 230 v 810 810 h -230 -230 z"
       id="path120"
       inkscape:connector-curvature="0"
       style="fill:#007b00;fill-opacity:1" />
    <path
       d="m 4220,1990 v -809 l 236,-3 c 130,-2 238,-1 240,1 2,2 4,368 4,813 v 808 h -240 -240 z"
       id="path122"
       inkscape:connector-curvature="0"
       style="fill:#007b00;fill-opacity:1" />
    <path
       d="m 5290,1991 v -810 l 181,-3 c 115,-2 183,1 185,7 2,6 3,370 2,810 l -3,800 -182,3 -183,2 z"
       id="path124"
       inkscape:connector-curvature="0"
       style="fill:#007b00;fill-opacity:1" />
    <path
       d="m 1060,1980 v -800 h 225 225 v 800 800 h -225 -225 z"
       id="path126"
       inkscape:connector-curvature="0"
       style="fill:#007b00;fill-opacity:1" />
    <path
       d="m 6480,1980 v -799 l 225,-3 225,-3 v 803 802 h -225 -225 z"
       id="path128"
       inkscape:connector-curvature="0"
       style="fill:#007b00;fill-opacity:1" />
    <path
       d="m 2562,1955 3,-776 h 250 250 l 3,776 2,775 h -255 -255 z"
       id="path130"
       inkscape:connector-curvature="0"
       style="fill:#007b00;fill-opacity:1" />
    <path
       d="m 3110,1946 v -765 l 146,-3 c 91,-2 148,1 150,7 2,6 3,350 2,765 l -3,755 -147,3 -148,3 z"
       id="path132"
       inkscape:connector-curvature="0"
       style="fill:#007b00;fill-opacity:1" />
    <path
       d="m 1560,1865 v -685 h 230 230 l -2,683 -3,682 -227,3 -228,2 z"
       id="path134"
       inkscape:connector-curvature="0"
       style="fill:#007b00;fill-opacity:1" />
    <path
       d="m 4740,1842 c 0,-362 2,-661 4,-663 2,-2 117,-3 255,-1 l 251,3 -2,657 -3,657 -252,3 -253,2 z"
       id="path136"
       inkscape:connector-curvature="0"
       style="fill:#007b00;fill-opacity:1" />
  </g>
</svg>
