<?xml version="1.0" encoding="utf-8"?>
<!-- Generator: Adobe Illustrator 22.0.0, SVG Export Plug-In . SVG Version: 6.00 Build 0)  -->
<svg version="1.1" id="Calque_1" xmlns="http://www.w3.org/2000/svg" xmlns:xlink="http://www.w3.org/1999/xlink" x="0px" y="0px"
	 viewBox="0 0 6.3 6.3" style="enable-background:new 0 0 6.3 6.3;" xml:space="preserve">
<style type="text/css">
	.st0{fill:#259256;}
</style>
<g>
	<path class="st0" d="M0.1,3c0.3,0,2.5,0.2,2.7,0.2l0.1,0.1V3.2H2.8C2.7,3,3.1,3,3.1,3v0.1h0.1V3c0,0,0.4,0,0.3,0.2H3.4v0.1l0.1-0.1
		C3.8,3.2,6,3,6.2,3c0,0,0.1,0,0.1,0.1v0.2H0"/>
	<path class="st0" d="M3.1,6.2c0-0.3,0.2-2.5,0.2-2.7l0.1-0.1H3.3v0.1C3.1,3.6,3.1,3.1,3.1,3.1h0.1l0,0H3.1c0,0,0-0.4,0.2-0.3v0.1
		h0.1L3.3,2.8c0-0.3-0.2-2.5-0.2-2.7c0,0,0-0.1,0.1-0.1h0.2v6.3"/>
	<path class="st0" d="M1,5.5L0.9,5.4V5.3c0.2-0.2,1.9-1.6,2-1.8H3V3.4H2.9C2.7,3.3,3,3,3,3v0.1L3.1,3l0,0c0,0,0.3-0.3,0.4-0.1V3h0.1
		V2.9c0.2-0.2,1.6-1.9,1.8-2h0.1L5.6,1L1,5.5z"/>
	<path class="st0" d="M0.9,0.9L1,0.8h0.1c0.2,0.2,1.6,1.9,1.8,2v0.1H3V2.8c0.1-0.2,0.4,0.1,0.4,0.1H3.3L3.4,3l0,0
		c0,0,0.3,0.3,0.1,0.4H3.4v0.1h0.1c0.2,0.2,1.9,1.6,2,1.8v0.1L5.4,5.5L0.9,0.9z"/>
</g>
<g>
	<path class="st0" d="M0.2,3.1c0.3,0,2.5,0.2,2.7,0.2L3,3.4V3.3H2.9C2.8,3.1,3.2,3.1,3.2,3.1v0.1h0.1V3.1c0,0,0.4,0,0.3,0.2H3.5v0.1
		l0.1-0.1c0.3,0,2.5-0.2,2.7-0.2c0,0,0.1,0,0.1,0.1v0.2H0.1"/>
	<path class="st0" d="M3.2,6.3c0-0.3,0.2-2.5,0.2-2.7l0.1-0.1H3.4v0.1C3.2,3.7,3.2,3.2,3.2,3.2h0.1l0,0H3.2c0,0,0-0.4,0.2-0.3V3h0.1
		L3.4,2.9c0-0.3-0.2-2.5-0.2-2.7c0,0,0-0.1,0.1-0.1h0.2v6.3"/>
	<path class="st0" d="M1.1,5.6L1,5.5V5.4c0.2-0.2,1.9-1.6,2-1.8h0.1V3.5H3C2.8,3.4,3.1,3.1,3.1,3.1v0.1l0.1-0.1l0,0
		c0,0,0.3-0.3,0.4-0.1v0.1h0.1V3c0.2-0.2,1.6-1.9,1.8-2h0.1l0.1,0.1L1.1,5.6z"/>
	<path class="st0" d="M1,1l0.1-0.1h0.1c0.2,0.2,1.6,1.9,1.8,2V3h0.1V2.9C3.2,2.7,3.5,3,3.5,3H3.4l0.1,0.1l0,0c0,0,0.3,0.3,0.1,0.4
		H3.5v0.1h0.1c0.2,0.2,1.9,1.6,2,1.8v0.1L5.5,5.6L1,1z"/>
</g>
<g>
	<path class="st0" d="M0,2.9c0.3,0,2.5,0.2,2.7,0.2l0.1,0.1V3.1H2.7C2.6,2.9,3,2.9,3,2.9V3h0.1V2.9c0,0,0.4,0,0.3,0.2H3.3v0.1
		l0.1-0.1c0.3,0,2.5-0.2,2.7-0.2c0,0,0.1,0,0.1,0.1v0.2h-6.3"/>
	<path class="st0" d="M3,6.1c0-0.3,0.2-2.5,0.2-2.7l0.1-0.1H3.2v0.1C3,3.5,3,3,3,3h0.1l0,0H3c0,0,0-0.4,0.2-0.3v0.1h0.1L3.2,2.7
		C3.2,2.4,3,0.2,3,0c0,0,0-0.1,0.1-0.1h0.2v6.3"/>
	<path class="st0" d="M0.9,5.4L0.8,5.3V5.2C1,5,2.7,3.6,2.8,3.4h0.1V3.3H2.8C2.6,3.2,2.9,2.9,2.9,2.9V3L3,2.9l0,0
		c0,0,0.3-0.3,0.4-0.1v0.1h0.1V2.8c0.2-0.2,1.6-1.9,1.8-2h0.1l0.1,0.1L0.9,5.4z"/>
	<path class="st0" d="M0.8,0.8l0.1-0.1H1c0.2,0.2,1.6,1.9,1.8,2v0.1h0.1V2.7C3,2.5,3.3,2.8,3.3,2.8H3.2l0.1,0.1l0,0
		c0,0,0.3,0.3,0.1,0.4H3.3v0.1h0.1c0.2,0.2,1.9,1.6,2,1.8v0.1L5.3,5.4L0.8,0.8z"/>
</g>
</svg>
