<?xml version="1.0" encoding="utf-8"?>
<!-- Generator: Adobe Illustrator 21.1.0, SVG Export Plug-In . SVG Version: 6.00 Build 0)  -->
<svg version="1.1" id="Calque_1" xmlns="http://www.w3.org/2000/svg" xmlns:xlink="http://www.w3.org/1999/xlink" x="0px" y="0px"
	 viewBox="0 0 6.3 6.3" style="enable-background:new 0 0 6.3 6.3;" xml:space="preserve">
<style type="text/css">
	.st0{fill:#259256;}
</style>
<path class="st0" d="M0.1,3c0.3,0,2.5,0.2,2.7,0.2l0.1,0.1V3.2H2.8C2.7,3,3.1,3,3.1,3v0.1h0.1V3c0,0,0.4,0,0.3,0.2H3.4v0.1l0.1-0.1
	C3.8,3.2,6,3,6.2,3c0,0,0.1,0,0.1,0.1v0.2H0"/>
<path class="st0" d="M3.1,6.2c0-0.3,0.2-2.5,0.2-2.7l0.1-0.1H3.3v0.1C3.1,3.6,3.1,3.1,3.1,3.1h0.1l0,0H3.1c0,0,0-0.4,0.2-0.3v0.1
	h0.1L3.3,2.8c0-0.3-0.2-2.5-0.2-2.7c0,0,0-0.1,0.1-0.1h0.2v6.3"/>
<path class="st0" d="M1,5.5L0.9,5.4V5.3c0.2-0.2,1.9-1.6,2-1.8H3V3.4H2.9C2.7,3.3,3,3,3,3v0.1L3.1,3l0,0c0,0,0.3-0.3,0.4-0.1V3h0.1
	V2.9c0.2-0.2,1.6-1.9,1.8-2h0.1L5.6,1L1,5.5z"/>
<path class="st0" d="M0.9,0.9L1,0.8h0.1c0.2,0.2,1.6,1.9,1.8,2v0.1H3V2.8c0.1-0.2,0.4,0.1,0.4,0.1H3.3L3.4,3l0,0
	c0,0,0.3,0.3,0.1,0.4H3.4v0.1h0.1c0.2,0.2,1.9,1.6,2,1.8v0.1L5.4,5.5L0.9,0.9z"/>
</svg>
