<?xml version="1.0" encoding="utf-8"?>
<!-- Generator: Adobe Illustrator 21.1.0, SVG Export Plug-In . SVG Version: 6.00 Build 0)  -->
<svg version="1.1" id="Calque_1" xmlns="http://www.w3.org/2000/svg" xmlns:xlink="http://www.w3.org/1999/xlink" x="0px" y="0px"
	 viewBox="0 0 51.2 3.7" style="enable-background:new 0 0 51.2 3.7;" xml:space="preserve">
<style type="text/css">
	.st0{fill:#259256;}
</style>
<g>
	<path class="st0" d="M39.6,1.7c2.5,0.4,3.9,0.1,6-0.5c2.6-0.7,5.8-0.6,5.7,0.5c-0.6-1.2-3.1-1.3-5.7-0.6
		C43.3,1.8,42.4,2.3,39.6,1.7c-3.1-0.4-5.7-2.8-9.2-1.1C34.1-1,36.8,1.3,39.6,1.7z"/>
	<path class="st0" d="M28.3,2.4c1.3-1.4,3.2-2.3,6-1.9C37.2,1,37.4,2,40,2.2c2.6,0.2,6.1-2.3,7.3-1.1C47.7,1.5,47.5,2,47.1,2
		c-0.3,0-0.4-0.4-0.1-0.4c0,0.1,0.1,0.2,0.2,0.1c0.1-0.1,0.1-0.2-0.1-0.3c-0.5-0.1-0.6,0.5-0.3,0.8C47.7,2.7,48.5,1,47,0.6
		c-1.4-0.3-4.3,1.4-6.9,1.4c-2.6-0.1-4.4-1.6-6.5-1.8C31.5,0,29.8,0.3,28.3,2.4z"/>
	<path class="st0" d="M41.3,2.1c0.8-0.2,1.5-0.2,1.9-0.1c0.9,0.2,1.3,0.7,1.1,1.2c-0.1,0.3-0.3,0.4-0.6,0.3
		c-0.2-0.1-0.4-0.3-0.3-0.5c0.1-0.3,0.4,0,0.2,0.1c0,0,0-0.1-0.1-0.1c0,0-0.1,0-0.1,0.1c0,0,0.1,0.1,0.1,0.1c0.1,0,0.2-0.1,0.1-0.3
		c-0.1-0.1-0.3-0.2-0.4,0.1c-0.1,0.2,0.1,0.4,0.3,0.5c0.3,0.1,0.5-0.1,0.6-0.4c0.1-0.5-0.4-1.1-1.2-1.2C42.6,1.8,41.9,1.9,41.3,2.1
		C41.3,2.1,41.3,2.1,41.3,2.1z"/>
</g>
<g>
	<path class="st0" d="M11.7,1.8c-2.5,0.4-3.9,0.1-6-0.5C3.1,0.6-0.1,0.7,0,1.9c0.6-1.2,3.1-1.3,5.7-0.6C7.9,1.9,8.8,2.4,11.7,1.8
		c3.1-0.4,5.7-2.8,9.2-1.1C17.1-0.9,14.4,1.4,11.7,1.8z"/>
	<path class="st0" d="M22.9,2.6c-1.3-1.4-3.2-2.3-6-1.9c-2.9,0.4-3.1,1.5-5.7,1.7C8.6,2.6,5.1,0.1,3.9,1.2C3.5,1.6,3.7,2.2,4.2,2.1
		c0.3,0,0.4-0.4,0.1-0.4c0,0.1-0.1,0.2-0.2,0.1C3.9,1.6,3.9,1.5,4.1,1.5C4.5,1.3,4.7,2,4.4,2.2C3.5,2.8,2.8,1.1,4.3,0.8
		c1.4-0.3,4.3,1.4,6.9,1.4c2.6-0.1,4.4-1.6,6.5-1.8C19.7,0.1,21.5,0.4,22.9,2.6z"/>
	<path class="st0" d="M10,2.2C9.2,2,8.5,2,8,2.1C7.2,2.3,6.8,2.8,6.9,3.3C7,3.5,7.3,3.7,7.5,3.6c0.2-0.1,0.4-0.3,0.3-0.5
		c-0.1-0.3-0.4,0-0.2,0.1c0,0,0-0.1,0.1-0.1c0,0,0.1,0,0.1,0.1c0,0-0.1,0.1-0.1,0.1c-0.1,0-0.2-0.1-0.1-0.3c0.1-0.1,0.3-0.2,0.4,0.1
		c0.1,0.2-0.1,0.4-0.3,0.5C7.2,3.7,6.9,3.6,6.9,3.3C6.7,2.7,7.2,2.2,8.1,2C8.7,1.9,9.3,2,10,2.2C10,2.2,10,2.2,10,2.2z"/>
</g>
</svg>
