<?xml version="1.0" encoding="utf-8"?>
<!-- Generator: Adobe Illustrator 21.1.0, SVG Export Plug-In . SVG Version: 6.00 Build 0)  -->
<svg version="1.1" id="Calque_1" xmlns="http://www.w3.org/2000/svg" xmlns:xlink="http://www.w3.org/1999/xlink" x="0px" y="0px"
	 viewBox="0 0 501.5 6.4" style="enable-background:new 0 0 501.5 6.4;" xml:space="preserve">
<style type="text/css">
	.st0{clip-path:url(#SVGID_2_);fill:#259256;}
</style>
<g>
	<defs>
		<rect id="SVGID_1_" x="0" y="0" width="501.5" height="6.4"/>
	</defs>
	<clipPath id="SVGID_2_">
		<use xlink:href="#SVGID_1_"  style="overflow:visible;"/>
	</clipPath>
	<path class="st0" d="M0,3.3V3.2c0,0,0.1-0.1,0.1-0.1c0.3,0,2.5,0.2,2.7,0.2l0.1,0.1l0-0.1l-0.1,0C2.7,3.1,3.2,3.1,3.2,3.1l0,0.1
		h0.1V3.1c0,0,0.4,0,0.3,0.2l-0.1,0l0,0.1l0.1-0.1c0.3,0,2.5-0.2,2.7-0.2c0,0,0.1,0,0.1,0.1v0.2H0z"/>
	<path class="st0" d="M3.3,6.4H3.2c0,0-0.1-0.1-0.1-0.1c0-0.3,0.2-2.5,0.2-2.7l0.1-0.1l-0.1,0l0,0.1C3,3.7,3,3.2,3,3.2l0.1,0V3.2H3
		c0,0,0-0.4,0.2-0.3l0,0.1l0.1,0L3.3,2.8c0-0.3-0.2-2.5-0.2-2.7c0,0,0-0.1,0.1-0.1h0.2V6.4z"/>
	<path class="st0" d="M1,5.6L0.9,5.4c0,0,0-0.1,0-0.1c0.2-0.2,1.9-1.6,2-1.8l0.1,0l0-0.1L3,3.5C2.7,3.4,3.1,3.1,3.1,3.1l0,0.1
		l0.1-0.1l0,0c0,0,0.3-0.3,0.4-0.1l0,0.1l0.1,0l0-0.1c0.2-0.2,1.6-1.9,1.8-2c0,0,0.1,0,0.1,0L5.5,1L1,5.6z"/>
	<path class="st0" d="M0.9,1L1,0.8c0,0,0.1,0,0.1,0c0.2,0.2,1.6,1.9,1.8,2l0,0.1L3,3l0-0.1C3,2.7,3.3,3,3.3,3L3.3,3l0.1,0.1l0,0
		c0,0,0.3,0.3,0.1,0.4l-0.1,0l0,0.1l0.1,0c0.2,0.2,1.9,1.6,2,1.8c0,0,0,0.1,0,0.1L5.4,5.5L0.9,1z"/>
	<path class="st0" d="M251.2,3.3V3.2c0,0,0.1-0.1,0.1-0.1c0.3,0,2.5,0.2,2.7,0.2l0.1,0.1l0-0.1l-0.1,0c-0.1-0.2,0.3-0.2,0.3-0.2
		l0,0.1h0.1V3.1c0,0,0.4,0,0.3,0.2l-0.1,0l0,0.1l0.1-0.1c0.3,0,2.5-0.2,2.7-0.2c0,0,0.1,0,0.1,0.1v0.2H251.2z"/>
	<path class="st0" d="M254.6,6.4h-0.2c0,0-0.1-0.1-0.1-0.1c0-0.3,0.2-2.5,0.2-2.7l0.1-0.1l-0.1,0l0,0.1c-0.2,0.1-0.2-0.4-0.2-0.4
		l0.1,0V3.2h-0.1c0,0,0-0.4,0.2-0.3l0,0.1l0.1,0l-0.1-0.1c0-0.3-0.2-2.5-0.2-2.7c0,0,0-0.1,0.1-0.1h0.2V6.4z"/>
	<path class="st0" d="M252.3,5.6l-0.1-0.1c0,0,0-0.1,0-0.1c0.2-0.2,1.9-1.6,2-1.8l0.1,0l0-0.1l-0.1,0c-0.2-0.1,0.1-0.4,0.1-0.4
		l0,0.1l0.1-0.1l0,0c0,0,0.3-0.3,0.4-0.1l0,0.1l0.1,0l0-0.1c0.2-0.2,1.6-1.9,1.8-2c0,0,0.1,0,0.1,0l0.1,0.1L252.3,5.6z"/>
	<path class="st0" d="M252.2,1l0.1-0.1c0,0,0.1,0,0.1,0c0.2,0.2,1.6,1.9,1.8,2l0,0.1l0.1,0l0-0.1c0.1-0.2,0.4,0.1,0.4,0.1l-0.1,0
		l0.1,0.1l0,0c0,0,0.3,0.3,0.1,0.4l-0.1,0l0,0.1l0.1,0c0.2,0.2,1.9,1.6,2,1.8c0,0,0,0.1,0,0.1l-0.1,0.1L252.2,1z"/>
	<path class="st0" d="M7.4,3.3V3.2c0,0,0.1-0.1,0.1-0.1c0.3,0,2.5,0.2,2.7,0.2l0.1,0.1l0-0.1l-0.1,0c-0.1-0.2,0.3-0.2,0.3-0.2l0,0.1
		h0.1V3.1c0,0,0.4,0,0.3,0.2l-0.1,0l0,0.1L11,3.3c0.3,0,2.5-0.2,2.7-0.2c0,0,0.1,0,0.1,0.1v0.2H7.4z"/>
	<path class="st0" d="M10.7,6.4h-0.2c0,0-0.1-0.1-0.1-0.1c0-0.3,0.2-2.5,0.2-2.7l0.1-0.1l-0.1,0l0,0.1c-0.2,0.1-0.2-0.4-0.2-0.4
		l0.1,0V3.2h-0.1c0,0,0-0.4,0.2-0.3l0,0.1l0.1,0l-0.1-0.1c0-0.3-0.2-2.5-0.2-2.7c0,0,0-0.1,0.1-0.1h0.2V6.4z"/>
	<path class="st0" d="M8.4,5.6L8.3,5.4c0,0,0-0.1,0-0.1c0.2-0.2,1.9-1.6,2-1.8l0.1,0l0-0.1l-0.1,0c-0.2-0.1,0.1-0.4,0.1-0.4l0,0.1
		l0.1-0.1l0,0c0,0,0.3-0.3,0.4-0.1l0,0.1l0.1,0l0-0.1c0.2-0.2,1.6-1.9,1.8-2c0,0,0.1,0,0.1,0L12.9,1L8.4,5.6z"/>
	<path class="st0" d="M8.3,1l0.1-0.1c0,0,0.1,0,0.1,0c0.2,0.2,1.6,1.9,1.8,2l0,0.1l0.1,0l0-0.1C10.4,2.7,10.7,3,10.7,3l-0.1,0
		l0.1,0.1l0,0c0,0,0.3,0.3,0.1,0.4l-0.1,0l0,0.1l0.1,0c0.2,0.2,1.9,1.6,2,1.8c0,0,0,0.1,0,0.1l-0.1,0.1L8.3,1z"/>
	<path class="st0" d="M258.6,3.3V3.2c0,0,0.1-0.1,0.1-0.1c0.3,0,2.5,0.2,2.7,0.2l0.1,0.1l0-0.1l-0.1,0c-0.1-0.2,0.3-0.2,0.3-0.2
		l0,0.1h0.1V3.1c0,0,0.4,0,0.3,0.2l-0.1,0l0,0.1l0.1-0.1c0.3,0,2.5-0.2,2.7-0.2c0,0,0.1,0,0.1,0.1v0.2H258.6z"/>
	<path class="st0" d="M262,6.4h-0.2c0,0-0.1-0.1-0.1-0.1c0-0.3,0.2-2.5,0.2-2.7l0.1-0.1l-0.1,0l0,0.1c-0.2,0.1-0.2-0.4-0.2-0.4
		l0.1,0V3.2h-0.1c0,0,0-0.4,0.2-0.3l0,0.1l0.1,0l-0.1-0.1c0-0.3-0.2-2.5-0.2-2.7c0,0,0-0.1,0.1-0.1h0.2V6.4z"/>
	<path class="st0" d="M259.7,5.6l-0.1-0.1c0,0,0-0.1,0-0.1c0.2-0.2,1.9-1.6,2-1.8l0.1,0l0-0.1l-0.1,0c-0.2-0.1,0.1-0.4,0.1-0.4
		l0,0.1l0.1-0.1l0,0c0,0,0.3-0.3,0.4-0.1l0,0.1l0.1,0l0-0.1c0.2-0.2,1.6-1.9,1.8-2c0,0,0.1,0,0.1,0l0.1,0.1L259.7,5.6z"/>
	<path class="st0" d="M259.6,1l0.1-0.1c0,0,0.1,0,0.1,0c0.2,0.2,1.6,1.9,1.8,2l0,0.1l0.1,0l0-0.1C261.7,2.7,262,3,262,3l-0.1,0
		l0.1,0.1l0,0c0,0,0.3,0.3,0.1,0.4l-0.1,0l0,0.1l0.1,0c0.2,0.2,1.9,1.6,2,1.8c0,0,0,0.1,0,0.1l-0.1,0.1L259.6,1z"/>
	<path class="st0" d="M236.5,3.3V3.2c0,0,0.1-0.1,0.1-0.1c0.3,0,2.5,0.2,2.7,0.2l0.1,0.1l0-0.1l-0.1,0c-0.1-0.2,0.3-0.2,0.3-0.2
		l0,0.1h0.1V3.1c0,0,0.4,0,0.3,0.2l-0.1,0l0,0.1l0.1-0.1c0.3,0,2.5-0.2,2.7-0.2c0,0,0.1,0,0.1,0.1v0.2H236.5z"/>
	<path class="st0" d="M239.8,6.4h-0.2c0,0-0.1-0.1-0.1-0.1c0-0.3,0.2-2.5,0.2-2.7l0.1-0.1l-0.1,0l0,0.1c-0.2,0.1-0.2-0.4-0.2-0.4
		l0.1,0V3.2h-0.1c0,0,0-0.4,0.2-0.3l0,0.1l0.1,0l-0.1-0.1c0-0.3-0.2-2.5-0.2-2.7c0,0,0-0.1,0.1-0.1h0.2V6.4z"/>
	<path class="st0" d="M237.5,5.6l-0.1-0.1c0,0,0-0.1,0-0.1c0.2-0.2,1.9-1.6,2-1.8l0.1,0l0-0.1l-0.1,0c-0.2-0.1,0.1-0.4,0.1-0.4
		l0,0.1l0.1-0.1l0,0c0,0,0.3-0.3,0.4-0.1l0,0.1l0.1,0l0-0.1c0.2-0.2,1.6-1.9,1.8-2c0,0,0.1,0,0.1,0L242,1L237.5,5.6z"/>
	<path class="st0" d="M237.4,1l0.1-0.1c0,0,0.1,0,0.1,0c0.2,0.2,1.6,1.9,1.8,2l0,0.1l0.1,0l0-0.1c0.1-0.2,0.4,0.1,0.4,0.1l-0.1,0
		l0.1,0.1l0,0c0,0,0.3,0.3,0.1,0.4l-0.1,0l0,0.1l0.1,0c0.2,0.2,1.9,1.6,2,1.8c0,0,0,0.1,0,0.1l-0.1,0.1L237.4,1z"/>
	<path class="st0" d="M487.7,3.3V3.2c0,0,0.1-0.1,0.1-0.1c0.3,0,2.5,0.2,2.7,0.2l0.1,0.1l0-0.1l-0.1,0c-0.1-0.2,0.3-0.2,0.3-0.2
		l0,0.1h0.1V3.1c0,0,0.4,0,0.3,0.2l-0.1,0l0,0.1l0.1-0.1c0.3,0,2.5-0.2,2.7-0.2c0,0,0.1,0,0.1,0.1v0.2H487.7z"/>
	<path class="st0" d="M491.1,6.4h-0.2c0,0-0.1-0.1-0.1-0.1c0-0.3,0.2-2.5,0.2-2.7l0.1-0.1l-0.1,0l0,0.1c-0.2,0.1-0.2-0.4-0.2-0.4
		l0.1,0V3.2h-0.1c0,0,0-0.4,0.2-0.3l0,0.1l0.1,0L491,2.8c0-0.3-0.2-2.5-0.2-2.7c0,0,0-0.1,0.1-0.1h0.2V6.4z"/>
	<path class="st0" d="M488.8,5.6l-0.1-0.1c0,0,0-0.1,0-0.1c0.2-0.2,1.9-1.6,2-1.8l0.1,0l0-0.1l-0.1,0c-0.2-0.1,0.1-0.4,0.1-0.4
		l0,0.1l0.1-0.1l0,0c0,0,0.3-0.3,0.4-0.1l0,0.1l0.1,0l0-0.1c0.2-0.2,1.6-1.9,1.8-2c0,0,0.1,0,0.1,0l0.1,0.1L488.8,5.6z"/>
	<path class="st0" d="M488.6,1l0.1-0.1c0,0,0.1,0,0.1,0c0.2,0.2,1.6,1.9,1.8,2l0,0.1l0.1,0l0-0.1c0.1-0.2,0.4,0.1,0.4,0.1L491,3
		l0.1,0.1l0,0c0,0,0.3,0.3,0.1,0.4l-0.1,0l0,0.1l0.1,0c0.2,0.2,1.9,1.6,2,1.8c0,0,0,0.1,0,0.1l-0.1,0.1L488.6,1z"/>
	<path class="st0" d="M243.9,3.3V3.2c0,0,0.1-0.1,0.1-0.1c0.3,0,2.5,0.2,2.7,0.2l0.1,0.1l0-0.1l-0.1,0c-0.1-0.2,0.3-0.2,0.3-0.2
		l0,0.1h0.1V3.1c0,0,0.4,0,0.3,0.2l-0.1,0l0,0.1l0.1-0.1c0.3,0,2.5-0.2,2.7-0.2c0,0,0.1,0,0.1,0.1v0.2H243.9z"/>
	<path class="st0" d="M247.2,6.4H247c0,0-0.1-0.1-0.1-0.1c0-0.3,0.2-2.5,0.2-2.7l0.1-0.1l-0.1,0l0,0.1c-0.2,0.1-0.2-0.4-0.2-0.4
		l0.1,0V3.2h-0.1c0,0,0-0.4,0.2-0.3l0,0.1l0.1,0l-0.1-0.1c0-0.3-0.2-2.5-0.2-2.7c0,0,0-0.1,0.1-0.1h0.2V6.4z"/>
	<path class="st0" d="M244.9,5.6l-0.1-0.1c0,0,0-0.1,0-0.1c0.2-0.2,1.9-1.6,2-1.8l0.1,0l0-0.1l-0.1,0c-0.2-0.1,0.1-0.4,0.1-0.4
		l0,0.1l0.1-0.1l0,0c0,0,0.3-0.3,0.4-0.1l0,0.1l0.1,0l0-0.1c0.2-0.2,1.6-1.9,1.8-2c0,0,0.1,0,0.1,0l0.1,0.1L244.9,5.6z"/>
	<path class="st0" d="M244.8,1l0.1-0.1c0,0,0.1,0,0.1,0c0.2,0.2,1.6,1.9,1.8,2l0,0.1l0.1,0l0-0.1c0.1-0.2,0.4,0.1,0.4,0.1l-0.1,0
		l0.1,0.1l0,0c0,0,0.3,0.3,0.1,0.4l-0.1,0l0,0.1l0.1,0c0.2,0.2,1.9,1.6,2,1.8c0,0,0,0.1,0,0.1l-0.1,0.1L244.8,1z"/>
	<path class="st0" d="M495.1,3.3V3.2c0,0,0.1-0.1,0.1-0.1c0.3,0,2.5,0.2,2.7,0.2l0.1,0.1l0-0.1l-0.1,0c-0.1-0.2,0.3-0.2,0.3-0.2
		l0,0.1h0.1V3.1c0,0,0.4,0,0.3,0.2l-0.1,0l0,0.1l0.1-0.1c0.3,0,2.5-0.2,2.7-0.2c0,0,0.1,0,0.1,0.1v0.2H495.1z"/>
	<path class="st0" d="M498.5,6.4h-0.2c0,0-0.1-0.1-0.1-0.1c0-0.3,0.2-2.5,0.2-2.7l0.1-0.1l-0.1,0l0,0.1c-0.2,0.1-0.2-0.4-0.2-0.4
		l0.1,0V3.2h-0.1c0,0,0-0.4,0.2-0.3l0,0.1l0.1,0l-0.1-0.1c0-0.3-0.2-2.5-0.2-2.7c0,0,0-0.1,0.1-0.1h0.2V6.4z"/>
	<path class="st0" d="M496.2,5.6L496,5.4c0,0,0-0.1,0-0.1c0.2-0.2,1.9-1.6,2-1.8l0.1,0l0-0.1l-0.1,0c-0.2-0.1,0.1-0.4,0.1-0.4l0,0.1
		l0.1-0.1l0,0c0,0,0.3-0.3,0.4-0.1l0,0.1l0.1,0l0-0.1c0.2-0.2,1.6-1.9,1.8-2c0,0,0.1,0,0.1,0l0.1,0.1L496.2,5.6z"/>
	<path class="st0" d="M496,1l0.1-0.1c0,0,0.1,0,0.1,0c0.2,0.2,1.6,1.9,1.8,2l0,0.1l0.1,0l0-0.1c0.1-0.2,0.4,0.1,0.4,0.1l-0.1,0
		l0.1,0.1l0,0c0,0,0.3,0.3,0.1,0.4l-0.1,0l0,0.1l0.1,0c0.2,0.2,1.9,1.6,2,1.8c0,0,0,0.1,0,0.1l-0.1,0.1L496,1z"/>
	<path class="st0" d="M14.8,3.3V3.2c0,0,0.1-0.1,0.1-0.1c0.3,0,2.5,0.2,2.7,0.2l0.1,0.1l0-0.1l-0.1,0c-0.1-0.2,0.4-0.2,0.4-0.2
		l0,0.1H18V3.1c0,0,0.4,0,0.3,0.2l-0.1,0l0,0.1l0.1-0.1c0.3,0,2.5-0.2,2.7-0.2c0,0,0.1,0,0.1,0.1v0.2H14.8z"/>
	<path class="st0" d="M18.1,6.4h-0.2c0,0-0.1-0.1-0.1-0.1c0-0.3,0.2-2.5,0.2-2.7l0.1-0.1l-0.1,0l0,0.1c-0.2,0.1-0.2-0.4-0.2-0.4
		l0.1,0V3.2h-0.1c0,0,0-0.4,0.2-0.3l0,0.1l0.1,0L18,2.8c0-0.3-0.2-2.5-0.2-2.7c0,0,0-0.1,0.1-0.1h0.2V6.4z"/>
	<path class="st0" d="M15.8,5.6l-0.1-0.1c0,0,0-0.1,0-0.1c0.2-0.2,1.9-1.6,2-1.8l0.1,0l0-0.1l-0.1,0c-0.2-0.1,0.1-0.4,0.1-0.4l0,0.1
		l0.1-0.1l0,0c0,0,0.3-0.3,0.4-0.1l0,0.1l0.1,0l0-0.1c0.2-0.2,1.6-1.9,1.8-2c0,0,0.1,0,0.1,0L20.3,1L15.8,5.6z"/>
	<path class="st0" d="M15.7,1l0.1-0.1c0,0,0.1,0,0.1,0c0.2,0.2,1.6,1.9,1.8,2l0,0.1l0.1,0l0-0.1C17.8,2.7,18.1,3,18.1,3l-0.1,0
		l0.1,0.1l0,0c0,0,0.3,0.3,0.1,0.4l-0.1,0l0,0.1l0.1,0c0.2,0.2,1.9,1.6,2,1.8c0,0,0,0.1,0,0.1l-0.1,0.1L15.7,1z"/>
	<path class="st0" d="M266,3.3V3.2c0,0,0.1-0.1,0.1-0.1c0.3,0,2.5,0.2,2.7,0.2l0.1,0.1l0-0.1l-0.1,0c-0.1-0.2,0.3-0.2,0.3-0.2l0,0.1
		h0.1V3.1c0,0,0.4,0,0.3,0.2l-0.1,0l0,0.1l0.1-0.1c0.3,0,2.5-0.2,2.7-0.2c0,0,0.1,0,0.1,0.1v0.2H266z"/>
	<path class="st0" d="M269.4,6.4h-0.2c0,0-0.1-0.1-0.1-0.1c0-0.3,0.2-2.5,0.2-2.7l0.1-0.1l-0.1,0l0,0.1c-0.2,0.1-0.2-0.4-0.2-0.4
		l0.1,0V3.2h-0.1c0,0,0-0.4,0.2-0.3l0,0.1l0.1,0l-0.1-0.1c0-0.3-0.2-2.5-0.2-2.7c0,0,0-0.1,0.1-0.1h0.2V6.4z"/>
	<path class="st0" d="M267.1,5.6l-0.1-0.1c0,0,0-0.1,0-0.1c0.2-0.2,1.9-1.6,2-1.8l0.1,0l0-0.1l-0.1,0c-0.2-0.1,0.1-0.4,0.1-0.4
		l0,0.1l0.1-0.1l0,0c0,0,0.3-0.3,0.4-0.1l0,0.1l0.1,0l0-0.1c0.2-0.2,1.6-1.9,1.8-2c0,0,0.1,0,0.1,0l0.1,0.1L267.1,5.6z"/>
	<path class="st0" d="M266.9,1l0.1-0.1c0,0,0.1,0,0.1,0c0.2,0.2,1.6,1.9,1.8,2l0,0.1l0.1,0l0-0.1c0.1-0.2,0.4,0.1,0.4,0.1l-0.1,0
		l0.1,0.1l0,0c0,0,0.3,0.3,0.1,0.4l-0.1,0l0,0.1l0.1,0c0.2,0.2,1.9,1.6,2,1.8c0,0,0,0.1,0,0.1l-0.1,0.1L266.9,1z"/>
	<path class="st0" d="M22.1,3.3V3.2c0,0,0.1-0.1,0.1-0.1c0.3,0,2.5,0.2,2.7,0.2L25,3.3l0-0.1l-0.1,0c-0.1-0.2,0.4-0.2,0.4-0.2l0,0.1
		h0.1V3.1c0,0,0.4,0,0.3,0.2l-0.1,0l0,0.1l0.1-0.1c0.3,0,2.5-0.2,2.7-0.2c0,0,0.1,0,0.1,0.1v0.2H22.1z"/>
	<path class="st0" d="M25.5,6.4h-0.2c0,0-0.1-0.1-0.1-0.1c0-0.3,0.2-2.5,0.2-2.7l0.1-0.1l-0.1,0l0,0.1c-0.2,0.1-0.2-0.4-0.2-0.4
		l0.1,0V3.2h-0.1c0,0,0-0.4,0.2-0.3l0,0.1l0.1,0l-0.1-0.1c0-0.3-0.2-2.5-0.2-2.7c0,0,0-0.1,0.1-0.1h0.2V6.4z"/>
	<path class="st0" d="M23.2,5.6l-0.1-0.1c0,0,0-0.1,0-0.1c0.2-0.2,1.9-1.6,2-1.8l0.1,0l0-0.1l-0.1,0c-0.2-0.1,0.1-0.4,0.1-0.4l0,0.1
		l0.1-0.1l0,0c0,0,0.3-0.3,0.4-0.1l0,0.1l0.1,0l0-0.1c0.2-0.2,1.6-1.9,1.8-2c0,0,0.1,0,0.1,0L27.7,1L23.2,5.6z"/>
	<path class="st0" d="M23.1,1l0.1-0.1c0,0,0.1,0,0.1,0c0.2,0.2,1.6,1.9,1.8,2l0,0.1l0.1,0l0-0.1C25.2,2.7,25.5,3,25.5,3l-0.1,0
		l0.1,0.1l0,0c0,0,0.3,0.3,0.1,0.4l-0.1,0l0,0.1l0.1,0c0.2,0.2,1.9,1.6,2,1.8c0,0,0,0.1,0,0.1l-0.1,0.1L23.1,1z"/>
	<path class="st0" d="M273.4,3.3V3.2c0,0,0.1-0.1,0.1-0.1c0.3,0,2.5,0.2,2.7,0.2l0.1,0.1l0-0.1l-0.1,0c-0.1-0.2,0.3-0.2,0.3-0.2
		l0,0.1h0.1V3.1c0,0,0.4,0,0.3,0.2l-0.1,0l0,0.1l0.1-0.1c0.3,0,2.5-0.2,2.7-0.2c0,0,0.1,0,0.1,0.1v0.2H273.4z"/>
	<path class="st0" d="M276.8,6.4h-0.2c0,0-0.1-0.1-0.1-0.1c0-0.3,0.2-2.5,0.2-2.7l0.1-0.1l-0.1,0l0,0.1c-0.2,0.1-0.2-0.4-0.2-0.4
		l0.1,0V3.2h-0.1c0,0,0-0.4,0.2-0.3l0,0.1l0.1,0l-0.1-0.1c0-0.3-0.2-2.5-0.2-2.7c0,0,0-0.1,0.1-0.1h0.2V6.4z"/>
	<path class="st0" d="M274.5,5.6l-0.1-0.1c0,0,0-0.1,0-0.1c0.2-0.2,1.9-1.6,2-1.8l0.1,0l0-0.1l-0.1,0c-0.2-0.1,0.1-0.4,0.1-0.4
		l0,0.1l0.1-0.1l0,0c0,0,0.3-0.3,0.4-0.1l0,0.1l0.1,0l0-0.1c0.2-0.2,1.6-1.9,1.8-2c0,0,0.1,0,0.1,0L279,1L274.5,5.6z"/>
	<path class="st0" d="M274.3,1l0.1-0.1c0,0,0.1,0,0.1,0c0.2,0.2,1.6,1.9,1.8,2l0,0.1l0.1,0l0-0.1c0.1-0.2,0.4,0.1,0.4,0.1l-0.1,0
		l0.1,0.1l0,0c0,0,0.3,0.3,0.1,0.4l-0.1,0l0,0.1l0.1,0c0.2,0.2,1.9,1.6,2,1.8c0,0,0,0.1,0,0.1l-0.1,0.1L274.3,1z"/>
	<path class="st0" d="M29.5,3.3V3.2c0,0,0.1-0.1,0.1-0.1c0.3,0,2.5,0.2,2.7,0.2l0.1,0.1l0-0.1l-0.1,0c-0.1-0.2,0.3-0.2,0.3-0.2
		l0,0.1h0.1V3.1c0,0,0.4,0,0.3,0.2l-0.1,0l0,0.1l0.1-0.1c0.3,0,2.5-0.2,2.7-0.2c0,0,0.1,0,0.1,0.1v0.2H29.5z"/>
	<path class="st0" d="M32.9,6.4h-0.2c0,0-0.1-0.1-0.1-0.1c0-0.3,0.2-2.5,0.2-2.7l0.1-0.1l-0.1,0l0,0.1c-0.2,0.1-0.2-0.4-0.2-0.4
		l0.1,0V3.2h-0.1c0,0,0-0.4,0.2-0.3l0,0.1l0.1,0l-0.1-0.1c0-0.3-0.2-2.5-0.2-2.7c0,0,0-0.1,0.1-0.1h0.2V6.4z"/>
	<path class="st0" d="M30.6,5.6l-0.1-0.1c0,0,0-0.1,0-0.1c0.2-0.2,1.9-1.6,2-1.8l0.1,0l0-0.1l-0.1,0c-0.2-0.1,0.1-0.4,0.1-0.4l0,0.1
		l0.1-0.1l0,0c0,0,0.3-0.3,0.4-0.1L33,3l0.1,0l0-0.1c0.2-0.2,1.6-1.9,1.8-2c0,0,0.1,0,0.1,0L35.1,1L30.6,5.6z"/>
	<path class="st0" d="M30.5,1l0.1-0.1c0,0,0.1,0,0.1,0c0.2,0.2,1.6,1.9,1.8,2l0,0.1l0.1,0l0-0.1C32.6,2.7,32.9,3,32.9,3l-0.1,0
		l0.1,0.1l0,0c0,0,0.3,0.3,0.1,0.4l-0.1,0l0,0.1l0.1,0c0.2,0.2,1.9,1.6,2,1.8c0,0,0,0.1,0,0.1L35,5.5L30.5,1z"/>
	<path class="st0" d="M280.8,3.3V3.2c0,0,0.1-0.1,0.1-0.1c0.3,0,2.5,0.2,2.7,0.2l0.1,0.1l0-0.1l-0.1,0c-0.1-0.2,0.3-0.2,0.3-0.2
		l0,0.1h0.1V3.1c0,0,0.4,0,0.3,0.2l-0.1,0l0,0.1l0.1-0.1c0.3,0,2.5-0.2,2.7-0.2c0,0,0.1,0,0.1,0.1v0.2H280.8z"/>
	<path class="st0" d="M284.1,6.4H284c0,0-0.1-0.1-0.1-0.1c0-0.3,0.2-2.5,0.2-2.7l0.1-0.1l-0.1,0l0,0.1c-0.2,0.1-0.2-0.4-0.2-0.4
		l0.1,0V3.2h-0.1c0,0,0-0.4,0.2-0.3l0,0.1l0.1,0l-0.1-0.1c0-0.3-0.2-2.5-0.2-2.7c0,0,0-0.1,0.1-0.1h0.2V6.4z"/>
	<path class="st0" d="M281.8,5.6l-0.1-0.1c0,0,0-0.1,0-0.1c0.2-0.2,1.9-1.6,2-1.8l0.1,0l0-0.1l-0.1,0c-0.2-0.1,0.1-0.4,0.1-0.4
		l0,0.1l0.1-0.1l0,0c0,0,0.3-0.3,0.4-0.1l0,0.1l0.1,0l0-0.1c0.2-0.2,1.6-1.9,1.8-2c0,0,0.1,0,0.1,0l0.1,0.1L281.8,5.6z"/>
	<path class="st0" d="M281.7,1l0.1-0.1c0,0,0.1,0,0.1,0c0.2,0.2,1.6,1.9,1.8,2l0,0.1l0.1,0l0-0.1c0.1-0.2,0.4,0.1,0.4,0.1l-0.1,0
		l0.1,0.1l0,0c0,0,0.3,0.3,0.1,0.4l-0.1,0l0,0.1l0.1,0c0.2,0.2,1.9,1.6,2,1.8c0,0,0,0.1,0,0.1l-0.1,0.1L281.7,1z"/>
	<path class="st0" d="M36.9,3.3V3.2c0,0,0.1-0.1,0.1-0.1c0.3,0,2.5,0.2,2.7,0.2l0.1,0.1l0-0.1l-0.1,0c-0.1-0.2,0.3-0.2,0.3-0.2
		l0,0.1h0.1V3.1c0,0,0.4,0,0.3,0.2l-0.1,0l0,0.1l0.1-0.1c0.3,0,2.5-0.2,2.7-0.2c0,0,0.1,0,0.1,0.1v0.2H36.9z"/>
	<path class="st0" d="M40.3,6.4h-0.2c0,0-0.1-0.1-0.1-0.1c0-0.3,0.2-2.5,0.2-2.7l0.1-0.1l-0.1,0l0,0.1C40,3.7,40,3.2,40,3.2l0.1,0
		V3.2H40c0,0,0-0.4,0.2-0.3l0,0.1l0.1,0l-0.1-0.1c0-0.3-0.2-2.5-0.2-2.7c0,0,0-0.1,0.1-0.1h0.2V6.4z"/>
	<path class="st0" d="M38,5.6l-0.1-0.1c0,0,0-0.1,0-0.1c0.2-0.2,1.9-1.6,2-1.8l0.1,0l0-0.1l-0.1,0C39.7,3.4,40,3.1,40,3.1l0,0.1
		l0.1-0.1l0,0c0,0,0.3-0.3,0.4-0.1l0,0.1l0.1,0l0-0.1c0.2-0.2,1.6-1.9,1.8-2c0,0,0.1,0,0.1,0L42.5,1L38,5.6z"/>
	<path class="st0" d="M37.8,1L38,0.8c0,0,0.1,0,0.1,0c0.2,0.2,1.6,1.9,1.8,2l0,0.1l0.1,0l0-0.1C40,2.7,40.3,3,40.3,3l-0.1,0l0.1,0.1
		l0,0c0,0,0.3,0.3,0.1,0.4l-0.1,0l0,0.1l0.1,0c0.2,0.2,1.9,1.6,2,1.8c0,0,0,0.1,0,0.1l-0.1,0.1L37.8,1z"/>
	<path class="st0" d="M288.2,3.3V3.2c0,0,0.1-0.1,0.1-0.1c0.3,0,2.5,0.2,2.7,0.2l0.1,0.1l0-0.1l-0.1,0c-0.1-0.2,0.3-0.2,0.3-0.2
		l0,0.1h0.1V3.1c0,0,0.4,0,0.3,0.2l-0.1,0l0,0.1l0.1-0.1c0.3,0,2.5-0.2,2.7-0.2c0,0,0.1,0,0.1,0.1v0.2H288.2z"/>
	<path class="st0" d="M291.5,6.4h-0.2c0,0-0.1-0.1-0.1-0.1c0-0.3,0.2-2.5,0.2-2.7l0.1-0.1l-0.1,0l0,0.1c-0.2,0.1-0.2-0.4-0.2-0.4
		l0.1,0V3.2h-0.1c0,0,0-0.4,0.2-0.3l0,0.1l0.1,0l-0.1-0.1c0-0.3-0.2-2.5-0.2-2.7c0,0,0-0.1,0.1-0.1h0.2V6.4z"/>
	<path class="st0" d="M289.2,5.6l-0.1-0.1c0,0,0-0.1,0-0.1c0.2-0.2,1.9-1.6,2-1.8l0.1,0l0-0.1l-0.1,0c-0.2-0.1,0.1-0.4,0.1-0.4
		l0,0.1l0.1-0.1l0,0c0,0,0.3-0.3,0.4-0.1l0,0.1l0.1,0l0-0.1c0.2-0.2,1.6-1.9,1.8-2c0,0,0.1,0,0.1,0l0.1,0.1L289.2,5.6z"/>
	<path class="st0" d="M289.1,1l0.1-0.1c0,0,0.1,0,0.1,0c0.2,0.2,1.6,1.9,1.8,2l0,0.1l0.1,0l0-0.1c0.1-0.2,0.4,0.1,0.4,0.1l-0.1,0
		l0.1,0.1l0,0c0,0,0.3,0.3,0.1,0.4l-0.1,0l0,0.1l0.1,0c0.2,0.2,1.9,1.6,2,1.8c0,0,0,0.1,0,0.1l-0.1,0.1L289.1,1z"/>
	<path class="st0" d="M44.3,3.3V3.2c0,0,0.1-0.1,0.1-0.1c0.3,0,2.5,0.2,2.7,0.2l0.1,0.1l0-0.1l-0.1,0c-0.1-0.2,0.3-0.2,0.3-0.2
		l0,0.1h0.1V3.1c0,0,0.4,0,0.3,0.2l-0.1,0l0,0.1l0.1-0.1c0.3,0,2.5-0.2,2.7-0.2c0,0,0.1,0,0.1,0.1v0.2H44.3z"/>
	<path class="st0" d="M47.7,6.4h-0.2c0,0-0.1-0.1-0.1-0.1c0-0.3,0.2-2.5,0.2-2.7l0.1-0.1l-0.1,0l0,0.1c-0.2,0.1-0.2-0.4-0.2-0.4
		l0.1,0V3.2h-0.1c0,0,0-0.4,0.2-0.3l0,0.1l0.1,0l-0.1-0.1c0-0.3-0.2-2.5-0.2-2.7c0,0,0-0.1,0.1-0.1h0.2V6.4z"/>
	<path class="st0" d="M45.4,5.6l-0.1-0.1c0,0,0-0.1,0-0.1c0.2-0.2,1.9-1.6,2-1.8l0.1,0l0-0.1l-0.1,0c-0.2-0.1,0.1-0.4,0.1-0.4l0,0.1
		l0.1-0.1l0,0c0,0,0.3-0.3,0.4-0.1l0,0.1l0.1,0l0-0.1c0.2-0.2,1.6-1.9,1.8-2c0,0,0.1,0,0.1,0L49.9,1L45.4,5.6z"/>
	<path class="st0" d="M45.2,1l0.1-0.1c0,0,0.1,0,0.1,0c0.2,0.2,1.6,1.9,1.8,2l0,0.1l0.1,0l0-0.1C47.4,2.7,47.7,3,47.7,3l-0.1,0
		l0.1,0.1l0,0c0,0,0.3,0.3,0.1,0.4l-0.1,0l0,0.1l0.1,0c0.2,0.2,1.9,1.6,2,1.8c0,0,0,0.1,0,0.1l-0.1,0.1L45.2,1z"/>
	<path class="st0" d="M295.6,3.3V3.2c0,0,0.1-0.1,0.1-0.1c0.3,0,2.5,0.2,2.7,0.2l0.1,0.1l0-0.1l-0.1,0c-0.1-0.2,0.3-0.2,0.3-0.2
		l0,0.1h0.1V3.1c0,0,0.4,0,0.3,0.2l-0.1,0l0,0.1l0.1-0.1c0.3,0,2.5-0.2,2.7-0.2c0,0,0.1,0,0.1,0.1v0.2H295.6z"/>
	<path class="st0" d="M298.9,6.4h-0.2c0,0-0.1-0.1-0.1-0.1c0-0.3,0.2-2.5,0.2-2.7l0.1-0.1l-0.1,0l0,0.1c-0.2,0.1-0.2-0.4-0.2-0.4
		l0.1,0V3.2h-0.1c0,0,0-0.4,0.2-0.3l0,0.1l0.1,0l-0.1-0.1c0-0.3-0.2-2.5-0.2-2.7c0,0,0-0.1,0.1-0.1h0.2V6.4z"/>
	<path class="st0" d="M296.6,5.6l-0.1-0.1c0,0,0-0.1,0-0.1c0.2-0.2,1.9-1.6,2-1.8l0.1,0l0-0.1l-0.1,0c-0.2-0.1,0.1-0.4,0.1-0.4
		l0,0.1l0.1-0.1l0,0c0,0,0.3-0.3,0.4-0.1l0,0.1l0.1,0l0-0.1c0.2-0.2,1.6-1.9,1.8-2c0,0,0.1,0,0.1,0l0.1,0.1L296.6,5.6z"/>
	<path class="st0" d="M296.5,1l0.1-0.1c0,0,0.1,0,0.1,0c0.2,0.2,1.6,1.9,1.8,2l0,0.1l0.1,0l0-0.1C298.6,2.7,299,3,299,3l-0.1,0
		l0.1,0.1l0,0c0,0,0.3,0.3,0.1,0.4l-0.1,0l0,0.1l0.1,0c0.2,0.2,1.9,1.6,2,1.8c0,0,0,0.1,0,0.1L301,5.5L296.5,1z"/>
	<path class="st0" d="M51.7,3.3V3.2c0,0,0.1-0.1,0.1-0.1c0.3,0,2.5,0.2,2.7,0.2l0.1,0.1l0-0.1l-0.1,0c-0.1-0.2,0.3-0.2,0.3-0.2
		l0,0.1H55V3.1c0,0,0.4,0,0.3,0.2l-0.1,0l0,0.1l0.1-0.1c0.3,0,2.5-0.2,2.7-0.2c0,0,0.1,0,0.1,0.1v0.2H51.7z"/>
	<path class="st0" d="M55.1,6.4h-0.2c0,0-0.1-0.1-0.1-0.1c0-0.3,0.2-2.5,0.2-2.7l0.1-0.1l-0.1,0l0,0.1c-0.2,0.1-0.2-0.4-0.2-0.4
		l0.1,0V3.2h-0.1c0,0,0-0.4,0.2-0.3l0,0.1l0.1,0L55,2.8c0-0.3-0.2-2.5-0.2-2.7c0,0,0-0.1,0.1-0.1h0.2V6.4z"/>
	<path class="st0" d="M52.7,5.6l-0.1-0.1c0,0,0-0.1,0-0.1c0.2-0.2,1.9-1.6,2-1.8l0.1,0l0-0.1l-0.1,0c-0.2-0.1,0.1-0.4,0.1-0.4l0,0.1
		l0.1-0.1l0,0c0,0,0.3-0.3,0.4-0.1l0,0.1l0.1,0l0-0.1c0.2-0.2,1.6-1.9,1.8-2c0,0,0.1,0,0.1,0L57.3,1L52.7,5.6z"/>
	<path class="st0" d="M52.6,1l0.1-0.1c0,0,0.1,0,0.1,0c0.2,0.2,1.6,1.9,1.8,2l0,0.1l0.1,0l0-0.1C54.8,2.7,55.1,3,55.1,3L55,3
		l0.1,0.1l0,0c0,0,0.3,0.3,0.1,0.4l-0.1,0l0,0.1l0.1,0c0.2,0.2,1.9,1.6,2,1.8c0,0,0,0.1,0,0.1l-0.1,0.1L52.6,1z"/>
	<path class="st0" d="M303,3.3V3.2c0,0,0.1-0.1,0.1-0.1c0.3,0,2.5,0.2,2.7,0.2l0.1,0.1l0-0.1l-0.1,0c-0.1-0.2,0.3-0.2,0.3-0.2l0,0.1
		h0.1V3.1c0,0,0.4,0,0.3,0.2l-0.1,0l0,0.1l0.1-0.1c0.3,0,2.5-0.2,2.7-0.2c0,0,0.1,0,0.1,0.1v0.2H303z"/>
	<path class="st0" d="M306.3,6.4h-0.2c0,0-0.1-0.1-0.1-0.1c0-0.3,0.2-2.5,0.2-2.7l0.1-0.1l-0.1,0l0,0.1C306,3.7,306,3.2,306,3.2
		l0.1,0V3.2H306c0,0,0-0.4,0.2-0.3l0,0.1l0.1,0l-0.1-0.1c0-0.3-0.2-2.5-0.2-2.7c0,0,0-0.1,0.1-0.1h0.2V6.4z"/>
	<path class="st0" d="M304,5.6l-0.1-0.1c0,0,0-0.1,0-0.1c0.2-0.2,1.9-1.6,2-1.8l0.1,0l0-0.1l-0.1,0c-0.2-0.1,0.1-0.4,0.1-0.4l0,0.1
		l0.1-0.1l0,0c0,0,0.3-0.3,0.4-0.1l0,0.1l0.1,0l0-0.1c0.2-0.2,1.6-1.9,1.8-2c0,0,0.1,0,0.1,0l0.1,0.1L304,5.6z"/>
	<path class="st0" d="M303.9,1l0.1-0.1c0,0,0.1,0,0.1,0c0.2,0.2,1.6,1.9,1.8,2l0,0.1l0.1,0l0-0.1c0.1-0.2,0.4,0.1,0.4,0.1l-0.1,0
		l0.1,0.1l0,0c0,0,0.3,0.3,0.1,0.4l-0.1,0l0,0.1l0.1,0c0.2,0.2,1.9,1.6,2,1.8c0,0,0,0.1,0,0.1l-0.1,0.1L303.9,1z"/>
	<path class="st0" d="M59.1,3.3V3.2c0,0,0.1-0.1,0.1-0.1c0.3,0,2.5,0.2,2.7,0.2L62,3.3l0-0.1l-0.1,0c-0.1-0.2,0.3-0.2,0.3-0.2l0,0.1
		h0.1V3.1c0,0,0.4,0,0.3,0.2l-0.1,0l0,0.1l0.1-0.1c0.3,0,2.5-0.2,2.7-0.2c0,0,0.1,0,0.1,0.1v0.2H59.1z"/>
	<path class="st0" d="M62.4,6.4h-0.2c0,0-0.1-0.1-0.1-0.1c0-0.3,0.2-2.5,0.2-2.7l0.1-0.1l-0.1,0l0,0.1c-0.2,0.1-0.2-0.4-0.2-0.4
		l0.1,0V3.2h-0.1c0,0,0-0.4,0.2-0.3l0,0.1l0.1,0l-0.1-0.1c0-0.3-0.2-2.5-0.2-2.7c0,0,0-0.1,0.1-0.1h0.2V6.4z"/>
	<path class="st0" d="M60.1,5.6L60,5.4c0,0,0-0.1,0-0.1c0.2-0.2,1.9-1.6,2-1.8l0.1,0l0-0.1l-0.1,0c-0.2-0.1,0.1-0.4,0.1-0.4l0,0.1
		l0.1-0.1l0,0c0,0,0.3-0.3,0.4-0.1l0,0.1l0.1,0l0-0.1c0.2-0.2,1.6-1.9,1.8-2c0,0,0.1,0,0.1,0L64.7,1L60.1,5.6z"/>
	<path class="st0" d="M60,1l0.1-0.1c0,0,0.1,0,0.1,0c0.2,0.2,1.6,1.9,1.8,2L62,3l0.1,0l0-0.1C62.2,2.7,62.5,3,62.5,3l-0.1,0l0.1,0.1
		l0,0c0,0,0.3,0.3,0.1,0.4l-0.1,0l0,0.1l0.1,0c0.2,0.2,1.9,1.6,2,1.8c0,0,0,0.1,0,0.1l-0.1,0.1L60,1z"/>
	<path class="st0" d="M310.4,3.3V3.2c0,0,0.1-0.1,0.1-0.1c0.3,0,2.5,0.2,2.7,0.2l0.1,0.1l0-0.1l-0.1,0c-0.1-0.2,0.3-0.2,0.3-0.2
		l0,0.1h0.1V3.1c0,0,0.4,0,0.3,0.2l-0.1,0l0,0.1l0.1-0.1c0.3,0,2.5-0.2,2.7-0.2c0,0,0.1,0,0.1,0.1v0.2H310.4z"/>
	<path class="st0" d="M313.7,6.4h-0.2c0,0-0.1-0.1-0.1-0.1c0-0.3,0.2-2.5,0.2-2.7l0.1-0.1l-0.1,0l0,0.1c-0.2,0.1-0.2-0.4-0.2-0.4
		l0.1,0V3.2h-0.1c0,0,0-0.4,0.2-0.3l0,0.1l0.1,0l-0.1-0.1c0-0.3-0.2-2.5-0.2-2.7c0,0,0-0.1,0.1-0.1h0.2V6.4z"/>
	<path class="st0" d="M311.4,5.6l-0.1-0.1c0,0,0-0.1,0-0.1c0.2-0.2,1.9-1.6,2-1.8l0.1,0l0-0.1l-0.1,0c-0.2-0.1,0.1-0.4,0.1-0.4
		l0,0.1l0.1-0.1l0,0c0,0,0.3-0.3,0.4-0.1l0,0.1l0.1,0l0-0.1c0.2-0.2,1.6-1.9,1.8-2c0,0,0.1,0,0.1,0l0.1,0.1L311.4,5.6z"/>
	<path class="st0" d="M311.3,1l0.1-0.1c0,0,0.1,0,0.1,0c0.2,0.2,1.6,1.9,1.8,2l0,0.1l0.1,0l0-0.1c0.1-0.2,0.4,0.1,0.4,0.1l-0.1,0
		l0.1,0.1l0,0c0,0,0.3,0.3,0.1,0.4l-0.1,0l0,0.1l0.1,0c0.2,0.2,1.9,1.6,2,1.8c0,0,0,0.1,0,0.1l-0.1,0.1L311.3,1z"/>
	<path class="st0" d="M66.5,3.3V3.2c0,0,0.1-0.1,0.1-0.1c0.3,0,2.5,0.2,2.7,0.2l0.1,0.1l0-0.1l-0.1,0c-0.1-0.2,0.3-0.2,0.3-0.2
		l0,0.1h0.1V3.1c0,0,0.4,0,0.3,0.2l-0.1,0l0,0.1l0.1-0.1c0.3,0,2.5-0.2,2.7-0.2c0,0,0.1,0,0.1,0.1v0.2H66.5z"/>
	<path class="st0" d="M69.8,6.4h-0.2c0,0-0.1-0.1-0.1-0.1c0-0.3,0.2-2.5,0.2-2.7l0.1-0.1l-0.1,0l0,0.1c-0.2,0.1-0.2-0.4-0.2-0.4
		l0.1,0V3.2h-0.1c0,0,0-0.4,0.2-0.3l0,0.1l0.1,0l-0.1-0.1c0-0.3-0.2-2.5-0.2-2.7c0,0,0-0.1,0.1-0.1h0.2V6.4z"/>
	<path class="st0" d="M67.5,5.6l-0.1-0.1c0,0,0-0.1,0-0.1c0.2-0.2,1.9-1.6,2-1.8l0.1,0l0-0.1l-0.1,0c-0.2-0.1,0.1-0.4,0.1-0.4l0,0.1
		l0.1-0.1l0,0c0,0,0.3-0.3,0.4-0.1L70,3l0.1,0L70,3c0.2-0.2,1.6-1.9,1.8-2c0,0,0.1,0,0.1,0L72.1,1L67.5,5.6z"/>
	<path class="st0" d="M67.4,1l0.1-0.1c0,0,0.1,0,0.1,0c0.2,0.2,1.6,1.9,1.8,2l0,0.1l0.1,0l0-0.1C69.5,2.7,69.9,3,69.9,3l-0.1,0
		l0.1,0.1l0,0c0,0,0.3,0.3,0.1,0.4l-0.1,0l0,0.1l0.1,0c0.2,0.2,1.9,1.6,2,1.8c0,0,0,0.1,0,0.1l-0.1,0.1L67.4,1z"/>
	<path class="st0" d="M317.8,3.3V3.2c0,0,0.1-0.1,0.1-0.1c0.3,0,2.5,0.2,2.7,0.2l0.1,0.1l0-0.1l-0.1,0c-0.1-0.2,0.3-0.2,0.3-0.2
		l0,0.1h0.1V3.1c0,0,0.4,0,0.3,0.2l-0.1,0l0,0.1l0.1-0.1c0.3,0,2.5-0.2,2.7-0.2c0,0,0.1,0,0.1,0.1v0.2H317.8z"/>
	<path class="st0" d="M321.1,6.4h-0.2c0,0-0.1-0.1-0.1-0.1c0-0.3,0.2-2.5,0.2-2.7l0.1-0.1l-0.1,0l0,0.1c-0.2,0.1-0.2-0.4-0.2-0.4
		l0.1,0V3.2h-0.1c0,0,0-0.4,0.2-0.3l0,0.1l0.1,0L321,2.8c0-0.3-0.2-2.5-0.2-2.7c0,0,0-0.1,0.1-0.1h0.2V6.4z"/>
	<path class="st0" d="M318.8,5.6l-0.1-0.1c0,0,0-0.1,0-0.1c0.2-0.2,1.9-1.6,2-1.8l0.1,0l0-0.1l-0.1,0c-0.2-0.1,0.1-0.4,0.1-0.4
		l0,0.1l0.1-0.1l0,0c0,0,0.3-0.3,0.4-0.1l0,0.1l0.1,0l0-0.1c0.2-0.2,1.6-1.9,1.8-2c0,0,0.1,0,0.1,0l0.1,0.1L318.8,5.6z"/>
	<path class="st0" d="M318.7,1l0.1-0.1c0,0,0.1,0,0.1,0c0.2,0.2,1.6,1.9,1.8,2l0,0.1l0.1,0l0-0.1c0.1-0.2,0.4,0.1,0.4,0.1l-0.1,0
		l0.1,0.1l0,0c0,0,0.3,0.3,0.1,0.4l-0.1,0l0,0.1l0.1,0c0.2,0.2,1.9,1.6,2,1.8c0,0,0,0.1,0,0.1l-0.1,0.1L318.7,1z"/>
	<path class="st0" d="M73.9,3.3V3.2c0,0,0.1-0.1,0.1-0.1c0.3,0,2.5,0.2,2.7,0.2l0.1,0.1l0-0.1l-0.1,0c-0.1-0.2,0.3-0.2,0.3-0.2
		l0,0.1h0.1V3.1c0,0,0.4,0,0.3,0.2l-0.1,0l0,0.1l0.1-0.1c0.3,0,2.5-0.2,2.7-0.2c0,0,0.1,0,0.1,0.1v0.2H73.9z"/>
	<path class="st0" d="M77.2,6.4h-0.2c0,0-0.1-0.1-0.1-0.1c0-0.3,0.2-2.5,0.2-2.7l0.1-0.1l-0.1,0l0,0.1c-0.2,0.1-0.2-0.4-0.2-0.4
		l0.1,0V3.2h-0.1c0,0,0-0.4,0.2-0.3l0,0.1l0.1,0l-0.1-0.1c0-0.3-0.2-2.5-0.2-2.7c0,0,0-0.1,0.1-0.1h0.2V6.4z"/>
	<path class="st0" d="M74.9,5.6l-0.1-0.1c0,0,0-0.1,0-0.1c0.2-0.2,1.9-1.6,2-1.8l0.1,0l0-0.1l-0.1,0C76.6,3.4,77,3.1,77,3.1l0,0.1
		l0.1-0.1l0,0c0,0,0.3-0.3,0.4-0.1l0,0.1l0.1,0l0-0.1c0.2-0.2,1.6-1.9,1.8-2c0,0,0.1,0,0.1,0L79.4,1L74.9,5.6z"/>
	<path class="st0" d="M74.8,1l0.1-0.1c0,0,0.1,0,0.1,0c0.2,0.2,1.6,1.9,1.8,2l0,0.1l0.1,0l0-0.1C76.9,2.7,77.2,3,77.2,3l-0.1,0
		l0.1,0.1l0,0c0,0,0.3,0.3,0.1,0.4l-0.1,0l0,0.1l0.1,0c0.2,0.2,1.9,1.6,2,1.8c0,0,0,0.1,0,0.1l-0.1,0.1L74.8,1z"/>
	<path class="st0" d="M325.1,3.3V3.2c0,0,0.1-0.1,0.1-0.1c0.3,0,2.5,0.2,2.7,0.2l0.1,0.1l0-0.1l-0.1,0c-0.1-0.2,0.3-0.2,0.3-0.2
		l0,0.1h0.1V3.1c0,0,0.4,0,0.3,0.2l-0.1,0l0,0.1l0.1-0.1c0.3,0,2.5-0.2,2.7-0.2c0,0,0.1,0,0.1,0.1v0.2H325.1z"/>
	<path class="st0" d="M328.5,6.4h-0.2c0,0-0.1-0.1-0.1-0.1c0-0.3,0.2-2.5,0.2-2.7l0.1-0.1l-0.1,0l0,0.1c-0.2,0.1-0.2-0.4-0.2-0.4
		l0.1,0V3.2h-0.1c0,0,0-0.4,0.2-0.3l0,0.1l0.1,0l-0.1-0.1c0-0.3-0.2-2.5-0.2-2.7c0,0,0-0.1,0.1-0.1h0.2V6.4z"/>
	<path class="st0" d="M326.2,5.6l-0.1-0.1c0,0,0-0.1,0-0.1c0.2-0.2,1.9-1.6,2-1.8l0.1,0l0-0.1l-0.1,0c-0.2-0.1,0.1-0.4,0.1-0.4
		l0,0.1l0.1-0.1l0,0c0,0,0.3-0.3,0.4-0.1l0,0.1l0.1,0l0-0.1c0.2-0.2,1.6-1.9,1.8-2c0,0,0.1,0,0.1,0l0.1,0.1L326.2,5.6z"/>
	<path class="st0" d="M326.1,1l0.1-0.1c0,0,0.1,0,0.1,0c0.2,0.2,1.6,1.9,1.8,2l0,0.1l0.1,0l0-0.1c0.1-0.2,0.4,0.1,0.4,0.1l-0.1,0
		l0.1,0.1l0,0c0,0,0.3,0.3,0.1,0.4l-0.1,0l0,0.1l0.1,0c0.2,0.2,1.9,1.6,2,1.8c0,0,0,0.1,0,0.1l-0.1,0.1L326.1,1z"/>
	<path class="st0" d="M81.3,3.3V3.2c0,0,0.1-0.1,0.1-0.1c0.3,0,2.5,0.2,2.7,0.2l0.1,0.1l0-0.1l-0.1,0c-0.1-0.2,0.3-0.2,0.3-0.2
		l0,0.1h0.1V3.1c0,0,0.4,0,0.3,0.2l-0.1,0l0,0.1l0.1-0.1c0.3,0,2.5-0.2,2.7-0.2c0,0,0.1,0,0.1,0.1v0.2H81.3z"/>
	<path class="st0" d="M84.6,6.4h-0.2c0,0-0.1-0.1-0.1-0.1c0-0.3,0.2-2.5,0.2-2.7l0.1-0.1l-0.1,0l0,0.1c-0.2,0.1-0.2-0.4-0.2-0.4
		l0.1,0V3.2h-0.1c0,0,0-0.4,0.2-0.3l0,0.1l0.1,0l-0.1-0.1c0-0.3-0.2-2.5-0.2-2.7c0,0,0-0.1,0.1-0.1h0.2V6.4z"/>
	<path class="st0" d="M82.3,5.6l-0.1-0.1c0,0,0-0.1,0-0.1c0.2-0.2,1.9-1.6,2-1.8l0.1,0l0-0.1l-0.1,0c-0.2-0.1,0.1-0.4,0.1-0.4l0,0.1
		l0.1-0.1l0,0c0,0,0.3-0.3,0.4-0.1l0,0.1l0.1,0l0-0.1c0.2-0.2,1.6-1.9,1.8-2c0,0,0.1,0,0.1,0L86.8,1L82.3,5.6z"/>
	<path class="st0" d="M82.2,1l0.1-0.1c0,0,0.1,0,0.1,0c0.2,0.2,1.6,1.9,1.8,2l0,0.1l0.1,0l0-0.1C84.3,2.7,84.6,3,84.6,3l-0.1,0
		l0.1,0.1l0,0c0,0,0.3,0.3,0.1,0.4l-0.1,0l0,0.1l0.1,0c0.2,0.2,1.9,1.6,2,1.8c0,0,0,0.1,0,0.1l-0.1,0.1L82.2,1z"/>
	<path class="st0" d="M332.5,3.3V3.2c0,0,0.1-0.1,0.1-0.1c0.3,0,2.5,0.2,2.7,0.2l0.1,0.1l0-0.1l-0.1,0c-0.1-0.2,0.3-0.2,0.3-0.2
		l0,0.1h0.1V3.1c0,0,0.4,0,0.3,0.2l-0.1,0l0,0.1l0.1-0.1c0.3,0,2.5-0.2,2.7-0.2c0,0,0.1,0,0.1,0.1v0.2H332.5z"/>
	<path class="st0" d="M335.9,6.4h-0.2c0,0-0.1-0.1-0.1-0.1c0-0.3,0.2-2.5,0.2-2.7l0.1-0.1l-0.1,0l0,0.1c-0.2,0.1-0.2-0.4-0.2-0.4
		l0.1,0V3.2h-0.1c0,0,0-0.4,0.2-0.3l0,0.1l0.1,0l-0.1-0.1c0-0.3-0.2-2.5-0.2-2.7c0,0,0-0.1,0.1-0.1h0.2V6.4z"/>
	<path class="st0" d="M333.6,5.6l-0.1-0.1c0,0,0-0.1,0-0.1c0.2-0.2,1.9-1.6,2-1.8l0.1,0l0-0.1l-0.1,0c-0.2-0.1,0.1-0.4,0.1-0.4
		l0,0.1l0.1-0.1l0,0c0,0,0.3-0.3,0.4-0.1l0,0.1l0.1,0l0-0.1c0.2-0.2,1.6-1.9,1.8-2c0,0,0.1,0,0.1,0l0.1,0.1L333.6,5.6z"/>
	<path class="st0" d="M333.5,1l0.1-0.1c0,0,0.1,0,0.1,0c0.2,0.2,1.6,1.9,1.8,2l0,0.1l0.1,0l0-0.1c0.1-0.2,0.4,0.1,0.4,0.1l-0.1,0
		l0.1,0.1l0,0c0,0,0.3,0.3,0.1,0.4l-0.1,0l0,0.1l0.1,0c0.2,0.2,1.9,1.6,2,1.8c0,0,0,0.1,0,0.1L338,5.5L333.5,1z"/>
	<path class="st0" d="M88.7,3.3V3.2c0,0,0.1-0.1,0.1-0.1c0.3,0,2.5,0.2,2.7,0.2l0.1,0.1l0-0.1l-0.1,0c-0.1-0.2,0.3-0.2,0.3-0.2
		l0,0.1h0.1V3.1c0,0,0.4,0,0.3,0.2l-0.1,0l0,0.1l0.1-0.1c0.3,0,2.5-0.2,2.7-0.2c0,0,0.1,0,0.1,0.1v0.2H88.7z"/>
	<path class="st0" d="M92,6.4h-0.2c0,0-0.1-0.1-0.1-0.1c0-0.3,0.2-2.5,0.2-2.7L92,3.5l-0.1,0l0,0.1c-0.2,0.1-0.2-0.4-0.2-0.4l0.1,0
		V3.2h-0.1c0,0,0-0.4,0.2-0.3l0,0.1l0.1,0l-0.1-0.1c0-0.3-0.2-2.5-0.2-2.7c0,0,0-0.1,0.1-0.1H92V6.4z"/>
	<path class="st0" d="M89.7,5.6l-0.1-0.1c0,0,0-0.1,0-0.1c0.2-0.2,1.9-1.6,2-1.8l0.1,0l0-0.1l-0.1,0c-0.2-0.1,0.1-0.4,0.1-0.4l0,0.1
		l0.1-0.1l0,0c0,0,0.3-0.3,0.4-0.1l0,0.1l0.1,0l0-0.1c0.2-0.2,1.6-1.9,1.8-2c0,0,0.1,0,0.1,0L94.2,1L89.7,5.6z"/>
	<path class="st0" d="M89.6,1l0.1-0.1c0,0,0.1,0,0.1,0c0.2,0.2,1.6,1.9,1.8,2l0,0.1l0.1,0l0-0.1C91.7,2.7,92,3,92,3L92,3L92,3.1l0,0
		c0,0,0.3,0.3,0.1,0.4l-0.1,0l0,0.1l0.1,0c0.2,0.2,1.9,1.6,2,1.8c0,0,0,0.1,0,0.1l-0.1,0.1L89.6,1z"/>
	<path class="st0" d="M339.9,3.3V3.2c0,0,0.1-0.1,0.1-0.1c0.3,0,2.5,0.2,2.7,0.2l0.1,0.1l0-0.1l-0.1,0c-0.1-0.2,0.3-0.2,0.3-0.2
		l0,0.1h0.1V3.1c0,0,0.4,0,0.3,0.2l-0.1,0l0,0.1l0.1-0.1c0.3,0,2.5-0.2,2.7-0.2c0,0,0.1,0,0.1,0.1v0.2H339.9z"/>
	<path class="st0" d="M343.3,6.4h-0.2c0,0-0.1-0.1-0.1-0.1c0-0.3,0.2-2.5,0.2-2.7l0.1-0.1l-0.1,0l0,0.1C343,3.7,343,3.2,343,3.2
		l0.1,0V3.2H343c0,0,0-0.4,0.2-0.3l0,0.1l0.1,0l-0.1-0.1c0-0.3-0.2-2.5-0.2-2.7c0,0,0-0.1,0.1-0.1h0.2V6.4z"/>
	<path class="st0" d="M341,5.6l-0.1-0.1c0,0,0-0.1,0-0.1c0.2-0.2,1.9-1.6,2-1.8l0.1,0l0-0.1l-0.1,0c-0.2-0.1,0.1-0.4,0.1-0.4l0,0.1
		l0.1-0.1l0,0c0,0,0.3-0.3,0.4-0.1l0,0.1l0.1,0l0-0.1c0.2-0.2,1.6-1.9,1.8-2c0,0,0.1,0,0.1,0l0.1,0.1L341,5.6z"/>
	<path class="st0" d="M340.8,1l0.1-0.1c0,0,0.1,0,0.1,0c0.2,0.2,1.6,1.9,1.8,2l0,0.1l0.1,0l0-0.1c0.1-0.2,0.4,0.1,0.4,0.1l-0.1,0
		l0.1,0.1l0,0c0,0,0.3,0.3,0.1,0.4l-0.1,0l0,0.1l0.1,0c0.2,0.2,1.9,1.6,2,1.8c0,0,0,0.1,0,0.1l-0.1,0.1L340.8,1z"/>
	<path class="st0" d="M96.1,3.3V3.2c0,0,0.1-0.1,0.1-0.1c0.3,0,2.5,0.2,2.7,0.2l0.1,0.1l0-0.1l-0.1,0c-0.1-0.2,0.3-0.2,0.3-0.2
		l0,0.1h0.1V3.1c0,0,0.4,0,0.3,0.2l-0.1,0l0,0.1l0.1-0.1c0.3,0,2.5-0.2,2.7-0.2c0,0,0.1,0,0.1,0.1v0.2H96.1z"/>
	<path class="st0" d="M99.4,6.4h-0.2c0,0-0.1-0.1-0.1-0.1c0-0.3,0.2-2.5,0.2-2.7l0.1-0.1l-0.1,0l0,0.1c-0.2,0.1-0.2-0.4-0.2-0.4
		l0.1,0V3.2h-0.1c0,0,0-0.4,0.2-0.3l0,0.1l0.1,0l-0.1-0.1c0-0.3-0.2-2.5-0.2-2.7c0,0,0-0.1,0.1-0.1h0.2V6.4z"/>
	<path class="st0" d="M97.1,5.6L97,5.4c0,0,0-0.1,0-0.1c0.2-0.2,1.9-1.6,2-1.8l0.1,0l0-0.1l-0.1,0c-0.2-0.1,0.1-0.4,0.1-0.4l0,0.1
		l0.1-0.1l0,0c0,0,0.3-0.3,0.4-0.1l0,0.1l0.1,0l0-0.1c0.2-0.2,1.6-1.9,1.8-2c0,0,0.1,0,0.1,0l0.1,0.1L97.1,5.6z"/>
	<path class="st0" d="M97,1l0.1-0.1c0,0,0.1,0,0.1,0c0.2,0.2,1.6,1.9,1.8,2L99,3l0.1,0l0-0.1C99.1,2.7,99.4,3,99.4,3l-0.1,0l0.1,0.1
		l0,0c0,0,0.3,0.3,0.1,0.4l-0.1,0l0,0.1l0.1,0c0.2,0.2,1.9,1.6,2,1.8c0,0,0,0.1,0,0.1l-0.1,0.1L97,1z"/>
	<path class="st0" d="M347.3,3.3V3.2c0,0,0.1-0.1,0.1-0.1c0.3,0,2.5,0.2,2.7,0.2l0.1,0.1l0-0.1l-0.1,0c-0.1-0.2,0.3-0.2,0.3-0.2
		l0,0.1h0.1V3.1c0,0,0.4,0,0.3,0.2l-0.1,0l0,0.1l0.1-0.1c0.3,0,2.5-0.2,2.7-0.2c0,0,0.1,0,0.1,0.1v0.2H347.3z"/>
	<path class="st0" d="M350.7,6.4h-0.2c0,0-0.1-0.1-0.1-0.1c0-0.3,0.2-2.5,0.2-2.7l0.1-0.1l-0.1,0l0,0.1c-0.2,0.1-0.2-0.4-0.2-0.4
		l0.1,0V3.2h-0.1c0,0,0-0.4,0.2-0.3l0,0.1l0.1,0l-0.1-0.1c0-0.3-0.2-2.5-0.2-2.7c0,0,0-0.1,0.1-0.1h0.2V6.4z"/>
	<path class="st0" d="M348.4,5.6l-0.1-0.1c0,0,0-0.1,0-0.1c0.2-0.2,1.9-1.6,2-1.8l0.1,0l0-0.1l-0.1,0c-0.2-0.1,0.1-0.4,0.1-0.4
		l0,0.1l0.1-0.1l0,0c0,0,0.3-0.3,0.4-0.1l0,0.1l0.1,0l0-0.1c0.2-0.2,1.6-1.9,1.8-2c0,0,0.1,0,0.1,0l0.1,0.1L348.4,5.6z"/>
	<path class="st0" d="M348.2,1l0.1-0.1c0,0,0.1,0,0.1,0c0.2,0.2,1.6,1.9,1.8,2l0,0.1l0.1,0l0-0.1c0.1-0.2,0.4,0.1,0.4,0.1l-0.1,0
		l0.1,0.1l0,0c0,0,0.3,0.3,0.1,0.4l-0.1,0l0,0.1l0.1,0c0.2,0.2,1.9,1.6,2,1.8c0,0,0,0.1,0,0.1l-0.1,0.1L348.2,1z"/>
	<path class="st0" d="M103.4,3.3V3.2c0,0,0.1-0.1,0.1-0.1c0.3,0,2.5,0.2,2.7,0.2l0.1,0.1l0-0.1l-0.1,0c-0.1-0.2,0.3-0.2,0.3-0.2
		l0,0.1h0.1V3.1c0,0,0.4,0,0.3,0.2l-0.1,0l0,0.1l0.1-0.1c0.3,0,2.5-0.2,2.7-0.2c0,0,0.1,0,0.1,0.1v0.2H103.4z"/>
	<path class="st0" d="M106.8,6.4h-0.2c0,0-0.1-0.1-0.1-0.1c0-0.3,0.2-2.5,0.2-2.7l0.1-0.1l-0.1,0l0,0.1c-0.2,0.1-0.2-0.4-0.2-0.4
		l0.1,0V3.2h-0.1c0,0,0-0.4,0.2-0.3l0,0.1l0.1,0l-0.1-0.1c0-0.3-0.2-2.5-0.2-2.7c0,0,0-0.1,0.1-0.1h0.2V6.4z"/>
	<path class="st0" d="M104.5,5.6l-0.1-0.1c0,0,0-0.1,0-0.1c0.2-0.2,1.9-1.6,2-1.8l0.1,0l0-0.1l-0.1,0c-0.2-0.1,0.1-0.4,0.1-0.4
		l0,0.1l0.1-0.1l0,0c0,0,0.3-0.3,0.4-0.1l0,0.1l0.1,0l0-0.1c0.2-0.2,1.6-1.9,1.8-2c0,0,0.1,0,0.1,0L109,1L104.5,5.6z"/>
	<path class="st0" d="M104.4,1l0.1-0.1c0,0,0.1,0,0.1,0c0.2,0.2,1.6,1.9,1.8,2l0,0.1l0.1,0l0-0.1c0.1-0.2,0.4,0.1,0.4,0.1l-0.1,0
		l0.1,0.1l0,0c0,0,0.3,0.3,0.1,0.4l-0.1,0l0,0.1l0.1,0c0.2,0.2,1.9,1.6,2,1.8c0,0,0,0.1,0,0.1l-0.1,0.1L104.4,1z"/>
	<path class="st0" d="M354.7,3.3V3.2c0,0,0.1-0.1,0.1-0.1c0.3,0,2.5,0.2,2.7,0.2l0.1,0.1l0-0.1l-0.1,0c-0.1-0.2,0.3-0.2,0.3-0.2
		l0,0.1h0.1V3.1c0,0,0.4,0,0.3,0.2l-0.1,0l0,0.1l0.1-0.1c0.3,0,2.5-0.2,2.7-0.2c0,0,0.1,0,0.1,0.1v0.2H354.7z"/>
	<path class="st0" d="M358,6.4h-0.2c0,0-0.1-0.1-0.1-0.1c0-0.3,0.2-2.5,0.2-2.7l0.1-0.1l-0.1,0l0,0.1c-0.2,0.1-0.2-0.4-0.2-0.4
		l0.1,0V3.2h-0.1c0,0,0-0.4,0.2-0.3l0,0.1l0.1,0L358,2.8c0-0.3-0.2-2.5-0.2-2.7c0,0,0-0.1,0.1-0.1h0.2V6.4z"/>
	<path class="st0" d="M355.7,5.6l-0.1-0.1c0,0,0-0.1,0-0.1c0.2-0.2,1.9-1.6,2-1.8l0.1,0l0-0.1l-0.1,0c-0.2-0.1,0.1-0.4,0.1-0.4
		l0,0.1l0.1-0.1l0,0c0,0,0.3-0.3,0.4-0.1l0,0.1l0.1,0l0-0.1c0.2-0.2,1.6-1.9,1.8-2c0,0,0.1,0,0.1,0l0.1,0.1L355.7,5.6z"/>
	<path class="st0" d="M355.6,1l0.1-0.1c0,0,0.1,0,0.1,0c0.2,0.2,1.6,1.9,1.8,2l0,0.1l0.1,0l0-0.1c0.1-0.2,0.4,0.1,0.4,0.1L358,3
		l0.1,0.1l0,0c0,0,0.3,0.3,0.1,0.4l-0.1,0l0,0.1l0.1,0c0.2,0.2,1.9,1.6,2,1.8c0,0,0,0.1,0,0.1l-0.1,0.1L355.6,1z"/>
	<path class="st0" d="M110.8,3.3V3.2c0,0,0.1-0.1,0.1-0.1c0.3,0,2.5,0.2,2.7,0.2l0.1,0.1l0-0.1l-0.1,0c-0.1-0.2,0.3-0.2,0.3-0.2
		l0,0.1h0.1V3.1c0,0,0.4,0,0.3,0.2l-0.1,0l0,0.1l0.1-0.1c0.3,0,2.5-0.2,2.7-0.2c0,0,0.1,0,0.1,0.1v0.2H110.8z"/>
	<path class="st0" d="M114.2,6.4H114c0,0-0.1-0.1-0.1-0.1c0-0.3,0.2-2.5,0.2-2.7l0.1-0.1l-0.1,0l0,0.1c-0.2,0.1-0.2-0.4-0.2-0.4
		l0.1,0V3.2h-0.1c0,0,0-0.4,0.2-0.3l0,0.1l0.1,0l-0.1-0.1c0-0.3-0.2-2.5-0.2-2.7c0,0,0-0.1,0.1-0.1h0.2V6.4z"/>
	<path class="st0" d="M111.9,5.6l-0.1-0.1c0,0,0-0.1,0-0.1c0.2-0.2,1.9-1.6,2-1.8l0.1,0l0-0.1l-0.1,0c-0.2-0.1,0.1-0.4,0.1-0.4
		l0,0.1l0.1-0.1l0,0c0,0,0.3-0.3,0.4-0.1l0,0.1l0.1,0l0-0.1c0.2-0.2,1.6-1.9,1.8-2c0,0,0.1,0,0.1,0l0.1,0.1L111.9,5.6z"/>
	<path class="st0" d="M111.7,1l0.1-0.1c0,0,0.1,0,0.1,0c0.2,0.2,1.6,1.9,1.8,2l0,0.1l0.1,0l0-0.1c0.1-0.2,0.4,0.1,0.4,0.1l-0.1,0
		l0.1,0.1l0,0c0,0,0.3,0.3,0.1,0.4l-0.1,0l0,0.1l0.1,0c0.2,0.2,1.9,1.6,2,1.8c0,0,0,0.1,0,0.1l-0.1,0.1L111.7,1z"/>
	<path class="st0" d="M362.1,3.3V3.2c0,0,0.1-0.1,0.1-0.1c0.3,0,2.5,0.2,2.7,0.2l0.1,0.1l0-0.1l-0.1,0c-0.1-0.2,0.3-0.2,0.3-0.2
		l0,0.1h0.1V3.1c0,0,0.4,0,0.3,0.2l-0.1,0l0,0.1l0.1-0.1c0.3,0,2.5-0.2,2.7-0.2c0,0,0.1,0,0.1,0.1v0.2H362.1z"/>
	<path class="st0" d="M365.4,6.4h-0.2c0,0-0.1-0.1-0.1-0.1c0-0.3,0.2-2.5,0.2-2.7l0.1-0.1l-0.1,0l0,0.1c-0.2,0.1-0.2-0.4-0.2-0.4
		l0.1,0V3.2h-0.1c0,0,0-0.4,0.2-0.3l0,0.1l0.1,0l-0.1-0.1c0-0.3-0.2-2.5-0.2-2.7c0,0,0-0.1,0.1-0.1h0.2V6.4z"/>
	<path class="st0" d="M363.1,5.6L363,5.4c0,0,0-0.1,0-0.1c0.2-0.2,1.9-1.6,2-1.8l0.1,0l0-0.1l-0.1,0c-0.2-0.1,0.1-0.4,0.1-0.4l0,0.1
		l0.1-0.1l0,0c0,0,0.3-0.3,0.4-0.1l0,0.1l0.1,0l0-0.1c0.2-0.2,1.6-1.9,1.8-2c0,0,0.1,0,0.1,0l0.1,0.1L363.1,5.6z"/>
	<path class="st0" d="M363,1l0.1-0.1c0,0,0.1,0,0.1,0c0.2,0.2,1.6,1.9,1.8,2l0,0.1l0.1,0l0-0.1c0.1-0.2,0.4,0.1,0.4,0.1l-0.1,0
		l0.1,0.1l0,0c0,0,0.3,0.3,0.1,0.4l-0.1,0l0,0.1l0.1,0c0.2,0.2,1.9,1.6,2,1.8c0,0,0,0.1,0,0.1l-0.1,0.1L363,1z"/>
	<path class="st0" d="M118.2,3.3V3.2c0,0,0.1-0.1,0.1-0.1c0.3,0,2.5,0.2,2.7,0.2l0.1,0.1l0-0.1l-0.1,0c-0.1-0.2,0.3-0.2,0.3-0.2
		l0,0.1h0.1V3.1c0,0,0.4,0,0.3,0.2l-0.1,0l0,0.1l0.1-0.1c0.3,0,2.5-0.2,2.7-0.2c0,0,0.1,0,0.1,0.1v0.2H118.2z"/>
	<path class="st0" d="M121.6,6.4h-0.2c0,0-0.1-0.1-0.1-0.1c0-0.3,0.2-2.5,0.2-2.7l0.1-0.1l-0.1,0l0,0.1c-0.2,0.1-0.2-0.4-0.2-0.4
		l0.1,0V3.2h-0.1c0,0,0-0.4,0.2-0.3l0,0.1l0.1,0l-0.1-0.1c0-0.3-0.2-2.5-0.2-2.7c0,0,0-0.1,0.1-0.1h0.2V6.4z"/>
	<path class="st0" d="M119.3,5.6l-0.1-0.1c0,0,0-0.1,0-0.1c0.2-0.2,1.9-1.6,2-1.8l0.1,0l0-0.1l-0.1,0c-0.2-0.1,0.1-0.4,0.1-0.4
		l0,0.1l0.1-0.1l0,0c0,0,0.3-0.3,0.4-0.1l0,0.1l0.1,0l0-0.1c0.2-0.2,1.6-1.9,1.8-2c0,0,0.1,0,0.1,0l0.1,0.1L119.3,5.6z"/>
	<path class="st0" d="M119.1,1l0.1-0.1c0,0,0.1,0,0.1,0c0.2,0.2,1.6,1.9,1.8,2l0,0.1l0.1,0l0-0.1c0.1-0.2,0.4,0.1,0.4,0.1l-0.1,0
		l0.1,0.1l0,0c0,0,0.3,0.3,0.1,0.4l-0.1,0l0,0.1l0.1,0c0.2,0.2,1.9,1.6,2,1.8c0,0,0,0.1,0,0.1l-0.1,0.1L119.1,1z"/>
	<path class="st0" d="M369.5,3.3V3.2c0,0,0.1-0.1,0.1-0.1c0.3,0,2.5,0.2,2.7,0.2l0.1,0.1l0-0.1l-0.1,0c-0.1-0.2,0.3-0.2,0.3-0.2
		l0,0.1h0.1V3.1c0,0,0.4,0,0.3,0.2l-0.1,0l0,0.1l0.1-0.1c0.3,0,2.5-0.2,2.7-0.2c0,0,0.1,0,0.1,0.1v0.2H369.5z"/>
	<path class="st0" d="M372.8,6.4h-0.2c0,0-0.1-0.1-0.1-0.1c0-0.3,0.2-2.5,0.2-2.7l0.1-0.1l-0.1,0l0,0.1c-0.2,0.1-0.2-0.4-0.2-0.4
		l0.1,0V3.2h-0.1c0,0,0-0.4,0.2-0.3l0,0.1l0.1,0l-0.1-0.1c0-0.3-0.2-2.5-0.2-2.7c0,0,0-0.1,0.1-0.1h0.2V6.4z"/>
	<path class="st0" d="M370.5,5.6l-0.1-0.1c0,0,0-0.1,0-0.1c0.2-0.2,1.9-1.6,2-1.8l0.1,0l0-0.1l-0.1,0c-0.2-0.1,0.1-0.4,0.1-0.4
		l0,0.1l0.1-0.1l0,0c0,0,0.3-0.3,0.4-0.1l0,0.1l0.1,0l0-0.1c0.2-0.2,1.6-1.9,1.8-2c0,0,0.1,0,0.1,0L375,1L370.5,5.6z"/>
	<path class="st0" d="M370.4,1l0.1-0.1c0,0,0.1,0,0.1,0c0.2,0.2,1.6,1.9,1.8,2l0,0.1l0.1,0l0-0.1c0.1-0.2,0.4,0.1,0.4,0.1l-0.1,0
		l0.1,0.1l0,0c0,0,0.3,0.3,0.1,0.4l-0.1,0l0,0.1l0.1,0c0.2,0.2,1.9,1.6,2,1.8c0,0,0,0.1,0,0.1l-0.1,0.1L370.4,1z"/>
	<path class="st0" d="M125.6,3.3V3.2c0,0,0.1-0.1,0.1-0.1c0.3,0,2.5,0.2,2.7,0.2l0.1,0.1l0-0.1l-0.1,0c-0.1-0.2,0.3-0.2,0.3-0.2
		l0,0.1h0.1V3.1c0,0,0.4,0,0.3,0.2l-0.1,0l0,0.1l0.1-0.1c0.3,0,2.5-0.2,2.7-0.2c0,0,0.1,0,0.1,0.1v0.2H125.6z"/>
	<path class="st0" d="M129,6.4h-0.2c0,0-0.1-0.1-0.1-0.1c0-0.3,0.2-2.5,0.2-2.7l0.1-0.1l-0.1,0l0,0.1c-0.2,0.1-0.2-0.4-0.2-0.4
		l0.1,0V3.2h-0.1c0,0,0-0.4,0.2-0.3l0,0.1l0.1,0l-0.1-0.1c0-0.3-0.2-2.5-0.2-2.7c0,0,0-0.1,0.1-0.1h0.2V6.4z"/>
	<path class="st0" d="M126.6,5.6l-0.1-0.1c0,0,0-0.1,0-0.1c0.2-0.2,1.9-1.6,2-1.8l0.1,0l0-0.1l-0.1,0c-0.2-0.1,0.1-0.4,0.1-0.4
		l0,0.1l0.1-0.1l0,0c0,0,0.3-0.3,0.4-0.1l0,0.1l0.1,0l0-0.1c0.2-0.2,1.6-1.9,1.8-2c0,0,0.1,0,0.1,0l0.1,0.1L126.6,5.6z"/>
	<path class="st0" d="M126.5,1l0.1-0.1c0,0,0.1,0,0.1,0c0.2,0.2,1.6,1.9,1.8,2l0,0.1l0.1,0l0-0.1C128.7,2.7,129,3,129,3l-0.1,0
		l0.1,0.1l0,0c0,0,0.3,0.3,0.1,0.4l-0.1,0l0,0.1l0.1,0c0.2,0.2,1.9,1.6,2,1.8c0,0,0,0.1,0,0.1l-0.1,0.1L126.5,1z"/>
	<path class="st0" d="M376.9,3.3V3.2c0,0,0.1-0.1,0.1-0.1c0.3,0,2.5,0.2,2.7,0.2l0.1,0.1l0-0.1l-0.1,0c-0.1-0.2,0.3-0.2,0.3-0.2
		l0,0.1h0.1V3.1c0,0,0.4,0,0.3,0.2l-0.1,0l0,0.1l0.1-0.1c0.3,0,2.5-0.2,2.7-0.2c0,0,0.1,0,0.1,0.1v0.2H376.9z"/>
	<path class="st0" d="M380.2,6.4h-0.2c0,0-0.1-0.1-0.1-0.1c0-0.3,0.2-2.5,0.2-2.7l0.1-0.1l-0.1,0l0,0.1c-0.2,0.1-0.2-0.4-0.2-0.4
		l0.1,0V3.2h-0.1c0,0,0-0.4,0.2-0.3l0,0.1l0.1,0l-0.1-0.1c0-0.3-0.2-2.5-0.2-2.7c0,0,0-0.1,0.1-0.1h0.2V6.4z"/>
	<path class="st0" d="M377.9,5.6l-0.1-0.1c0,0,0-0.1,0-0.1c0.2-0.2,1.9-1.6,2-1.8l0.1,0l0-0.1l-0.1,0c-0.2-0.1,0.1-0.4,0.1-0.4
		l0,0.1l0.1-0.1l0,0c0,0,0.3-0.3,0.4-0.1l0,0.1l0.1,0l0-0.1c0.2-0.2,1.6-1.9,1.8-2c0,0,0.1,0,0.1,0l0.1,0.1L377.9,5.6z"/>
	<path class="st0" d="M377.8,1l0.1-0.1c0,0,0.1,0,0.1,0c0.2,0.2,1.6,1.9,1.8,2l0,0.1l0.1,0l0-0.1c0.1-0.2,0.4,0.1,0.4,0.1l-0.1,0
		l0.1,0.1l0,0c0,0,0.3,0.3,0.1,0.4l-0.1,0l0,0.1l0.1,0c0.2,0.2,1.9,1.6,2,1.8c0,0,0,0.1,0,0.1l-0.1,0.1L377.8,1z"/>
	<path class="st0" d="M133,3.3V3.2c0,0,0.1-0.1,0.1-0.1c0.3,0,2.5,0.2,2.7,0.2l0.1,0.1l0-0.1l-0.1,0c-0.1-0.2,0.3-0.2,0.3-0.2l0,0.1
		h0.1V3.1c0,0,0.4,0,0.3,0.2l-0.1,0l0,0.1l0.1-0.1c0.3,0,2.5-0.2,2.7-0.2c0,0,0.1,0,0.1,0.1v0.2H133z"/>
	<path class="st0" d="M136.3,6.4h-0.2c0,0-0.1-0.1-0.1-0.1c0-0.3,0.2-2.5,0.2-2.7l0.1-0.1l-0.1,0l0,0.1c-0.2,0.1-0.2-0.4-0.2-0.4
		l0.1,0V3.2h-0.1c0,0,0-0.4,0.2-0.3l0,0.1l0.1,0l-0.1-0.1c0-0.3-0.2-2.5-0.2-2.7c0,0,0-0.1,0.1-0.1h0.2V6.4z"/>
	<path class="st0" d="M134,5.6l-0.1-0.1c0,0,0-0.1,0-0.1c0.2-0.2,1.9-1.6,2-1.8l0.1,0l0-0.1l-0.1,0c-0.2-0.1,0.1-0.4,0.1-0.4l0,0.1
		l0.1-0.1l0,0c0,0,0.3-0.3,0.4-0.1l0,0.1l0.1,0l0-0.1c0.2-0.2,1.6-1.9,1.8-2c0,0,0.1,0,0.1,0l0.1,0.1L134,5.6z"/>
	<path class="st0" d="M133.9,1l0.1-0.1c0,0,0.1,0,0.1,0c0.2,0.2,1.6,1.9,1.8,2l0,0.1l0.1,0l0-0.1c0.1-0.2,0.4,0.1,0.4,0.1l-0.1,0
		l0.1,0.1l0,0c0,0,0.3,0.3,0.1,0.4l-0.1,0l0,0.1l0.1,0c0.2,0.2,1.9,1.6,2,1.8c0,0,0,0.1,0,0.1l-0.1,0.1L133.9,1z"/>
	<path class="st0" d="M384.3,3.3V3.2c0,0,0.1-0.1,0.1-0.1c0.3,0,2.5,0.2,2.7,0.2l0.1,0.1l0-0.1l-0.1,0c-0.1-0.2,0.3-0.2,0.3-0.2
		l0,0.1h0.1V3.1c0,0,0.4,0,0.3,0.2l-0.1,0l0,0.1l0.1-0.1c0.3,0,2.5-0.2,2.7-0.2c0,0,0.1,0,0.1,0.1v0.2H384.3z"/>
	<path class="st0" d="M387.6,6.4h-0.2c0,0-0.1-0.1-0.1-0.1c0-0.3,0.2-2.5,0.2-2.7l0.1-0.1l-0.1,0l0,0.1c-0.2,0.1-0.2-0.4-0.2-0.4
		l0.1,0V3.2h-0.1c0,0,0-0.4,0.2-0.3l0,0.1l0.1,0l-0.1-0.1c0-0.3-0.2-2.5-0.2-2.7c0,0,0-0.1,0.1-0.1h0.2V6.4z"/>
	<path class="st0" d="M385.3,5.6l-0.1-0.1c0,0,0-0.1,0-0.1c0.2-0.2,1.9-1.6,2-1.8l0.1,0l0-0.1l-0.1,0c-0.2-0.1,0.1-0.4,0.1-0.4
		l0,0.1l0.1-0.1l0,0c0,0,0.3-0.3,0.4-0.1l0,0.1l0.1,0l0-0.1c0.2-0.2,1.6-1.9,1.8-2c0,0,0.1,0,0.1,0l0.1,0.1L385.3,5.6z"/>
	<path class="st0" d="M385.2,1l0.1-0.1c0,0,0.1,0,0.1,0c0.2,0.2,1.6,1.9,1.8,2l0,0.1l0.1,0l0-0.1c0.1-0.2,0.4,0.1,0.4,0.1l-0.1,0
		l0.1,0.1l0,0c0,0,0.3,0.3,0.1,0.4l-0.1,0l0,0.1l0.1,0c0.2,0.2,1.9,1.6,2,1.8c0,0,0,0.1,0,0.1l-0.1,0.1L385.2,1z"/>
	<path class="st0" d="M140.4,3.3V3.2c0,0,0.1-0.1,0.1-0.1c0.3,0,2.5,0.2,2.7,0.2l0.1,0.1l0-0.1l-0.1,0c-0.1-0.2,0.3-0.2,0.3-0.2
		l0,0.1h0.1V3.1c0,0,0.4,0,0.3,0.2l-0.1,0l0,0.1l0.1-0.1c0.3,0,2.5-0.2,2.7-0.2c0,0,0.1,0,0.1,0.1v0.2H140.4z"/>
	<path class="st0" d="M143.7,6.4h-0.2c0,0-0.1-0.1-0.1-0.1c0-0.3,0.2-2.5,0.2-2.7l0.1-0.1l-0.1,0l0,0.1c-0.2,0.1-0.2-0.4-0.2-0.4
		l0.1,0V3.2h-0.1c0,0,0-0.4,0.2-0.3l0,0.1l0.1,0l-0.1-0.1c0-0.3-0.2-2.5-0.2-2.7c0,0,0-0.1,0.1-0.1h0.2V6.4z"/>
	<path class="st0" d="M141.4,5.6l-0.1-0.1c0,0,0-0.1,0-0.1c0.2-0.2,1.9-1.6,2-1.8l0.1,0l0-0.1l-0.1,0c-0.2-0.1,0.1-0.4,0.1-0.4
		l0,0.1l0.1-0.1l0,0c0,0,0.3-0.3,0.4-0.1l0,0.1l0.1,0l0-0.1c0.2-0.2,1.6-1.9,1.8-2c0,0,0.1,0,0.1,0L146,1L141.4,5.6z"/>
	<path class="st0" d="M141.3,1l0.1-0.1c0,0,0.1,0,0.1,0c0.2,0.2,1.6,1.9,1.8,2l0,0.1l0.1,0l0-0.1c0.1-0.2,0.4,0.1,0.4,0.1l-0.1,0
		l0.1,0.1l0,0c0,0,0.3,0.3,0.1,0.4l-0.1,0l0,0.1l0.1,0c0.2,0.2,1.9,1.6,2,1.8c0,0,0,0.1,0,0.1l-0.1,0.1L141.3,1z"/>
	<path class="st0" d="M391.7,3.3V3.2c0,0,0.1-0.1,0.1-0.1c0.3,0,2.5,0.2,2.7,0.2l0.1,0.1l0-0.1l-0.1,0c-0.1-0.2,0.3-0.2,0.3-0.2
		l0,0.1h0.1V3.1c0,0,0.4,0,0.3,0.2l-0.1,0l0,0.1l0.1-0.1c0.3,0,2.5-0.2,2.7-0.2c0,0,0.1,0,0.1,0.1v0.2H391.7z"/>
	<path class="st0" d="M395,6.4h-0.2c0,0-0.1-0.1-0.1-0.1c0-0.3,0.2-2.5,0.2-2.7l0.1-0.1l-0.1,0l0,0.1c-0.2,0.1-0.2-0.4-0.2-0.4
		l0.1,0V3.2h-0.1c0,0,0-0.4,0.2-0.3l0,0.1l0.1,0l-0.1-0.1c0-0.3-0.2-2.5-0.2-2.7c0,0,0-0.1,0.1-0.1h0.2V6.4z"/>
	<path class="st0" d="M392.7,5.6l-0.1-0.1c0,0,0-0.1,0-0.1c0.2-0.2,1.9-1.6,2-1.8l0.1,0l0-0.1l-0.1,0c-0.2-0.1,0.1-0.4,0.1-0.4
		l0,0.1l0.1-0.1l0,0c0,0,0.3-0.3,0.4-0.1l0,0.1l0.1,0l0-0.1c0.2-0.2,1.6-1.9,1.8-2c0,0,0.1,0,0.1,0l0.1,0.1L392.7,5.6z"/>
	<path class="st0" d="M392.6,1l0.1-0.1c0,0,0.1,0,0.1,0c0.2,0.2,1.6,1.9,1.8,2l0,0.1l0.1,0l0-0.1C394.7,2.7,395,3,395,3L395,3
		l0.1,0.1l0,0c0,0,0.3,0.3,0.1,0.4l-0.1,0l0,0.1l0.1,0c0.2,0.2,1.9,1.6,2,1.8c0,0,0,0.1,0,0.1l-0.1,0.1L392.6,1z"/>
	<path class="st0" d="M147.8,3.3V3.2c0,0,0.1-0.1,0.1-0.1c0.3,0,2.5,0.2,2.7,0.2l0.1,0.1l0-0.1l-0.1,0c-0.1-0.2,0.3-0.2,0.3-0.2
		l0,0.1h0.1V3.1c0,0,0.4,0,0.3,0.2l-0.1,0l0,0.1l0.1-0.1c0.3,0,2.5-0.2,2.7-0.2c0,0,0.1,0,0.1,0.1v0.2H147.8z"/>
	<path class="st0" d="M151.1,6.4H151c0,0-0.1-0.1-0.1-0.1c0-0.3,0.2-2.5,0.2-2.7l0.1-0.1l-0.1,0l0,0.1c-0.2,0.1-0.2-0.4-0.2-0.4
		l0.1,0V3.2h-0.1c0,0,0-0.4,0.2-0.3l0,0.1l0.1,0l-0.1-0.1c0-0.3-0.2-2.5-0.2-2.7c0,0,0-0.1,0.1-0.1h0.2V6.4z"/>
	<path class="st0" d="M148.8,5.6l-0.1-0.1c0,0,0-0.1,0-0.1c0.2-0.2,1.9-1.6,2-1.8l0.1,0l0-0.1l-0.1,0c-0.2-0.1,0.1-0.4,0.1-0.4
		l0,0.1l0.1-0.1l0,0c0,0,0.3-0.3,0.4-0.1l0,0.1l0.1,0l0-0.1c0.2-0.2,1.6-1.9,1.8-2c0,0,0.1,0,0.1,0l0.1,0.1L148.8,5.6z"/>
	<path class="st0" d="M148.7,1l0.1-0.1c0,0,0.1,0,0.1,0c0.2,0.2,1.6,1.9,1.8,2l0,0.1l0.1,0l0-0.1c0.1-0.2,0.4,0.1,0.4,0.1l-0.1,0
		l0.1,0.1l0,0c0,0,0.3,0.3,0.1,0.4l-0.1,0l0,0.1l0.1,0c0.2,0.2,1.9,1.6,2,1.8c0,0,0,0.1,0,0.1l-0.1,0.1L148.7,1z"/>
	<path class="st0" d="M399,3.3V3.2c0,0,0.1-0.1,0.1-0.1c0.3,0,2.5,0.2,2.7,0.2l0.1,0.1l0-0.1l-0.1,0c-0.1-0.2,0.3-0.2,0.3-0.2l0,0.1
		h0.1V3.1c0,0,0.4,0,0.3,0.2l-0.1,0l0,0.1l0.1-0.1c0.3,0,2.5-0.2,2.7-0.2c0,0,0.1,0,0.1,0.1v0.2H399z"/>
	<path class="st0" d="M402.4,6.4h-0.2c0,0-0.1-0.1-0.1-0.1c0-0.3,0.2-2.5,0.2-2.7l0.1-0.1l-0.1,0l0,0.1c-0.2,0.1-0.2-0.4-0.2-0.4
		l0.1,0V3.2h-0.1c0,0,0-0.4,0.2-0.3l0,0.1l0.1,0l-0.1-0.1c0-0.3-0.2-2.5-0.2-2.7c0,0,0-0.1,0.1-0.1h0.2V6.4z"/>
	<path class="st0" d="M400.1,5.6L400,5.4c0,0,0-0.1,0-0.1c0.2-0.2,1.9-1.6,2-1.8l0.1,0l0-0.1l-0.1,0c-0.2-0.1,0.1-0.4,0.1-0.4l0,0.1
		l0.1-0.1l0,0c0,0,0.3-0.3,0.4-0.1l0,0.1l0.1,0l0-0.1c0.2-0.2,1.6-1.9,1.8-2c0,0,0.1,0,0.1,0l0.1,0.1L400.1,5.6z"/>
	<path class="st0" d="M400,1l0.1-0.1c0,0,0.1,0,0.1,0c0.2,0.2,1.6,1.9,1.8,2l0,0.1l0.1,0l0-0.1c0.1-0.2,0.4,0.1,0.4,0.1l-0.1,0
		l0.1,0.1l0,0c0,0,0.3,0.3,0.1,0.4l-0.1,0l0,0.1l0.1,0c0.2,0.2,1.9,1.6,2,1.8c0,0,0,0.1,0,0.1l-0.1,0.1L400,1z"/>
	<path class="st0" d="M155.2,3.3V3.2c0,0,0.1-0.1,0.1-0.1c0.3,0,2.5,0.2,2.7,0.2l0.1,0.1l0-0.1l-0.1,0c-0.1-0.2,0.3-0.2,0.3-0.2
		l0,0.1h0.1V3.1c0,0,0.4,0,0.3,0.2l-0.1,0l0,0.1l0.1-0.1c0.3,0,2.5-0.2,2.7-0.2c0,0,0.1,0,0.1,0.1v0.2H155.2z"/>
	<path class="st0" d="M158.5,6.4h-0.2c0,0-0.1-0.1-0.1-0.1c0-0.3,0.2-2.5,0.2-2.7l0.1-0.1l-0.1,0l0,0.1c-0.2,0.1-0.2-0.4-0.2-0.4
		l0.1,0V3.2h-0.1c0,0,0-0.4,0.2-0.3l0,0.1l0.1,0l-0.1-0.1c0-0.3-0.2-2.5-0.2-2.7c0,0,0-0.1,0.1-0.1h0.2V6.4z"/>
	<path class="st0" d="M156.2,5.6l-0.1-0.1c0,0,0-0.1,0-0.1c0.2-0.2,1.9-1.6,2-1.8l0.1,0l0-0.1l-0.1,0c-0.2-0.1,0.1-0.4,0.1-0.4
		l0,0.1l0.1-0.1l0,0c0,0,0.3-0.3,0.4-0.1l0,0.1l0.1,0l0-0.1c0.2-0.2,1.6-1.9,1.8-2c0,0,0.1,0,0.1,0l0.1,0.1L156.2,5.6z"/>
	<path class="st0" d="M156.1,1l0.1-0.1c0,0,0.1,0,0.1,0c0.2,0.2,1.6,1.9,1.8,2l0,0.1l0.1,0l0-0.1c0.1-0.2,0.4,0.1,0.4,0.1l-0.1,0
		l0.1,0.1l0,0c0,0,0.3,0.3,0.1,0.4l-0.1,0l0,0.1l0.1,0c0.2,0.2,1.9,1.6,2,1.8c0,0,0,0.1,0,0.1l-0.1,0.1L156.1,1z"/>
	<path class="st0" d="M406.4,3.3V3.2c0,0,0.1-0.1,0.1-0.1c0.3,0,2.5,0.2,2.7,0.2l0.1,0.1l0-0.1l-0.1,0c-0.1-0.2,0.3-0.2,0.3-0.2
		l0,0.1h0.1V3.1c0,0,0.4,0,0.3,0.2l-0.1,0l0,0.1l0.1-0.1c0.3,0,2.5-0.2,2.7-0.2c0,0,0.1,0,0.1,0.1v0.2H406.4z"/>
	<path class="st0" d="M409.8,6.4h-0.2c0,0-0.1-0.1-0.1-0.1c0-0.3,0.2-2.5,0.2-2.7l0.1-0.1l-0.1,0l0,0.1c-0.2,0.1-0.2-0.4-0.2-0.4
		l0.1,0V3.2h-0.1c0,0,0-0.4,0.2-0.3l0,0.1l0.1,0l-0.1-0.1c0-0.3-0.2-2.5-0.2-2.7c0,0,0-0.1,0.1-0.1h0.2V6.4z"/>
	<path class="st0" d="M407.5,5.6l-0.1-0.1c0,0,0-0.1,0-0.1c0.2-0.2,1.9-1.6,2-1.8l0.1,0l0-0.1l-0.1,0c-0.2-0.1,0.1-0.4,0.1-0.4
		l0,0.1l0.1-0.1l0,0c0,0,0.3-0.3,0.4-0.1l0,0.1l0.1,0l0-0.1c0.2-0.2,1.6-1.9,1.8-2c0,0,0.1,0,0.1,0L412,1L407.5,5.6z"/>
	<path class="st0" d="M407.4,1l0.1-0.1c0,0,0.1,0,0.1,0c0.2,0.2,1.6,1.9,1.8,2l0,0.1l0.1,0l0-0.1c0.1-0.2,0.4,0.1,0.4,0.1l-0.1,0
		l0.1,0.1l0,0c0,0,0.3,0.3,0.1,0.4l-0.1,0l0,0.1l0.1,0c0.2,0.2,1.9,1.6,2,1.8c0,0,0,0.1,0,0.1l-0.1,0.1L407.4,1z"/>
	<path class="st0" d="M162.6,3.3V3.2c0,0,0.1-0.1,0.1-0.1c0.3,0,2.5,0.2,2.7,0.2l0.1,0.1l0-0.1l-0.1,0c-0.1-0.2,0.3-0.2,0.3-0.2
		l0,0.1h0.1V3.1c0,0,0.4,0,0.3,0.2l-0.1,0l0,0.1l0.1-0.1c0.3,0,2.5-0.2,2.7-0.2c0,0,0.1,0,0.1,0.1v0.2H162.6z"/>
	<path class="st0" d="M165.9,6.4h-0.2c0,0-0.1-0.1-0.1-0.1c0-0.3,0.2-2.5,0.2-2.7l0.1-0.1l-0.1,0l0,0.1c-0.2,0.1-0.2-0.4-0.2-0.4
		l0.1,0V3.2h-0.1c0,0,0-0.4,0.2-0.3l0,0.1l0.1,0l-0.1-0.1c0-0.3-0.2-2.5-0.2-2.7c0,0,0-0.1,0.1-0.1h0.2V6.4z"/>
	<path class="st0" d="M163.6,5.6l-0.1-0.1c0,0,0-0.1,0-0.1c0.2-0.2,1.9-1.6,2-1.8l0.1,0l0-0.1l-0.1,0c-0.2-0.1,0.1-0.4,0.1-0.4
		l0,0.1l0.1-0.1l0,0c0,0,0.3-0.3,0.4-0.1l0,0.1l0.1,0l0-0.1c0.2-0.2,1.6-1.9,1.8-2c0,0,0.1,0,0.1,0l0.1,0.1L163.6,5.6z"/>
	<path class="st0" d="M163.5,1l0.1-0.1c0,0,0.1,0,0.1,0c0.2,0.2,1.6,1.9,1.8,2l0,0.1l0.1,0l0-0.1c0.1-0.2,0.4,0.1,0.4,0.1l-0.1,0
		l0.1,0.1l0,0c0,0,0.3,0.3,0.1,0.4l-0.1,0l0,0.1l0.1,0c0.2,0.2,1.9,1.6,2,1.8c0,0,0,0.1,0,0.1L168,5.5L163.5,1z"/>
	<path class="st0" d="M413.8,3.3V3.2c0,0,0.1-0.1,0.1-0.1c0.3,0,2.5,0.2,2.7,0.2l0.1,0.1l0-0.1l-0.1,0c-0.1-0.2,0.3-0.2,0.3-0.2
		l0,0.1h0.1V3.1c0,0,0.4,0,0.3,0.2l-0.1,0l0,0.1l0.1-0.1c0.3,0,2.5-0.2,2.7-0.2c0,0,0.1,0,0.1,0.1v0.2H413.8z"/>
	<path class="st0" d="M417.2,6.4H417c0,0-0.1-0.1-0.1-0.1c0-0.3,0.2-2.5,0.2-2.7l0.1-0.1l-0.1,0l0,0.1c-0.2,0.1-0.2-0.4-0.2-0.4
		l0.1,0V3.2h-0.1c0,0,0-0.4,0.2-0.3l0,0.1l0.1,0l-0.1-0.1c0-0.3-0.2-2.5-0.2-2.7c0,0,0-0.1,0.1-0.1h0.2V6.4z"/>
	<path class="st0" d="M414.9,5.6l-0.1-0.1c0,0,0-0.1,0-0.1c0.2-0.2,1.9-1.6,2-1.8l0.1,0l0-0.1l-0.1,0c-0.2-0.1,0.1-0.4,0.1-0.4
		l0,0.1l0.1-0.1l0,0c0,0,0.3-0.3,0.4-0.1l0,0.1l0.1,0l0-0.1c0.2-0.2,1.6-1.9,1.8-2c0,0,0.1,0,0.1,0l0.1,0.1L414.9,5.6z"/>
	<path class="st0" d="M414.7,1l0.1-0.1c0,0,0.1,0,0.1,0c0.2,0.2,1.6,1.9,1.8,2l0,0.1l0.1,0l0-0.1c0.1-0.2,0.4,0.1,0.4,0.1l-0.1,0
		l0.1,0.1l0,0c0,0,0.3,0.3,0.1,0.4l-0.1,0l0,0.1l0.1,0c0.2,0.2,1.9,1.6,2,1.8c0,0,0,0.1,0,0.1l-0.1,0.1L414.7,1z"/>
	<path class="st0" d="M170,3.3V3.2c0,0,0.1-0.1,0.1-0.1c0.3,0,2.5,0.2,2.7,0.2l0.1,0.1l0-0.1l-0.1,0c-0.1-0.2,0.3-0.2,0.3-0.2l0,0.1
		h0.1V3.1c0,0,0.4,0,0.3,0.2l-0.1,0l0,0.1l0.1-0.1c0.3,0,2.5-0.2,2.7-0.2c0,0,0.1,0,0.1,0.1v0.2H170z"/>
	<path class="st0" d="M173.3,6.4h-0.2c0,0-0.1-0.1-0.1-0.1c0-0.3,0.2-2.5,0.2-2.7l0.1-0.1l-0.1,0l0,0.1C173,3.7,173,3.2,173,3.2
		l0.1,0V3.2H173c0,0,0-0.4,0.2-0.3l0,0.1l0.1,0l-0.1-0.1c0-0.3-0.2-2.5-0.2-2.7c0,0,0-0.1,0.1-0.1h0.2V6.4z"/>
	<path class="st0" d="M171,5.6l-0.1-0.1c0,0,0-0.1,0-0.1c0.2-0.2,1.9-1.6,2-1.8l0.1,0l0-0.1l-0.1,0c-0.2-0.1,0.1-0.4,0.1-0.4l0,0.1
		l0.1-0.1l0,0c0,0,0.3-0.3,0.4-0.1l0,0.1l0.1,0l0-0.1c0.2-0.2,1.6-1.9,1.8-2c0,0,0.1,0,0.1,0l0.1,0.1L171,5.6z"/>
	<path class="st0" d="M170.9,1l0.1-0.1c0,0,0.1,0,0.1,0c0.2,0.2,1.6,1.9,1.8,2l0,0.1l0.1,0l0-0.1c0.1-0.2,0.4,0.1,0.4,0.1l-0.1,0
		l0.1,0.1l0,0c0,0,0.3,0.3,0.1,0.4l-0.1,0l0,0.1l0.1,0c0.2,0.2,1.9,1.6,2,1.8c0,0,0,0.1,0,0.1l-0.1,0.1L170.9,1z"/>
	<path class="st0" d="M421.2,3.3V3.2c0,0,0.1-0.1,0.1-0.1c0.3,0,2.5,0.2,2.7,0.2l0.1,0.1l0-0.1l-0.1,0c-0.1-0.2,0.3-0.2,0.3-0.2
		l0,0.1h0.1V3.1c0,0,0.4,0,0.3,0.2l-0.1,0l0,0.1l0.1-0.1c0.3,0,2.5-0.2,2.7-0.2c0,0,0.1,0,0.1,0.1v0.2H421.2z"/>
	<path class="st0" d="M424.6,6.4h-0.2c0,0-0.1-0.1-0.1-0.1c0-0.3,0.2-2.5,0.2-2.7l0.1-0.1l-0.1,0l0,0.1c-0.2,0.1-0.2-0.4-0.2-0.4
		l0.1,0V3.2h-0.1c0,0,0-0.4,0.2-0.3l0,0.1l0.1,0l-0.1-0.1c0-0.3-0.2-2.5-0.2-2.7c0,0,0-0.1,0.1-0.1h0.2V6.4z"/>
	<path class="st0" d="M422.3,5.6l-0.1-0.1c0,0,0-0.1,0-0.1c0.2-0.2,1.9-1.6,2-1.8l0.1,0l0-0.1l-0.1,0c-0.2-0.1,0.1-0.4,0.1-0.4
		l0,0.1l0.1-0.1l0,0c0,0,0.3-0.3,0.4-0.1l0,0.1l0.1,0l0-0.1c0.2-0.2,1.6-1.9,1.8-2c0,0,0.1,0,0.1,0l0.1,0.1L422.3,5.6z"/>
	<path class="st0" d="M422.1,1l0.1-0.1c0,0,0.1,0,0.1,0c0.2,0.2,1.6,1.9,1.8,2l0,0.1l0.1,0l0-0.1c0.1-0.2,0.4,0.1,0.4,0.1l-0.1,0
		l0.1,0.1l0,0c0,0,0.3,0.3,0.1,0.4l-0.1,0l0,0.1l0.1,0c0.2,0.2,1.9,1.6,2,1.8c0,0,0,0.1,0,0.1l-0.1,0.1L422.1,1z"/>
	<path class="st0" d="M177.3,3.3V3.2c0,0,0.1-0.1,0.1-0.1c0.3,0,2.5,0.2,2.7,0.2l0.1,0.1l0-0.1l-0.1,0c-0.1-0.2,0.3-0.2,0.3-0.2
		l0,0.1h0.1V3.1c0,0,0.4,0,0.3,0.2l-0.1,0l0,0.1l0.1-0.1c0.3,0,2.5-0.2,2.7-0.2c0,0,0.1,0,0.1,0.1v0.2H177.3z"/>
	<path class="st0" d="M180.7,6.4h-0.2c0,0-0.1-0.1-0.1-0.1c0-0.3,0.2-2.5,0.2-2.7l0.1-0.1l-0.1,0l0,0.1c-0.2,0.1-0.2-0.4-0.2-0.4
		l0.1,0V3.2h-0.1c0,0,0-0.4,0.2-0.3l0,0.1l0.1,0l-0.1-0.1c0-0.3-0.2-2.5-0.2-2.7c0,0,0-0.1,0.1-0.1h0.2V6.4z"/>
	<path class="st0" d="M178.4,5.6l-0.1-0.1c0,0,0-0.1,0-0.1c0.2-0.2,1.9-1.6,2-1.8l0.1,0l0-0.1l-0.1,0c-0.2-0.1,0.1-0.4,0.1-0.4
		l0,0.1l0.1-0.1l0,0c0,0,0.3-0.3,0.4-0.1l0,0.1l0.1,0l0-0.1c0.2-0.2,1.6-1.9,1.8-2c0,0,0.1,0,0.1,0l0.1,0.1L178.4,5.6z"/>
	<path class="st0" d="M178.3,1l0.1-0.1c0,0,0.1,0,0.1,0c0.2,0.2,1.6,1.9,1.8,2l0,0.1l0.1,0l0-0.1c0.1-0.2,0.4,0.1,0.4,0.1l-0.1,0
		l0.1,0.1l0,0c0,0,0.3,0.3,0.1,0.4l-0.1,0l0,0.1l0.1,0c0.2,0.2,1.9,1.6,2,1.8c0,0,0,0.1,0,0.1l-0.1,0.1L178.3,1z"/>
	<path class="st0" d="M428.6,3.3V3.2c0,0,0.1-0.1,0.1-0.1c0.3,0,2.5,0.2,2.7,0.2l0.1,0.1l0-0.1l-0.1,0c-0.1-0.2,0.3-0.2,0.3-0.2
		l0,0.1h0.1V3.1c0,0,0.4,0,0.3,0.2l-0.1,0l0,0.1l0.1-0.1c0.3,0,2.5-0.2,2.7-0.2c0,0,0.1,0,0.1,0.1v0.2H428.6z"/>
	<path class="st0" d="M431.9,6.4h-0.2c0,0-0.1-0.1-0.1-0.1c0-0.3,0.2-2.5,0.2-2.7l0.1-0.1l-0.1,0l0,0.1c-0.2,0.1-0.2-0.4-0.2-0.4
		l0.1,0V3.2h-0.1c0,0,0-0.4,0.2-0.3l0,0.1l0.1,0l-0.1-0.1c0-0.3-0.2-2.5-0.2-2.7c0,0,0-0.1,0.1-0.1h0.2V6.4z"/>
	<path class="st0" d="M429.6,5.6l-0.1-0.1c0,0,0-0.1,0-0.1c0.2-0.2,1.9-1.6,2-1.8l0.1,0l0-0.1l-0.1,0c-0.2-0.1,0.1-0.4,0.1-0.4
		l0,0.1l0.1-0.1l0,0c0,0,0.3-0.3,0.4-0.1l0,0.1l0.1,0l0-0.1c0.2-0.2,1.6-1.9,1.8-2c0,0,0.1,0,0.1,0l0.1,0.1L429.6,5.6z"/>
	<path class="st0" d="M429.5,1l0.1-0.1c0,0,0.1,0,0.1,0c0.2,0.2,1.6,1.9,1.8,2l0,0.1l0.1,0l0-0.1C431.7,2.7,432,3,432,3l-0.1,0
		l0.1,0.1l0,0c0,0,0.3,0.3,0.1,0.4l-0.1,0l0,0.1l0.1,0c0.2,0.2,1.9,1.6,2,1.8c0,0,0,0.1,0,0.1l-0.1,0.1L429.5,1z"/>
	<path class="st0" d="M184.7,3.3V3.2c0,0,0.1-0.1,0.1-0.1c0.3,0,2.5,0.2,2.7,0.2l0.1,0.1l0-0.1l-0.1,0c-0.1-0.2,0.3-0.2,0.3-0.2
		l0,0.1h0.1V3.1c0,0,0.4,0,0.3,0.2l-0.1,0l0,0.1l0.1-0.1c0.3,0,2.5-0.2,2.7-0.2c0,0,0.1,0,0.1,0.1v0.2H184.7z"/>
	<path class="st0" d="M188.1,6.4h-0.2c0,0-0.1-0.1-0.1-0.1c0-0.3,0.2-2.5,0.2-2.7l0.1-0.1l-0.1,0l0,0.1c-0.2,0.1-0.2-0.4-0.2-0.4
		l0.1,0V3.2h-0.1c0,0,0-0.4,0.2-0.3l0,0.1l0.1,0L188,2.8c0-0.3-0.2-2.5-0.2-2.7c0,0,0-0.1,0.1-0.1h0.2V6.4z"/>
	<path class="st0" d="M185.8,5.6l-0.1-0.1c0,0,0-0.1,0-0.1c0.2-0.2,1.9-1.6,2-1.8l0.1,0l0-0.1l-0.1,0c-0.2-0.1,0.1-0.4,0.1-0.4
		l0,0.1l0.1-0.1l0,0c0,0,0.3-0.3,0.4-0.1l0,0.1l0.1,0l0-0.1c0.2-0.2,1.6-1.9,1.8-2c0,0,0.1,0,0.1,0l0.1,0.1L185.8,5.6z"/>
	<path class="st0" d="M185.7,1l0.1-0.1c0,0,0.1,0,0.1,0c0.2,0.2,1.6,1.9,1.8,2l0,0.1l0.1,0l0-0.1c0.1-0.2,0.4,0.1,0.4,0.1L188,3
		l0.1,0.1l0,0c0,0,0.3,0.3,0.1,0.4l-0.1,0l0,0.1l0.1,0c0.2,0.2,1.9,1.6,2,1.8c0,0,0,0.1,0,0.1l-0.1,0.1L185.7,1z"/>
	<path class="st0" d="M436,3.3V3.2c0,0,0.1-0.1,0.1-0.1c0.3,0,2.5,0.2,2.7,0.2l0.1,0.1l0-0.1l-0.1,0c-0.1-0.2,0.3-0.2,0.3-0.2l0,0.1
		h0.1V3.1c0,0,0.4,0,0.3,0.2l-0.1,0l0,0.1l0.1-0.1c0.3,0,2.5-0.2,2.7-0.2c0,0,0.1,0,0.1,0.1v0.2H436z"/>
	<path class="st0" d="M439.3,6.4h-0.2c0,0-0.1-0.1-0.1-0.1c0-0.3,0.2-2.5,0.2-2.7l0.1-0.1l-0.1,0l0,0.1c-0.2,0.1-0.2-0.4-0.2-0.4
		l0.1,0V3.2h-0.1c0,0,0-0.4,0.2-0.3l0,0.1l0.1,0l-0.1-0.1c0-0.3-0.2-2.5-0.2-2.7c0,0,0-0.1,0.1-0.1h0.2V6.4z"/>
	<path class="st0" d="M437,5.6l-0.1-0.1c0,0,0-0.1,0-0.1c0.2-0.2,1.9-1.6,2-1.8l0.1,0l0-0.1l-0.1,0c-0.2-0.1,0.1-0.4,0.1-0.4l0,0.1
		l0.1-0.1l0,0c0,0,0.3-0.3,0.4-0.1l0,0.1l0.1,0l0-0.1c0.2-0.2,1.6-1.9,1.8-2c0,0,0.1,0,0.1,0l0.1,0.1L437,5.6z"/>
	<path class="st0" d="M436.9,1l0.1-0.1c0,0,0.1,0,0.1,0c0.2,0.2,1.6,1.9,1.8,2l0,0.1l0.1,0l0-0.1c0.1-0.2,0.4,0.1,0.4,0.1l-0.1,0
		l0.1,0.1l0,0c0,0,0.3,0.3,0.1,0.4l-0.1,0l0,0.1l0.1,0c0.2,0.2,1.9,1.6,2,1.8c0,0,0,0.1,0,0.1l-0.1,0.1L436.9,1z"/>
	<path class="st0" d="M192.1,3.3V3.2c0,0,0.1-0.1,0.1-0.1c0.3,0,2.5,0.2,2.7,0.2l0.1,0.1l0-0.1l-0.1,0c-0.1-0.2,0.3-0.2,0.3-0.2
		l0,0.1h0.1V3.1c0,0,0.4,0,0.3,0.2l-0.1,0l0,0.1l0.1-0.1c0.3,0,2.5-0.2,2.7-0.2c0,0,0.1,0,0.1,0.1v0.2H192.1z"/>
	<path class="st0" d="M195.5,6.4h-0.2c0,0-0.1-0.1-0.1-0.1c0-0.3,0.2-2.5,0.2-2.7l0.1-0.1l-0.1,0l0,0.1c-0.2,0.1-0.2-0.4-0.2-0.4
		l0.1,0V3.2h-0.1c0,0,0-0.4,0.2-0.3l0,0.1l0.1,0l-0.1-0.1c0-0.3-0.2-2.5-0.2-2.7c0,0,0-0.1,0.1-0.1h0.2V6.4z"/>
	<path class="st0" d="M193.2,5.6L193,5.4c0,0,0-0.1,0-0.1c0.2-0.2,1.9-1.6,2-1.8l0.1,0l0-0.1l-0.1,0c-0.2-0.1,0.1-0.4,0.1-0.4l0,0.1
		l0.1-0.1l0,0c0,0,0.3-0.3,0.4-0.1l0,0.1l0.1,0l0-0.1c0.2-0.2,1.6-1.9,1.8-2c0,0,0.1,0,0.1,0l0.1,0.1L193.2,5.6z"/>
	<path class="st0" d="M193,1l0.1-0.1c0,0,0.1,0,0.1,0c0.2,0.2,1.6,1.9,1.8,2l0,0.1l0.1,0l0-0.1c0.1-0.2,0.4,0.1,0.4,0.1l-0.1,0
		l0.1,0.1l0,0c0,0,0.3,0.3,0.1,0.4l-0.1,0l0,0.1l0.1,0c0.2,0.2,1.9,1.6,2,1.8c0,0,0,0.1,0,0.1l-0.1,0.1L193,1z"/>
	<path class="st0" d="M443.4,3.3V3.2c0,0,0.1-0.1,0.1-0.1c0.3,0,2.5,0.2,2.7,0.2l0.1,0.1l0-0.1l-0.1,0c-0.1-0.2,0.3-0.2,0.3-0.2
		l0,0.1h0.1V3.1c0,0,0.4,0,0.3,0.2l-0.1,0l0,0.1l0.1-0.1c0.3,0,2.5-0.2,2.7-0.2c0,0,0.1,0,0.1,0.1v0.2H443.4z"/>
	<path class="st0" d="M446.7,6.4h-0.2c0,0-0.1-0.1-0.1-0.1c0-0.3,0.2-2.5,0.2-2.7l0.1-0.1l-0.1,0l0,0.1c-0.2,0.1-0.2-0.4-0.2-0.4
		l0.1,0V3.2h-0.1c0,0,0-0.4,0.2-0.3l0,0.1l0.1,0l-0.1-0.1c0-0.3-0.2-2.5-0.2-2.7c0,0,0-0.1,0.1-0.1h0.2V6.4z"/>
	<path class="st0" d="M444.4,5.6l-0.1-0.1c0,0,0-0.1,0-0.1c0.2-0.2,1.9-1.6,2-1.8l0.1,0l0-0.1l-0.1,0c-0.2-0.1,0.1-0.4,0.1-0.4
		l0,0.1l0.1-0.1l0,0c0,0,0.3-0.3,0.4-0.1l0,0.1l0.1,0l0-0.1c0.2-0.2,1.6-1.9,1.8-2c0,0,0.1,0,0.1,0L449,1L444.4,5.6z"/>
	<path class="st0" d="M444.3,1l0.1-0.1c0,0,0.1,0,0.1,0c0.2,0.2,1.6,1.9,1.8,2l0,0.1l0.1,0l0-0.1c0.1-0.2,0.4,0.1,0.4,0.1l-0.1,0
		l0.1,0.1l0,0c0,0,0.3,0.3,0.1,0.4l-0.1,0l0,0.1l0.1,0c0.2,0.2,1.9,1.6,2,1.8c0,0,0,0.1,0,0.1l-0.1,0.1L444.3,1z"/>
	<path class="st0" d="M199.5,3.3V3.2c0,0,0.1-0.1,0.1-0.1c0.3,0,2.5,0.2,2.7,0.2l0.1,0.1l0-0.1l-0.1,0c-0.1-0.2,0.3-0.2,0.3-0.2
		l0,0.1h0.1V3.1c0,0,0.4,0,0.3,0.2l-0.1,0l0,0.1l0.1-0.1c0.3,0,2.5-0.2,2.7-0.2c0,0,0.1,0,0.1,0.1v0.2H199.5z"/>
	<path class="st0" d="M202.9,6.4h-0.2c0,0-0.1-0.1-0.1-0.1c0-0.3,0.2-2.5,0.2-2.7l0.1-0.1l-0.1,0l0,0.1c-0.2,0.1-0.2-0.4-0.2-0.4
		l0.1,0V3.2h-0.1c0,0,0-0.4,0.2-0.3l0,0.1l0.1,0l-0.1-0.1c0-0.3-0.2-2.5-0.2-2.7c0,0,0-0.1,0.1-0.1h0.2V6.4z"/>
	<path class="st0" d="M200.5,5.6l-0.1-0.1c0,0,0-0.1,0-0.1c0.2-0.2,1.9-1.6,2-1.8l0.1,0l0-0.1l-0.1,0c-0.2-0.1,0.1-0.4,0.1-0.4
		l0,0.1l0.1-0.1l0,0c0,0,0.3-0.3,0.4-0.1l0,0.1l0.1,0l0-0.1c0.2-0.2,1.6-1.9,1.8-2c0,0,0.1,0,0.1,0l0.1,0.1L200.5,5.6z"/>
	<path class="st0" d="M200.4,1l0.1-0.1c0,0,0.1,0,0.1,0c0.2,0.2,1.6,1.9,1.8,2l0,0.1l0.1,0l0-0.1c0.1-0.2,0.4,0.1,0.4,0.1l-0.1,0
		l0.1,0.1l0,0c0,0,0.3,0.3,0.1,0.4l-0.1,0l0,0.1l0.1,0c0.2,0.2,1.9,1.6,2,1.8c0,0,0,0.1,0,0.1L205,5.5L200.4,1z"/>
	<path class="st0" d="M450.8,3.3V3.2c0,0,0.1-0.1,0.1-0.1c0.3,0,2.5,0.2,2.7,0.2l0.1,0.1l0-0.1l-0.1,0c-0.1-0.2,0.3-0.2,0.3-0.2
		l0,0.1h0.1V3.1c0,0,0.4,0,0.3,0.2l-0.1,0l0,0.1l0.1-0.1c0.3,0,2.5-0.2,2.7-0.2c0,0,0.1,0,0.1,0.1v0.2H450.8z"/>
	<path class="st0" d="M454.1,6.4H454c0,0-0.1-0.1-0.1-0.1c0-0.3,0.2-2.5,0.2-2.7l0.1-0.1l-0.1,0l0,0.1c-0.2,0.1-0.2-0.4-0.2-0.4
		l0.1,0V3.2h-0.1c0,0,0-0.4,0.2-0.3l0,0.1l0.1,0l-0.1-0.1c0-0.3-0.2-2.5-0.2-2.7c0,0,0-0.1,0.1-0.1h0.2V6.4z"/>
	<path class="st0" d="M451.8,5.6l-0.1-0.1c0,0,0-0.1,0-0.1c0.2-0.2,1.9-1.6,2-1.8l0.1,0l0-0.1l-0.1,0c-0.2-0.1,0.1-0.4,0.1-0.4
		l0,0.1l0.1-0.1l0,0c0,0,0.3-0.3,0.4-0.1l0,0.1l0.1,0l0-0.1c0.2-0.2,1.6-1.9,1.8-2c0,0,0.1,0,0.1,0l0.1,0.1L451.8,5.6z"/>
	<path class="st0" d="M451.7,1l0.1-0.1c0,0,0.1,0,0.1,0c0.2,0.2,1.6,1.9,1.8,2l0,0.1l0.1,0l0-0.1c0.1-0.2,0.4,0.1,0.4,0.1l-0.1,0
		l0.1,0.1l0,0c0,0,0.3,0.3,0.1,0.4l-0.1,0l0,0.1l0.1,0c0.2,0.2,1.9,1.6,2,1.8c0,0,0,0.1,0,0.1l-0.1,0.1L451.7,1z"/>
	<path class="st0" d="M206.9,3.3V3.2c0,0,0.1-0.1,0.1-0.1c0.3,0,2.5,0.2,2.7,0.2l0.1,0.1l0-0.1l-0.1,0c-0.1-0.2,0.3-0.2,0.3-0.2
		l0,0.1h0.1V3.1c0,0,0.4,0,0.3,0.2l-0.1,0l0,0.1l0.1-0.1c0.3,0,2.5-0.2,2.7-0.2c0,0,0.1,0,0.1,0.1v0.2H206.9z"/>
	<path class="st0" d="M210.2,6.4h-0.2c0,0-0.1-0.1-0.1-0.1c0-0.3,0.2-2.5,0.2-2.7l0.1-0.1l-0.1,0l0,0.1C210,3.7,210,3.2,210,3.2
		l0.1,0V3.2H210c0,0,0-0.4,0.2-0.3l0,0.1l0.1,0l-0.1-0.1c0-0.3-0.2-2.5-0.2-2.7c0,0,0-0.1,0.1-0.1h0.2V6.4z"/>
	<path class="st0" d="M207.9,5.6l-0.1-0.1c0,0,0-0.1,0-0.1c0.2-0.2,1.9-1.6,2-1.8l0.1,0l0-0.1l-0.1,0c-0.2-0.1,0.1-0.4,0.1-0.4
		l0,0.1l0.1-0.1l0,0c0,0,0.3-0.3,0.4-0.1l0,0.1l0.1,0l0-0.1c0.2-0.2,1.6-1.9,1.8-2c0,0,0.1,0,0.1,0l0.1,0.1L207.9,5.6z"/>
	<path class="st0" d="M207.8,1l0.1-0.1c0,0,0.1,0,0.1,0c0.2,0.2,1.6,1.9,1.8,2l0,0.1l0.1,0l0-0.1c0.1-0.2,0.4,0.1,0.4,0.1l-0.1,0
		l0.1,0.1l0,0c0,0,0.3,0.3,0.1,0.4l-0.1,0l0,0.1l0.1,0c0.2,0.2,1.9,1.6,2,1.8c0,0,0,0.1,0,0.1l-0.1,0.1L207.8,1z"/>
	<path class="st0" d="M458.2,3.3V3.2c0,0,0.1-0.1,0.1-0.1c0.3,0,2.5,0.2,2.7,0.2l0.1,0.1l0-0.1l-0.1,0c-0.1-0.2,0.3-0.2,0.3-0.2
		l0,0.1h0.1V3.1c0,0,0.4,0,0.3,0.2l-0.1,0l0,0.1l0.1-0.1c0.3,0,2.5-0.2,2.7-0.2c0,0,0.1,0,0.1,0.1v0.2H458.2z"/>
	<path class="st0" d="M461.5,6.4h-0.2c0,0-0.1-0.1-0.1-0.1c0-0.3,0.2-2.5,0.2-2.7l0.1-0.1l-0.1,0l0,0.1c-0.2,0.1-0.2-0.4-0.2-0.4
		l0.1,0V3.2h-0.1c0,0,0-0.4,0.2-0.3l0,0.1l0.1,0l-0.1-0.1c0-0.3-0.2-2.5-0.2-2.7c0,0,0-0.1,0.1-0.1h0.2V6.4z"/>
	<path class="st0" d="M459.2,5.6l-0.1-0.1c0,0,0-0.1,0-0.1c0.2-0.2,1.9-1.6,2-1.8l0.1,0l0-0.1l-0.1,0c-0.2-0.1,0.1-0.4,0.1-0.4
		l0,0.1l0.1-0.1l0,0c0,0,0.3-0.3,0.4-0.1l0,0.1l0.1,0l0-0.1c0.2-0.2,1.6-1.9,1.8-2c0,0,0.1,0,0.1,0l0.1,0.1L459.2,5.6z"/>
	<path class="st0" d="M459.1,1l0.1-0.1c0,0,0.1,0,0.1,0c0.2,0.2,1.6,1.9,1.8,2l0,0.1l0.1,0l0-0.1c0.1-0.2,0.4,0.1,0.4,0.1l-0.1,0
		l0.1,0.1l0,0c0,0,0.3,0.3,0.1,0.4l-0.1,0l0,0.1l0.1,0c0.2,0.2,1.9,1.6,2,1.8c0,0,0,0.1,0,0.1l-0.1,0.1L459.1,1z"/>
	<path class="st0" d="M214.3,3.3V3.2c0,0,0.1-0.1,0.1-0.1c0.3,0,2.5,0.2,2.7,0.2l0.1,0.1l0-0.1l-0.1,0c-0.1-0.2,0.3-0.2,0.3-0.2
		l0,0.1h0.1V3.1c0,0,0.4,0,0.3,0.2l-0.1,0l0,0.1l0.1-0.1c0.3,0,2.5-0.2,2.7-0.2c0,0,0.1,0,0.1,0.1v0.2H214.3z"/>
	<path class="st0" d="M217.6,6.4h-0.2c0,0-0.1-0.1-0.1-0.1c0-0.3,0.2-2.5,0.2-2.7l0.1-0.1l-0.1,0l0,0.1c-0.2,0.1-0.2-0.4-0.2-0.4
		l0.1,0V3.2h-0.1c0,0,0-0.4,0.2-0.3l0,0.1l0.1,0l-0.1-0.1c0-0.3-0.2-2.5-0.2-2.7c0,0,0-0.1,0.1-0.1h0.2V6.4z"/>
	<path class="st0" d="M215.3,5.6l-0.1-0.1c0,0,0-0.1,0-0.1c0.2-0.2,1.9-1.6,2-1.8l0.1,0l0-0.1l-0.1,0c-0.2-0.1,0.1-0.4,0.1-0.4
		l0,0.1l0.1-0.1l0,0c0,0,0.3-0.3,0.4-0.1l0,0.1l0.1,0l0-0.1c0.2-0.2,1.6-1.9,1.8-2c0,0,0.1,0,0.1,0l0.1,0.1L215.3,5.6z"/>
	<path class="st0" d="M215.2,1l0.1-0.1c0,0,0.1,0,0.1,0c0.2,0.2,1.6,1.9,1.8,2l0,0.1l0.1,0l0-0.1c0.1-0.2,0.4,0.1,0.4,0.1l-0.1,0
		l0.1,0.1l0,0c0,0,0.3,0.3,0.1,0.4l-0.1,0l0,0.1l0.1,0c0.2,0.2,1.9,1.6,2,1.8c0,0,0,0.1,0,0.1l-0.1,0.1L215.2,1z"/>
	<path class="st0" d="M465.6,3.3V3.2c0,0,0.1-0.1,0.1-0.1c0.3,0,2.5,0.2,2.7,0.2l0.1,0.1l0-0.1l-0.1,0c-0.1-0.2,0.3-0.2,0.3-0.2
		l0,0.1h0.1V3.1c0,0,0.4,0,0.3,0.2l-0.1,0l0,0.1l0.1-0.1c0.3,0,2.5-0.2,2.7-0.2c0,0,0.1,0,0.1,0.1v0.2H465.6z"/>
	<path class="st0" d="M468.9,6.4h-0.2c0,0-0.1-0.1-0.1-0.1c0-0.3,0.2-2.5,0.2-2.7l0.1-0.1l-0.1,0l0,0.1c-0.2,0.1-0.2-0.4-0.2-0.4
		l0.1,0V3.2h-0.1c0,0,0-0.4,0.2-0.3l0,0.1l0.1,0l-0.1-0.1c0-0.3-0.2-2.5-0.2-2.7c0,0,0-0.1,0.1-0.1h0.2V6.4z"/>
	<path class="st0" d="M466.6,5.6l-0.1-0.1c0,0,0-0.1,0-0.1c0.2-0.2,1.9-1.6,2-1.8l0.1,0l0-0.1l-0.1,0c-0.2-0.1,0.1-0.4,0.1-0.4
		l0,0.1l0.1-0.1l0,0c0,0,0.3-0.3,0.4-0.1l0,0.1l0.1,0l0-0.1c0.2-0.2,1.6-1.9,1.8-2c0,0,0.1,0,0.1,0l0.1,0.1L466.6,5.6z"/>
	<path class="st0" d="M466.5,1l0.1-0.1c0,0,0.1,0,0.1,0c0.2,0.2,1.6,1.9,1.8,2l0,0.1l0.1,0l0-0.1c0.1-0.2,0.4,0.1,0.4,0.1l-0.1,0
		l0.1,0.1l0,0c0,0,0.3,0.3,0.1,0.4l-0.1,0l0,0.1l0.1,0c0.2,0.2,1.9,1.6,2,1.8c0,0,0,0.1,0,0.1L471,5.5L466.5,1z"/>
	<path class="st0" d="M221.7,3.3V3.2c0,0,0.1-0.1,0.1-0.1c0.3,0,2.5,0.2,2.7,0.2l0.1,0.1l0-0.1l-0.1,0c-0.1-0.2,0.3-0.2,0.3-0.2
		l0,0.1h0.1V3.1c0,0,0.4,0,0.3,0.2l-0.1,0l0,0.1l0.1-0.1c0.3,0,2.5-0.2,2.7-0.2c0,0,0.1,0,0.1,0.1v0.2H221.7z"/>
	<path class="st0" d="M225,6.4h-0.2c0,0-0.1-0.1-0.1-0.1c0-0.3,0.2-2.5,0.2-2.7l0.1-0.1l-0.1,0l0,0.1c-0.2,0.1-0.2-0.4-0.2-0.4
		l0.1,0V3.2h-0.1c0,0,0-0.4,0.2-0.3l0,0.1l0.1,0L225,2.8c0-0.3-0.2-2.5-0.2-2.7c0,0,0-0.1,0.1-0.1h0.2V6.4z"/>
	<path class="st0" d="M222.7,5.6l-0.1-0.1c0,0,0-0.1,0-0.1c0.2-0.2,1.9-1.6,2-1.8l0.1,0l0-0.1l-0.1,0c-0.2-0.1,0.1-0.4,0.1-0.4
		l0,0.1l0.1-0.1l0,0c0,0,0.3-0.3,0.4-0.1l0,0.1l0.1,0l0-0.1c0.2-0.2,1.6-1.9,1.8-2c0,0,0.1,0,0.1,0l0.1,0.1L222.7,5.6z"/>
	<path class="st0" d="M222.6,1l0.1-0.1c0,0,0.1,0,0.1,0c0.2,0.2,1.6,1.9,1.8,2l0,0.1l0.1,0l0-0.1c0.1-0.2,0.4,0.1,0.4,0.1L225,3
		l0.1,0.1l0,0c0,0,0.3,0.3,0.1,0.4l-0.1,0l0,0.1l0.1,0c0.2,0.2,1.9,1.6,2,1.8c0,0,0,0.1,0,0.1l-0.1,0.1L222.6,1z"/>
	<path class="st0" d="M472.9,3.3V3.2c0,0,0.1-0.1,0.1-0.1c0.3,0,2.5,0.2,2.7,0.2l0.1,0.1l0-0.1l-0.1,0c-0.1-0.2,0.3-0.2,0.3-0.2
		l0,0.1h0.1V3.1c0,0,0.4,0,0.3,0.2l-0.1,0l0,0.1l0.1-0.1c0.3,0,2.5-0.2,2.7-0.2c0,0,0.1,0,0.1,0.1v0.2H472.9z"/>
	<path class="st0" d="M476.3,6.4h-0.2c0,0-0.1-0.1-0.1-0.1c0-0.3,0.2-2.5,0.2-2.7l0.1-0.1l-0.1,0l0,0.1C476,3.7,476,3.2,476,3.2
		l0.1,0V3.2H476c0,0,0-0.4,0.2-0.3l0,0.1l0.1,0l-0.1-0.1c0-0.3-0.2-2.5-0.2-2.7c0,0,0-0.1,0.1-0.1h0.2V6.4z"/>
	<path class="st0" d="M474,5.6l-0.1-0.1c0,0,0-0.1,0-0.1c0.2-0.2,1.9-1.6,2-1.8l0.1,0l0-0.1l-0.1,0c-0.2-0.1,0.1-0.4,0.1-0.4l0,0.1
		l0.1-0.1l0,0c0,0,0.3-0.3,0.4-0.1l0,0.1l0.1,0l0-0.1c0.2-0.2,1.6-1.9,1.8-2c0,0,0.1,0,0.1,0l0.1,0.1L474,5.6z"/>
	<path class="st0" d="M473.9,1l0.1-0.1c0,0,0.1,0,0.1,0c0.2,0.2,1.6,1.9,1.8,2l0,0.1l0.1,0l0-0.1c0.1-0.2,0.4,0.1,0.4,0.1l-0.1,0
		l0.1,0.1l0,0c0,0,0.3,0.3,0.1,0.4l-0.1,0l0,0.1l0.1,0c0.2,0.2,1.9,1.6,2,1.8c0,0,0,0.1,0,0.1l-0.1,0.1L473.9,1z"/>
	<path class="st0" d="M229.1,3.3V3.2c0,0,0.1-0.1,0.1-0.1c0.3,0,2.5,0.2,2.7,0.2l0.1,0.1l0-0.1l-0.1,0c-0.1-0.2,0.3-0.2,0.3-0.2
		l0,0.1h0.1V3.1c0,0,0.4,0,0.3,0.2l-0.1,0l0,0.1l0.1-0.1c0.3,0,2.5-0.2,2.7-0.2c0,0,0.1,0,0.1,0.1v0.2H229.1z"/>
	<path class="st0" d="M232.4,6.4h-0.2c0,0-0.1-0.1-0.1-0.1c0-0.3,0.2-2.5,0.2-2.7l0.1-0.1l-0.1,0l0,0.1c-0.2,0.1-0.2-0.4-0.2-0.4
		l0.1,0V3.2h-0.1c0,0,0-0.4,0.2-0.3l0,0.1l0.1,0l-0.1-0.1c0-0.3-0.2-2.5-0.2-2.7c0,0,0-0.1,0.1-0.1h0.2V6.4z"/>
	<path class="st0" d="M230.1,5.6L230,5.4c0,0,0-0.1,0-0.1c0.2-0.2,1.9-1.6,2-1.8l0.1,0l0-0.1l-0.1,0c-0.2-0.1,0.1-0.4,0.1-0.4l0,0.1
		l0.1-0.1l0,0c0,0,0.3-0.3,0.4-0.1l0,0.1l0.1,0l0-0.1c0.2-0.2,1.6-1.9,1.8-2c0,0,0.1,0,0.1,0l0.1,0.1L230.1,5.6z"/>
	<path class="st0" d="M230,1l0.1-0.1c0,0,0.1,0,0.1,0c0.2,0.2,1.6,1.9,1.8,2l0,0.1l0.1,0l0-0.1c0.1-0.2,0.4,0.1,0.4,0.1l-0.1,0
		l0.1,0.1l0,0c0,0,0.3,0.3,0.1,0.4l-0.1,0l0,0.1l0.1,0c0.2,0.2,1.9,1.6,2,1.8c0,0,0,0.1,0,0.1l-0.1,0.1L230,1z"/>
	<path class="st0" d="M480.3,3.3V3.2c0,0,0.1-0.1,0.1-0.1c0.3,0,2.5,0.2,2.7,0.2l0.1,0.1l0-0.1l-0.1,0c-0.1-0.2,0.3-0.2,0.3-0.2
		l0,0.1h0.1V3.1c0,0,0.4,0,0.3,0.2l-0.1,0l0,0.1l0.1-0.1c0.3,0,2.5-0.2,2.7-0.2c0,0,0.1,0,0.1,0.1v0.2H480.3z"/>
	<path class="st0" d="M483.7,6.4h-0.2c0,0-0.1-0.1-0.1-0.1c0-0.3,0.2-2.5,0.2-2.7l0.1-0.1l-0.1,0l0,0.1c-0.2,0.1-0.2-0.4-0.2-0.4
		l0.1,0V3.2h-0.1c0,0,0-0.4,0.2-0.3l0,0.1l0.1,0l-0.1-0.1c0-0.3-0.2-2.5-0.2-2.7c0,0,0-0.1,0.1-0.1h0.2V6.4z"/>
	<path class="st0" d="M481.4,5.6l-0.1-0.1c0,0,0-0.1,0-0.1c0.2-0.2,1.9-1.6,2-1.8l0.1,0l0-0.1l-0.1,0c-0.2-0.1,0.1-0.4,0.1-0.4
		l0,0.1l0.1-0.1l0,0c0,0,0.3-0.3,0.4-0.1l0,0.1l0.1,0l0-0.1c0.2-0.2,1.6-1.9,1.8-2c0,0,0.1,0,0.1,0l0.1,0.1L481.4,5.6z"/>
	<path class="st0" d="M481.3,1l0.1-0.1c0,0,0.1,0,0.1,0c0.2,0.2,1.6,1.9,1.8,2l0,0.1l0.1,0l0-0.1c0.1-0.2,0.4,0.1,0.4,0.1l-0.1,0
		l0.1,0.1l0,0c0,0,0.3,0.3,0.1,0.4l-0.1,0l0,0.1l0.1,0c0.2,0.2,1.9,1.6,2,1.8c0,0,0,0.1,0,0.1l-0.1,0.1L481.3,1z"/>
</g>
</svg>
